<svg id="Layer_1" xmlns="http://www.w3.org/2000/svg" viewBox="-457.8 258.2 45.5 45.5"><style>.st0{fill:none;} .st1{fill:none;stroke:#FFFFFF;stroke-width:1.535;} .st2{fill:#FFFFFF;}</style><title>instagram</title><g id="CITY"><g id="city"><g id="Footer"><g id="footer-HR"><g id="instagram"><path id="Rectangle" class="st0" d="M-457 259h44v44h-44z"/><circle id="Oval" class="st1" cx="-435" cy="281" r="22"/><path id="Shape" class="st2" d="M-428.9 271h-12.3c-2.1 0-3.9 1.7-3.9 3.9v12.3c0 2.1 1.7 3.9 3.9 3.9h12.3c2.1 0 3.9-1.7 3.9-3.9v-12.3c0-2.2-1.7-3.9-3.9-3.9zm1.1 2.3h.4v3.4h-3.4v-3.4h3zm-10.1 5.6c.6-.9 1.7-1.5 2.9-1.5s2.2.6 2.9 1.5c.4.6.7 1.3.7 2.1 0 1.9-1.6 3.5-3.5 3.5s-3.5-1.6-3.5-3.5c-.1-.8.1-1.5.5-2.1zm11 8.2c0 1.1-.9 1.9-1.9 1.9h-12.3c-1.1 0-1.9-.9-1.9-1.9v-8.2h3c-.3.6-.4 1.3-.4 2.1 0 3 2.5 5.5 5.5 5.5s5.5-2.5 5.5-5.5c0-.7-.1-1.4-.4-2.1h3v8.2h-.1z"/></g></g></g></g></g></svg>