<?xml version="1.0" encoding="utf-8"?>
<!-- Generator: Adobe Illustrator 21.0.2, SVG Export Plug-In . SVG Version: 6.00 Build 0)  -->
<svg version="1.1" id="Layer_1" xmlns="http://www.w3.org/2000/svg" xmlns:xlink="http://www.w3.org/1999/xlink" x="0px" y="0px"
	 viewBox="0 0 3320.5 2148.6" style="enable-background:new 0 0 3320.5 2148.6;" xml:space="preserve">
<style type="text/css">
	.st0{font-family:'MyriadPro-Regular';}
	.st1{font-size:12px;}
	.st2{letter-spacing:28;}
	.st3{fill:#FF00C4;}
	.st4{fill:none;}
</style>
<text transform="matrix(1 0 0 1 396 612)"><tspan x="0" y="0" class="st0 st1">  </tspan><tspan x="5.1" y="0" class="st0 st1 st2">	</tspan><tspan x="36" y="0" class="st0 st1">.large-copy {</tspan><tspan x="0" y="14.4" class="st0 st1">            color: $pink!important;</tspan><tspan x="0" y="28.8" class="st0 st1">        }</tspan></text>
<path class="st3" d="M3236,410.6c17.8-20.1,39-38.7,49.4-64.1c23.1-56.2-23-103.1-52.4-146c-11.9-17.4-20.8-42.6-46.7-38.2
	c-9.4,1.6-16,6.9-21.6,14.3c-10.9,14.3-20.2,30.2-30.7,44.9c-80.5,112.8-178.3,212.1-282.3,303.3c-51.3,45-104.2,88.1-157.8,130.2
	c-28.3,22.2-56.7,44-85.3,65.8c-26.8,20.4-53.1,42.5-81.2,61.2c-43.2,28.7-46.3-60.2-44.6-83.9c2.3-32.8,8.4-65.8,2.5-98.6
	c-10.6-59.7-70.1-98.2-129-85.7c-3.9,0.8-6.4,4.8-6.5,8.6c-4.8,103.1-35.4,203.1-88.4,291.4c-3.5,0.5-7.1,0.3-10.6-0.6
	c-32.1-68.2-32.4-150.4,3.5-217.6c36.4-68.1,106.4-116.2,182.9-126.2c5.3-0.7,10.6-5.2,8.6-11.3c-23-68.3-126.4-46.6-179-43
	c-89.7,6.1-179.5,12.2-269.2,18.3c32.3-23.4,64.5-46.7,96.8-70.1c6.5-4.7,5.2-13.3-2.1-16.3c-115.2-46.7-240.1-56.5-363-64.7
	c-125-8.3-250-15.1-375-23.6c-251.2-17.2-503.1-41.4-748.4-99.9c-67.1-16-133.5-34.5-199-56.1C372.9,91.8,339.3,79.8,306,67
	c-9.2-3.6-21.2-10.9-30.1-2.6c-2.5,2.4-4.5,5.7-5,9.1c-0.1,0.7,0.3,3,0.8,5.4c-12.4-6.6-24.8-13.1-37.2-19.7
	c-5.3-2.8-11.4-7.2-17.8-6.2c-8.6,1.3-13.9,10.1-11.3,18.2c0,0.1,0,0.2,0.1,0.2c7.7,22.7,6.2,52.6,5.1,76.3
	c-1.2,26.5-5.4,52.7-11.5,78.5c-12.6,53.3-33.1,104.3-55,154.4c-42.7,97.8-93,195.4-108.7,302.2c-35.2,240,114,454.9,283.5,607.8
	c45.3,40.9,93,79.2,141.3,116.6c45.3,35.1,91.6,69.2,141.2,98c48.6,28.2,100.8,51.6,156,63.5c63.4,13.6,126.2,3.7,190.2,6.8
	c105.4,5.1,204.7,69.7,252.6,163.8c10.4,20.4,16.6,42.4,39.6,52c19,8,36.8,0.8,52.9-10c20.1-13.5,39.2-28.1,64.5-18
	c23.4,9.3,40.6,31.6,54.2,51.8c56.3,83.7,77.9,191.9,155.8,260.7c18.1,16,37.5,31.3,56.5,46.3c14.4,11.4,31.6,24.1,50.8,24.4
	c12.7,0.1,29.6-6.9,33.5-20.1c3.4-11.6-3.8-25.2-8.4-35.4c-18.8-41.1-44.2-84-35.8-131.1c9.2-51.9,54.6-85.1,96.7-110.9
	c35.3-21.6,69.3-38.9,108.5-52c37.6-12.6,76.1-24.3,115-32.1c120.1-24.2,245.5-13.2,367-24.1c61.5-5.5,133.2-28.8,192.9-5.1
	c45,17.8,71.7,60.9,93.3,101.8c22.5,42.7,41.6,87.5,72.7,125c31.7,38.3,77.8,74.9,127,86.6c43.2,10.3,88.4-10.7,84.7-60.5
	c-1.7-23.7-12.5-46.3-24-66.8c-15.8-28.2-31.5-56.4-46.3-85.1c-14.9-29-29.1-58.3-42.6-87.9c-13.7-30.1-28.5-60.6-36.4-92.8
	c-8-32.3-5.1-64.2,13.7-92.2c14.4-21.5,34.7-38.7,54.3-55.3c38.1-32.4,72-66.7,98.3-109.5c26.2-42.7,44.7-90,57.2-138.4
	c25.7-99.9,27.5-204.9,20.4-307.3c-3.6-51.4-8.7-105.7,7.8-155.4c17.8-53.9,62.2-77.3,113.7-92.1c43.1-12.4,88.4-22.5,121.2-55.3
	c4.4-4.4,2.7-10.6-1.8-14c-45.6-34.3-66.4-95.1-57.3-150.7C3204.2,457.3,3216.9,432.1,3236,410.6z M2367,531c0-0.3,0-0.7,0.1-1
	c0.4-0.1,0.8-0.1,1.2-0.1C2367.8,530.3,2367.4,530.6,2367,531z"/>
<path class="st4" d="M2779.2,1637.1"/>
<g>
	<path class="st3" d="M3043.6,755.3c-1.9-5.8-4.9-11.4-9.4-16.1c-4.4-4.6-9.5-8.6-15.6-10.6c-5.9-1.9-12.4-2.8-18.5-1.1l0,0.7
		c5.7,2.2,10.8,4.4,15.8,7c4.9,2.6,10.1,4.6,14.4,8.1c4.2,3.5,7.5,8.1,10,13.3c2.6,5.1,4.2,10.8,5.7,16.5l0.7-0.1
		C3046.3,767.1,3045.5,761.2,3043.6,755.3z"/>
	<path class="st3" d="M2974.5,750.8c1.1,2.2,2,4.5,2.7,6.9c0.7,2.5,1.3,5,1.9,7.5c1,5,1.7,10.1,1.5,15c-0.2,4.9-1.2,9.6-2.4,14
		c-1.5,4.8-3,9.8-4.7,14.7c-1.7,4.9-3.5,9.7-5.6,14.4c-2.2,4.6-4.3,9.3-8.6,12.2l0.3,1c2.9-0.3,5.6-1.9,7.8-3.7
		c2.3-1.8,4.2-3.9,6-6.1c3.5-4.4,6.4-9.2,8.9-14.1c2.5-4.9,4.7-9.9,6.4-15.2c1.9-5.8,2-11.9,1.3-17.6c-0.6-5.7-1.9-11.2-3.7-16.5
		c-0.9-2.6-1.8-5.2-2.9-7.8c-1.1-2.7-2.5-5.2-4-7.6c-6.2-9.4-16.1-16.6-27-18l-0.2,1C2962.3,734.2,2970.1,741.9,2974.5,750.8z"/>
	<path class="st3" d="M2749.8,1643.4c-3.8,1-7.4,2.6-10.8,4.6c-1.7,1-3.4,2.1-5,3.3c-1.6,1.3-3,2.6-4.4,4c-2.8,2.8-5.5,5.8-7.7,9.2
		c-4.6,6.7-7,14.7-7.5,22.6c-0.5,7.9,0.7,15.8,3.8,22.9l1.1-0.1c1.3-7.5,2.4-14.6,4.3-21.2c1.9-6.6,4.5-12.7,7.4-18.7
		c1.5-3,3.3-5.9,5.4-8.6c2.2-2.6,4.3-5.2,6.9-7.5c5.1-4.6,11-9,18.1-10.5v-1.1C2757.5,1641.8,2753.5,1642.4,2749.8,1643.4z"/>
	<path class="st3" d="M2936.9,960.5c-7.7-10.1-18.1-18.1-29.8-22.2l-0.4,1c10.8,5.5,19.8,14.1,25.8,24.2c6.2,10,9.7,21.6,9.5,33
		c-0.1,5.7-1,11.4-2.7,16.9c-1.6,5.5-3.5,10.9-5.5,16.4c-4,11-9.3,21.9-13.5,33.8l0.9,0.6c4.6-4.3,8.7-9,12.4-14
		c3.8-5,7.1-10.4,10-16.1c5.8-11.4,8-24.9,6.9-37.9C2949.6,983,2944.5,970.6,2936.9,960.5z"/>
	<path class="st3" d="M3005.4,898.8c-8-8-19.1-13.4-30.7-14.5c-11.6-1.2-23.6,0.3-33.8,5.5c-5.1,2.5-9.9,5.5-14.2,9.2
		c-4.3,3.6-8.4,7.6-11.3,12.5l0.8,0.8c9.7-5,19.3-9.2,28.9-12.6c4.8-1.7,9.6-3.3,14.4-4.6c4.8-1.4,9.8-2.2,14.7-2.2
		c9.9,0,19.8,3.4,27.7,9.9c8.2,6.2,14.4,15.2,19.7,24.5l1-0.4c-2-5-4.1-10.1-7-14.8C3012.8,907.3,3009.4,902.8,3005.4,898.8z"/>
</g>
</svg>
