<?xml version="1.0" encoding="utf-8"?>
<!-- Generator: Adobe Illustrator 19.0.0, SVG Export Plug-In . SVG Version: 6.00 Build 0)  -->
<!DOCTYPE svg PUBLIC "-//W3C//DTD SVG 1.1//EN" "http://www.w3.org/Graphics/SVG/1.1/DTD/svg11.dtd">
<svg version="1.1" id="Layer_1" xmlns="http://www.w3.org/2000/svg" xmlns:xlink="http://www.w3.org/1999/xlink" x="0px" y="0px"
	 viewBox="0 0 230.3 47.4" enable-background="new 0 0 230.3 47.4" xml:space="preserve">
<g id="XMLID_367_">
	<g id="XMLID_406_">
		<path id="XMLID_428_" fill="#FFFFFF" d="M6.4,17.5l3.8-17.2H14L11,14h8.6l-0.8,3.4H6.4z"/>
		<path id="XMLID_426_" fill="#FFFFFF" d="M27.3,10.6l-1.5,6.8h-3.8l1.5-6.8L19.2,0.3h4.4l2.6,6.9l5.7-6.9h4.3L27.3,10.6z"/>
		<path id="XMLID_424_" fill="#FFFFFF" d="M40.4,3.7l-0.8,3.7h8.2L47,10.8h-8.2l-1.5,6.7h-3.8l3.8-17.2h13.1l-0.8,3.4H40.4z"/>
		<path id="XMLID_422_" fill="#FFFFFF" d="M61.7,3.8l-3,13.7h-3.8l3-13.7h-5.2l0.8-3.5h14.2l-0.8,3.5H61.7z"/>
		<path id="XMLID_420_" fill="#FFFFFF" d="M71.2,17.5l0.6-2.9l11.9-11h-9.2l0.7-3.3h14l-0.6,2.9l-11.9,11h9.4l-0.7,3.3H71.2z"/>
		<path id="XMLID_417_" fill="#FFFFFF" d="M95.3,17.8c-5.3,0-8.2-4-7.2-8.8l0,0C89.2,4,93.9,0,99.2,0c5.3,0,8.2,4,7.2,8.8l0,0
			C105.3,13.8,100.6,17.8,95.3,17.8z M102.4,8.9c0.6-2.9-1-5.4-4-5.4c-3,0-5.7,2.4-6.3,5.3l0,0c-0.6,2.9,1,5.4,4,5.4
			C99.1,14.3,101.8,11.9,102.4,8.9L102.4,8.9z"/>
		<path id="XMLID_415_" fill="#FFFFFF" d="M120.1,17.5l2.5-11.2l-6.4,7.3H116l-3.2-7.3l-2.4,11.1h-3.7l3.8-17.2h4.1l2.9,7.3l6.1-7.3
			h4.1l-3.8,17.2H120.1z"/>
		<path id="XMLID_411_" fill="#FFFFFF" d="M134.9,17.5h-8.2l3.8-17.2h8c3.5,0,5.3,1.7,4.7,4.4l0,0c-0.4,1.9-1.7,3-3.1,3.7
			c1.8,0.8,2.8,1.9,2.3,4.2l0,0C141.7,15.9,138.8,17.5,134.9,17.5z M138.7,12.2c0.3-1.2-0.4-1.9-2.4-1.9H132l-0.8,3.8h4.5
			C137.3,14.2,138.4,13.6,138.7,12.2L138.7,12.2z M139.3,5.4c0.2-1.1-0.5-1.8-2.1-1.8h-3.7l-0.8,3.6h3.5
			C137.8,7.2,139,6.7,139.3,5.4L139.3,5.4z"/>
		<path id="XMLID_409_" fill="#FFFFFF" d="M143.4,17.5l3.8-17.2h3.8l-3.8,17.2H143.4z"/>
		<path id="XMLID_407_" fill="#FFFFFF" d="M150.2,17.5L154,0.3h13l-0.7,3.4H157l-0.8,3.5h8.1l-0.7,3.4h-8.1l-0.8,3.6h9.3l-0.7,3.4
			H150.2z"/>
	</g>
	<g id="XMLID_370_">
		<path id="XMLID_403_" fill="#FFFFFF" d="M6.7,47.1H0l3.8-17.2h6.7c5.4,0,8.3,3.7,7.3,8.5l0,0C16.7,43.3,12.1,47.1,6.7,47.1z
			 M13.8,38.5c0.7-3-0.9-5.2-4-5.2H6.8L4.5,43.7h2.9C10.5,43.7,13.1,41.6,13.8,38.5L13.8,38.5z"/>
		<path id="XMLID_400_" fill="#FFFFFF" d="M18,47.1l3.8-17.2h13L34,33.3h-9.2L24,36.7h8.1l-0.7,3.4h-8.1l-0.8,3.6h9.3L31,47.1H18z"
			/>
		<path id="XMLID_398_" fill="#FFFFFF" d="M33.2,47.1L37,29.9h3.8l-3,13.7h8.6l-0.8,3.4H33.2z"/>
		<path id="XMLID_396_" fill="#FFFFFF" d="M47.3,47.1l3.8-17.2h3.8l-3.8,17.2H47.3z"/>
		<path id="XMLID_394_" fill="#FFFFFF" d="M63,47.2h-3.3l-3.1-17.3h4.2L62.5,42l7.1-12.1h4.1L63,47.2z"/>
		<path id="XMLID_392_" fill="#FFFFFF" d="M71.4,47.1l3.8-17.2h13l-0.7,3.4h-9.2l-0.8,3.5h8.1l-0.7,3.4h-8.1l-0.8,3.6h9.3l-0.7,3.4
			H71.4z"/>
		<path id="XMLID_388_" fill="#FFFFFF" d="M97,47.1l-2.5-5.5h-3l-1.2,5.5h-3.8l3.8-17.2h7.9c4,0,6,2.1,5.2,5.7l0,0
			c-0.6,2.8-2.5,4.5-4.9,5.3l2.8,6.1H97z M99.6,35.8c0.4-1.6-0.6-2.5-2.4-2.5h-3.8l-1.1,4.9h3.8C98,38.2,99.2,37.3,99.6,35.8
			L99.6,35.8z"/>
		<path id="XMLID_386_" fill="#FFFFFF" d="M112.6,40.2l-1.5,6.8h-3.8l1.5-6.8l-4.3-10.4h4.4l2.6,6.9l5.7-6.9h4.3L112.6,40.2z"/>
		<path id="XMLID_384_" fill="#FFFFFF" d="M131,47.3c-2.6,0-5-0.9-6.7-2.7l2.8-2.7c1.3,1.3,2.7,2.1,4.7,2.1c1.5,0,2.6-0.6,2.8-1.6
			l0,0c0.2-1-0.3-1.4-3-2.2c-3.3-0.9-5.3-1.8-4.5-5.3l0,0c0.7-3.1,3.6-5.2,7.1-5.2c2.5,0,4.5,0.8,5.9,2.2l-2.6,2.8
			c-1.3-1.1-2.6-1.7-4.1-1.7c-1.4,0-2.4,0.7-2.5,1.5l0,0.1c-0.2,1.1,0.4,1.5,3.2,2.3c3.3,0.9,5,2.2,4.3,5.2l0,0
			C137.7,45.4,134.7,47.3,131,47.3z"/>
		<path id="XMLID_382_" fill="#FFFFFF" d="M139.4,47.1l3.8-17.2h13l-0.7,3.4h-9.2l-0.8,3.5h8.1l-0.7,3.4h-8.1l-0.8,3.6h9.3l-0.7,3.4
			H139.4z"/>
		<path id="XMLID_379_" fill="#FFFFFF" d="M165.1,47.1l-2.5-5.5h-3l-1.2,5.5h-3.8l3.8-17.2h7.9c4,0,6,2.1,5.2,5.7l0,0
			c-0.6,2.8-2.5,4.5-4.9,5.3l2.8,6.1H165.1z M167.6,35.8c0.4-1.6-0.6-2.5-2.4-2.5h-3.8l-1.1,4.9h3.8C166,38.2,167.3,37.3,167.6,35.8
			L167.6,35.8z"/>
		<path id="XMLID_377_" fill="#FFFFFF" d="M179.5,47.2h-3.3L173,29.9h4.2L179,42l7.1-12.1h4.1L179.5,47.2z"/>
		<path id="XMLID_375_" fill="#FFFFFF" d="M188,47.1l3.8-17.2h3.8l-3.8,17.2H188z"/>
		<path id="XMLID_373_" fill="#FFFFFF" d="M202.9,47.4c-5.1,0-8-3.9-6.9-8.8l0,0c1.1-4.9,5.6-8.9,10.9-8.9c3.2,0,4.9,1.1,6.2,2.6
			l-3,2.8c-1.1-1.2-2.2-1.9-4-1.9c-2.9,0-5.5,2.4-6.2,5.4l0,0c-0.6,2.9,0.9,5.4,3.8,5.4c2,0,3.3-0.8,5-2l1.9,2.4
			C208.4,46.2,206.2,47.4,202.9,47.4z"/>
		<path id="XMLID_371_" fill="#FFFFFF" d="M211.8,47.1l3.8-17.2h13l-0.7,3.4h-9.2l-0.8,3.5h8.1l-0.7,3.4h-8.1l-0.8,3.6h9.3l-0.7,3.4
			H211.8z"/>
	</g>
	<g id="XMLID_368_">
		<polygon id="XMLID_369_" fill="#FFFFFF" points="5.4,22.8 5,24.6 229.9,24.6 230.3,22.8 		"/>
	</g>
</g>
</svg>
