<?xml version="1.0" encoding="utf-8"?>
<!-- Generator: Adobe Illustrator 19.0.0, SVG Export Plug-In . SVG Version: 6.00 Build 0)  -->
<!DOCTYPE svg PUBLIC "-//W3C//DTD SVG 1.1//EN" "http://www.w3.org/Graphics/SVG/1.1/DTD/svg11.dtd">
<svg version="1.1" id="Layer_1" xmlns="http://www.w3.org/2000/svg" xmlns:xlink="http://www.w3.org/1999/xlink" x="0px" y="0px"
	 viewBox="88 13.5 273 73.5" enable-background="new 88 13.5 273 73.5" xml:space="preserve">
<g id="XMLID_80_">
	<g id="XMLID_82_">
		<g>
			<defs>
				<polygon id="SVGID_1_" points="189.2,34.5 180.9,38.8 182.5,29.7 175.9,23.2 185.1,21.8 189.2,13.5 193.3,21.8 202.5,23.2 
					195.8,29.7 197.4,38.8 				"/>
			</defs>
			<clipPath id="SVGID_2_">
				<use xlink:href="#SVGID_1_"  overflow="visible"/>
			</clipPath>
			<rect id="XMLID_86_" x="170.9" y="8.5" clip-path="url(#SVGID_2_)" fill="#E8168C" width="36.6" height="35.3"/>
		</g>
	</g>
</g>
<line id="XMLID_111_" fill="none" stroke="#E8128C" stroke-width="2" stroke-miterlimit="10" stroke-dasharray="4,2" x1="115.2" y1="27.5" x2="169.2" y2="27.5"/>
<line id="XMLID_112_" fill="none" stroke="#E8128C" stroke-width="2" stroke-miterlimit="10" stroke-dasharray="4,2" x1="271.2" y1="27.5" x2="325.2" y2="27.5"/>
<text transform="matrix(1 0 0 1 93.3713 64.5)" fill="#E8128C" font-family="'Gotham-BoldItalic'" font-size="15px">AMERICA’S PREMIER DISPATCHER</text>
<text transform="matrix(1 0 0 1 158.7714 82.5)" fill="#E8128C" font-family="'Gotham-BoldItalic'" font-size="15px">OF THE UNDEAD</text>
<g id="XMLID_91_">
	<g>
		<defs>
			<polygon id="SVGID_3_" points="220.2,34.5 211.9,38.8 213.5,29.7 206.9,23.2 216.1,21.8 220.2,13.5 224.3,21.8 233.5,23.2 
				226.8,29.7 228.4,38.8 			"/>
		</defs>
		<clipPath id="SVGID_4_">
			<use xlink:href="#SVGID_3_"  overflow="visible"/>
		</clipPath>
		<rect id="XMLID_92_" x="201.9" y="8.5" clip-path="url(#SVGID_4_)" fill="#E8168C" width="36.6" height="35.3"/>
	</g>
</g>
<g id="XMLID_2_">
	<g>
		<defs>
			<polygon id="SVGID_5_" points="251.2,34.5 242.9,38.8 244.5,29.7 237.9,23.2 247.1,21.8 251.2,13.5 255.3,21.8 264.5,23.2 
				257.8,29.7 259.4,38.8 			"/>
		</defs>
		<clipPath id="SVGID_6_">
			<use xlink:href="#SVGID_5_"  overflow="visible"/>
		</clipPath>
		<rect id="XMLID_4_" x="232.9" y="8.5" clip-path="url(#SVGID_6_)" fill="#E8168C" width="36.6" height="35.3"/>
	</g>
</g>
</svg>
