<?xml version="1.0" encoding="utf-8"?>
<!-- Generator: Adobe Illustrator 18.1.1, SVG Export Plug-In . SVG Version: 6.00 Build 0)  -->
<!DOCTYPE svg PUBLIC "-//W3C//DTD SVG 1.1//EN" "http://www.w3.org/Graphics/SVG/1.1/DTD/svg11.dtd">
<svg version="1.1" id="Layer_1" xmlns:sketch="http://www.bohemiancoding.com/sketch/ns"
	 xmlns="http://www.w3.org/2000/svg" xmlns:xlink="http://www.w3.org/1999/xlink" x="0px" y="0px" viewBox="239 286 517 222"
	 enable-background="new 239 286 517 222" xml:space="preserve">
<title>joie-de-vivre</title>
<desc>Created with Sketch.</desc>
<g>
	<polygon fill="#333D47" points="264.7,347.3 247.1,347.3 247.1,496.8 292.7,496.8 292.7,481.1 264.7,481.1 	"/>
	<polygon fill="#333D47" points="270.2,352.9 270.2,478.3 273,478.3 273,350.1 267.5,350.1 267.5,352.9 	"/>
	<polygon fill="#333D47" points="295.5,483.9 295.5,486.7 298.2,486.7 298.2,502.4 252.7,502.4 252.7,499.6 249.9,499.6 
		249.9,505.2 301,505.2 301,483.9 	"/>
	<rect x="312.4" y="347.3" fill="#333D47" width="17.6" height="149.5"/>
	<polygon fill="#333D47" points="332.8,350.1 332.8,352.9 335.6,352.9 335.6,502.4 318,502.4 318,499.6 315.2,499.6 315.2,505.2 
		338.4,505.2 338.4,350.1 	"/>
	<polygon fill="#333D47" points="375.1,347.3 357.2,347.3 357.2,496.8 374.7,496.8 374.7,398.5 377.5,398.1 399.4,467.6 
		399.4,496.8 416.9,496.8 416.9,347.3 399.4,347.3 399.4,419.5 396.6,419.9 	"/>
	<polygon fill="#333D47" points="380.3,502.4 362.7,502.4 362.7,499.6 360,499.6 360,505.2 383.1,505.2 383.1,425.3 380.3,416.5 	
		"/>
	<polygon fill="#333D47" points="380.7,352.9 396.6,406.5 396.6,396.6 382.8,350.1 378.8,350.1 379.7,352.9 	"/>
	<polygon fill="#333D47" points="419.7,350.1 419.7,352.9 422.5,352.9 422.5,502.4 405,502.4 405,499.6 402.2,499.6 402.2,505.2 
		425.3,505.2 425.3,350.1 	"/>
	<g>
		<path fill="#333D47" d="M479.2,347.3H466c-15.5,0-23,8-23,24.5v100.5c0,16.5,7.5,24.5,23,24.5h13.2c15.5,0,23-8,23-24.5V464h-17.6
			v6.9c0,8.5-5.1,10.3-9.5,10.3h-5.1c-4.3,0-9.5-1.8-9.5-10.3v-97.6c0-8.5,5.1-10.3,9.5-10.3h4c6.9,0,10.5,3.6,10.5,10.3v14.3h17.6
			v-15.8C502.2,355.3,494.7,347.3,479.2,347.3"/>
		<path fill="#333D47" d="M479.7,368.6h-4c-4.3,0-9.5,1.8-9.5,10.3v97.6c0,0.4,0,0.7,0,1.1c0.8,0.4,1.7,0.7,2.9,0.8
			c-0.1-0.6-0.1-1.2-0.1-1.9v-97.6c0-5.2,2.1-7.5,6.7-7.5h4c0.7,0,1.4,0.1,2,0.1c-0.2-1.1-0.5-2.1-0.9-2.9
			C480.4,368.6,480.1,368.6,479.7,368.6"/>
		<path fill="#333D47" d="M510.6,395.9v-18.6c0-11.2-3.4-19-10-23.3c1.3,2,2.3,4.3,3,6.9c2.8,4,4.1,9.5,4.1,16.5v15.8h-17.6v-2.8
			h-2.8v5.6H510.6z"/>
		<path fill="#333D47" d="M507.8,469.5v8.4c0,16.5-7.5,24.5-23,24.5h-13.1c-6.2,0-11.1-1.3-14.7-3.9c-2.5-0.7-4.7-1.6-6.6-2.9
			c4.2,6.3,11.3,9.5,21.4,9.5h13.1c17.1,0,25.8-9.2,25.8-27.3v-11.2H505v2.8H507.8z"/>
		<path fill="#333D47" d="M573.1,470.8c0,8.5-5.1,10.3-9.5,10.3h-10.4c-6.9,0-10.5-3.6-10.5-10.3v-97.6c0-6.7,3.6-10.3,10.3-10.3
			h9.5c6.9,0,10.5,3.6,10.5,10.3V470.8z M567.6,347.3h-19.5c-15.5,0-23,8.1-23,24.7v100.3c0,16.5,7.6,24.5,23.2,24.5h19.1
			c15.6,0,23.2-8,23.2-24.5V372C590.6,355.4,583.1,347.3,567.6,347.3"/>
		<path fill="#333D47" d="M551.1,476.4v-97.6c0-5.2,2.3-7.5,7.5-7.5h9.5c0.7,0,1.4,0.1,2,0.1c-0.1-1.1-0.5-2.1-0.9-2.9
			c-0.4,0-0.7,0-1.1,0h-9.5c-6.7,0-10.3,3.6-10.3,10.3v97.6c0,0.3,0,0.6,0,0.8c0.8,0.5,1.7,0.8,2.9,0.9
			C551.1,477.6,551.1,477.1,551.1,476.4"/>
		<path fill="#333D47" d="M589,354c1.3,2,2.3,4.3,3.1,6.9c2.8,4,4.2,9.5,4.2,16.7v100.3c0,16.5-7.6,24.5-23.2,24.5h-19.1
			c-6.3,0-11.2-1.3-14.9-3.9c-2.5-0.7-4.7-1.6-6.7-2.9c4.2,6.4,11.4,9.6,21.6,9.6H573c17.3,0,26-9.2,26-27.3V377.6
			C599,366.2,595.7,358.4,589,354"/>
	</g>
	<polygon fill="#333D47" points="634.3,347.3 616.8,347.3 616.8,496.8 662.3,496.8 662.3,481.1 634.3,481.1 	"/>
	<polygon fill="#333D47" points="665.1,483.9 665.1,486.7 667.9,486.7 667.9,502.4 622.3,502.4 622.3,499.6 619.6,499.6 
		619.6,505.2 670.7,505.2 670.7,483.9 	"/>
	<polygon fill="#333D47" points="639.9,352.9 639.9,478.3 642.7,478.3 642.7,350.1 637.1,350.1 637.1,352.9 	"/>
	<polygon fill="#333D47" points="724.3,419.5 721.5,419.9 700,347.3 682.1,347.3 682.1,496.8 699.6,496.8 699.6,398.5 702.4,398.1 
		724.3,467.6 724.3,496.8 741.8,496.8 741.8,347.3 724.3,347.3 	"/>
	<polygon fill="#333D47" points="705.2,502.4 687.7,502.4 687.7,499.6 684.9,499.6 684.9,505.2 708,505.2 708,425.3 705.2,416.5 	
		"/>
	<polygon fill="#333D47" points="744.6,350.1 744.6,352.9 747.4,352.9 747.4,502.4 729.9,502.4 729.9,499.6 727.1,499.6 
		727.1,505.2 750.2,505.2 750.2,350.1 	"/>
	<polygon fill="#333D47" points="705.6,352.9 721.5,406.5 721.5,396.6 707.7,350.1 703.7,350.1 704.6,352.9 	"/>
	<rect x="244.8" y="313.2" fill="#333D47" width="131.3" height="7"/>
	<rect x="621" y="313.2" fill="#333D47" width="122.9" height="7"/>
	<rect x="244.8" y="289.2" fill="#333D47" width="131.3" height="7"/>
	<rect x="621" y="289.2" fill="#333D47" width="122.9" height="7"/>
	<polygon fill="#333D47" points="402.6,320.1 402.6,307.8 415.1,307.8 415.1,320.1 421.9,320.1 421.9,289.4 415.1,289.4 
		415.1,301.5 402.6,301.5 402.6,289.4 395.8,289.4 395.8,320.1 	"/>
	<g>
		<path fill="#333D47" d="M450.4,304.7L450.4,304.7c0-5.4,3.8-9.7,9.2-9.7c5.5,0,9.3,4.4,9.3,9.7v0.1c0,5.3-3.8,9.6-9.2,9.6
			C454.2,314.4,450.4,310,450.4,304.7 M476,304.7L476,304.7c0-8.8-6.8-15.9-16.3-15.9c-9.5,0-16.4,7.2-16.4,15.9v0.1
			c0,8.8,6.8,15.8,16.3,15.8C469.1,320.7,476,313.5,476,304.7"/>
	</g>
	<polygon fill="#333D47" points="510.1,295.6 519.4,295.6 519.4,289.4 493.9,289.4 493.9,295.6 503.3,295.6 503.3,320.1 
		510.1,320.1 	"/>
	<polygon fill="#333D47" points="540,320.1 563.5,320.1 563.5,314.1 546.8,314.1 546.8,307.6 561.3,307.6 561.3,301.6 546.8,301.6 
		546.8,295.4 563.3,295.4 563.3,289.4 540,289.4 	"/>
	<polygon fill="#333D47" points="591.7,289.4 584.9,289.4 584.9,320.1 607,320.1 607,314 591.7,314 	"/>
</g>
</svg>
