<?xml version="1.0" encoding="UTF-8" standalone="no"?>
<svg width="757px" height="222px" viewBox="0 0 757 222" version="1.1" xmlns="http://www.w3.org/2000/svg" xmlns:xlink="http://www.w3.org/1999/xlink" xmlns:sketch="http://www.bohemiancoding.com/sketch/ns">
    <!-- Generator: Sketch 3.3.1 (12002) - http://www.bohemiancoding.com/sketch -->
    <title>joie-de-vivre</title>
    <desc>Created with Sketch.</desc>
    <defs></defs>
    <g id="Page-1" stroke="none" stroke-width="1" fill="none" fill-rule="evenodd" sketch:type="MSPage">
        <g id="joie-de-vivre" sketch:type="MSLayerGroup">
            <path d="M135.654,191.941 L135.654,202.526 L133,202.526 L133,179 L135.654,179 L135.654,189.451 L149.233,189.451 L149.233,179 L151.89,179 L151.89,202.526 L149.233,202.526 L149.233,191.941 L135.654,191.941" id="Fill-32" fill="#7D9BA7" sketch:type="MSShapeGroup"></path>
            <path d="M175.963,181.454 C170.584,181.454 166.757,185.757 166.757,191.133 C166.757,196.512 170.653,200.879 176.027,200.879 C181.409,200.879 185.238,196.578 185.238,191.199 C185.238,185.823 181.341,181.454 175.963,181.454 L175.963,181.454 Z M175.963,203.333 C168.805,203.333 164,197.719 164,191.199 C164,184.679 168.872,179 176.027,179 C183.19,179 187.993,184.613 187.993,191.133 C187.993,197.653 183.123,203.333 175.963,203.333 L175.963,203.333 Z" id="Fill-33" fill="#7D9BA7" sketch:type="MSShapeGroup"></path>
            <path d="M207.584,202.526 L204.898,202.526 L204.898,181.452 L197,181.452 L197,179 L215.484,179 L215.484,181.452 L207.584,181.452 L207.584,202.526" id="Fill-34" fill="#7D9BA7" sketch:type="MSShapeGroup"></path>
            <path d="M244.005,181.421 L229.652,181.421 L229.652,189.451 L242.494,189.451 L242.494,191.874 L229.652,191.874 L229.652,200.107 L244.172,200.107 L244.172,202.526 L227,202.526 L227,179 L244.005,179 L244.005,181.421" id="Fill-35" fill="#7D9BA7" sketch:type="MSShapeGroup"></path>
            <path d="M256,179 L258.652,179 L258.652,200.074 L271.898,200.074 L271.898,202.526 L256,202.526 L256,179" id="Fill-36" fill="#7D9BA7" sketch:type="MSShapeGroup"></path>
            <path d="M291.981,189.822 C297.224,190.967 299.645,192.881 299.645,196.512 C299.645,200.578 296.284,203.199 291.611,203.199 C287.882,203.199 284.821,201.954 282,199.435 L283.644,197.487 C286.101,199.704 288.453,200.813 291.711,200.813 C294.871,200.813 296.955,199.167 296.955,196.781 C296.955,194.562 295.777,193.321 290.837,192.278 C285.427,191.1 282.94,189.353 282.94,185.452 C282.94,181.689 286.204,179 290.67,179 C294.099,179 296.55,179.974 298.936,181.891 L297.394,183.943 C295.206,182.158 293.019,181.388 290.604,181.388 C287.542,181.388 285.597,183.069 285.597,185.22 C285.597,187.471 286.805,188.715 291.981,189.822" id="Fill-37" fill="#7D9BA7" sketch:type="MSShapeGroup"></path>
            <path d="M440.918,181.452 L433.659,181.452 L433.659,190.996 L440.883,190.996 C444.414,190.996 446.935,189.185 446.935,186.124 C446.935,183.202 444.715,181.452 440.918,181.452 L440.918,181.452 Z M447.204,202.526 L440.376,193.385 L433.659,193.385 L433.659,202.526 L431,202.526 L431,179 L441.122,179 C446.293,179 449.619,181.791 449.619,186.025 C449.619,189.955 446.935,192.24 443.237,192.914 L450.461,202.526 L447.204,202.526 L447.204,202.526 Z" id="Fill-38" fill="#7D9BA7" sketch:type="MSShapeGroup"></path>
            <path d="M479.006,181.421 L464.653,181.421 L464.653,189.451 L477.492,189.451 L477.492,191.874 L464.653,191.874 L464.653,200.107 L479.174,200.107 L479.174,202.526 L462,202.526 L462,179 L479.006,179 L479.006,181.421" id="Fill-39" fill="#7D9BA7" sketch:type="MSShapeGroup"></path>
            <path d="M499.986,189.822 C505.228,190.967 507.647,192.881 507.647,196.512 C507.647,200.578 504.284,203.199 499.615,203.199 C495.88,203.199 492.826,201.954 490,199.435 L491.648,197.487 C494.103,199.704 496.456,200.813 499.71,200.813 C502.874,200.813 504.958,199.167 504.958,196.781 C504.958,194.562 503.781,193.321 498.841,192.278 C493.432,191.1 490.941,189.353 490.941,185.452 C490.941,181.689 494.201,179 498.671,179 C502.101,179 504.552,179.974 506.943,181.891 L505.395,183.943 C503.21,182.158 501.026,181.388 498.605,181.388 C495.546,181.388 493.599,183.069 493.599,185.22 C493.599,187.471 494.812,188.715 499.986,189.822" id="Fill-40" fill="#7D9BA7" sketch:type="MSShapeGroup"></path>
            <path d="M529.967,181.454 C524.59,181.454 520.755,185.757 520.755,191.133 C520.755,196.512 524.657,200.879 530.036,200.879 C535.412,200.879 539.244,196.578 539.244,191.199 C539.244,185.823 535.346,181.454 529.967,181.454 L529.967,181.454 Z M529.967,203.333 C522.807,203.333 518,197.719 518,191.199 C518,184.679 522.878,179 530.036,179 C537.197,179 542.005,184.613 542.005,191.133 C542.005,197.653 537.132,203.333 529.967,203.333 L529.967,203.333 Z" id="Fill-41" fill="#7D9BA7" sketch:type="MSShapeGroup"></path>
            <path d="M564.913,181.452 L557.656,181.452 L557.656,190.996 L564.879,190.996 C568.409,190.996 570.927,189.185 570.927,186.124 C570.927,183.202 568.712,181.452 564.913,181.452 L564.913,181.452 Z M571.199,202.526 L564.375,193.385 L557.656,193.385 L557.656,202.526 L555,202.526 L555,179 L565.114,179 C570.292,179 573.621,181.791 573.621,186.025 C573.621,189.955 570.927,192.24 567.234,192.914 L574.46,202.526 L571.199,202.526 L571.199,202.526 Z" id="Fill-42" fill="#7D9BA7" sketch:type="MSShapeGroup"></path>
            <path d="M593.584,202.526 L590.9,202.526 L590.9,181.452 L583,181.452 L583,179 L601.486,179 L601.486,181.452 L593.584,181.452 L593.584,202.526" id="Fill-43" fill="#7D9BA7" sketch:type="MSShapeGroup"></path>
            <path d="M620.979,189.822 C626.22,190.967 628.641,192.881 628.641,196.512 C628.641,200.578 625.282,203.199 620.606,203.199 C616.88,203.199 613.822,201.954 611,199.435 L612.645,197.487 C615.099,199.704 617.451,200.813 620.71,200.813 C623.87,200.813 625.952,199.167 625.952,196.781 C625.952,194.562 624.775,193.321 619.839,192.278 C614.423,191.1 611.94,189.353 611.94,185.452 C611.94,181.689 615.199,179 619.669,179 C623.097,179 625.552,179.974 627.942,181.891 L626.392,183.943 C624.21,182.158 622.022,181.388 619.604,181.388 C616.541,181.388 614.593,183.069 614.593,185.22 C614.593,187.471 615.804,188.715 620.979,189.822" id="Fill-44" fill="#7D9BA7" sketch:type="MSShapeGroup"></path>
            <path d="M365.486,182.975 C366.472,180.641 368.783,179 371.482,179 C375.072,179 377.992,181.924 377.992,185.503 C377.992,186.961 377.508,188.31 376.708,189.393 L365.486,201.927 L365.511,201.927 L354.286,189.393 C353.481,188.31 353,186.961 353,185.503 C353,181.924 355.917,179 359.511,179 C362.206,179 364.522,180.641 365.511,182.975 L365.486,182.975" id="Fill-45" fill="#7D9BA7" sketch:type="MSShapeGroup"></path>
            <path d="M365.769,165.895 C353.16,165.895 342.896,176.161 342.896,188.775 C342.896,201.39 353.16,211.651 365.769,211.651 C378.388,211.651 388.652,201.39 388.652,188.775 C388.652,176.161 378.388,165.895 365.769,165.895 L365.769,165.895 Z M365.769,221.544 C347.701,221.544 333,206.846 333,188.775 C333,170.7 347.701,156 365.769,156 C383.842,156 398.545,170.7 398.545,188.775 C398.545,206.846 383.842,221.544 365.769,221.544 L365.769,221.544 Z" id="Fill-46" fill="#333D47" sketch:type="MSShapeGroup"></path>
            <path d="M330.872,28.017 C330.872,10.832 328.802,7.908 317.291,7.908 L317.291,4.301 L343.063,0 L343.063,83.432 C343.063,100.618 345.292,103.535 356.646,103.535 L356.646,107.148 L333.786,111.444 C332.924,109.729 331.544,103.715 331.03,100.968 C326.229,106.981 319.346,111.444 309.905,111.444 C293.564,111.444 280,97.182 280,79.834 C280,62.471 293.564,48.375 309.905,48.375 C318.489,48.375 325.708,52.154 330.872,58.516 L330.872,28.017 L330.872,28.017 Z M330.872,68.834 C327.772,60.752 321.239,55.249 313.503,55.249 C300.102,55.249 293.919,66.074 293.919,79.834 C293.919,93.573 300.102,104.572 313.503,104.572 C321.239,104.572 327.772,99.074 330.872,90.993 L330.872,68.834 L330.872,68.834 Z" id="Fill-47" fill="#333D47" sketch:type="MSShapeGroup"></path>
            <path d="M396.105,103.854 C401.782,103.854 410.029,100.593 415.022,95.943 L418.11,99.733 C412.096,106.085 401.604,111.069 391.807,111.069 C372.892,111.069 360,96.807 360,79.459 C360,61.237 375.806,48 391.807,48 C407.115,48 419.32,60.377 415.19,75.156 L373.75,75.156 C371.684,91.302 378.392,103.854 396.105,103.854 M403.327,68.793 C405.229,63.295 402.288,54.874 390.95,54.874 C383.547,54.874 377.186,60.377 374.779,68.793 L403.327,68.793" id="Fill-48" fill="#333D47" sketch:type="MSShapeGroup"></path>
            <path d="M39.559,31.297 C35.434,31.297 32,27.864 32,23.565 C32,19.445 35.434,16 39.559,16 C43.684,16 47.132,19.445 47.132,23.565 C47.132,27.864 43.684,31.297 39.559,31.297" id="Fill-49" fill="#333D47" sketch:type="MSShapeGroup"></path>
            <path d="M94.713,111.069 C75.641,111.069 60,96.807 60,79.459 C60,62.096 75.641,48 94.713,48 C113.788,48 129.428,62.096 129.428,79.459 C129.428,96.807 113.788,111.069 94.713,111.069 M94.713,54.534 C80.619,54.534 73.914,65.699 73.914,79.459 C73.914,93.198 80.619,104.367 94.713,104.367 C108.973,104.367 115.497,93.198 115.497,79.459 C115.497,65.699 108.973,54.534 94.713,54.534" id="Fill-50" fill="#333D47" sketch:type="MSShapeGroup"></path>
            <path d="M155.561,31.297 C151.434,31.297 148,27.864 148,23.565 C148,19.445 151.434,16 155.561,16 C159.684,16 163.133,19.445 163.133,23.565 C163.133,27.864 159.684,31.297 155.561,31.297" id="Fill-51" fill="#333D47" sketch:type="MSShapeGroup"></path>
            <path d="M216.097,103.854 C221.773,103.854 230.021,100.593 235.008,95.943 L238.092,99.733 C232.072,106.085 221.597,111.069 211.8,111.069 C192.899,111.069 180,96.807 180,79.459 C180,61.237 195.819,48 211.8,48 C227.101,48 239.302,60.377 235.167,75.156 L193.758,75.156 C191.697,91.302 198.393,103.854 216.097,103.854 M223.313,68.793 C225.2,63.295 222.285,54.874 210.941,54.874 C203.55,54.874 197.197,60.377 194.786,68.793 L223.313,68.793" id="Fill-52" fill="#333D47" sketch:type="MSShapeGroup"></path>
            <path d="M734.081,103.854 C739.751,103.854 748.011,100.593 752.971,95.943 L756.081,99.733 C750.061,106.085 739.581,111.069 729.791,111.069 C710.884,111.069 698,96.807 698,79.459 C698,61.237 713.801,48 729.791,48 C745.081,48 757.281,60.377 753.151,75.156 L711.73,75.156 C709.677,91.302 716.378,103.854 734.081,103.854 M741.301,68.793 C743.191,63.295 740.271,54.874 728.921,54.874 C721.531,54.874 715.184,60.377 712.778,68.793 L741.301,68.793" id="Fill-53" fill="#333D47" sketch:type="MSShapeGroup"></path>
            <path d="M528.093,54.324 C539.337,54.342 541.563,57.129 541.563,74.252 L541.563,87.529 C541.563,104.723 539.33,107.635 528,107.635 L528,111.245 L567.333,111.245 L567.333,107.635 C555.813,107.635 553.757,104.723 553.757,87.529 L553.757,48 L528.111,50.91 L528.093,54.324" id="Fill-54" fill="#333D47" sketch:type="MSShapeGroup"></path>
            <path d="M547.561,31.297 C551.673,31.297 555.122,27.864 555.122,23.565 C555.122,19.445 551.673,16 547.561,16 C543.428,16 540,19.445 540,23.565 C540,27.864 543.428,31.297 547.561,31.297" id="Fill-55" fill="#333D47" sketch:type="MSShapeGroup"></path>
            <path d="M680.82,48 C690.268,48 694.395,54.35 694.395,58.662 C694.395,62.44 692.853,66.736 687.523,66.736 C684.254,66.736 681.508,63.809 681.508,60.549 C681.508,56.928 679.438,54.874 676.003,54.874 C672.056,54.874 662.776,61.237 662.776,74.986 L662.776,87.529 C662.776,104.723 664.839,107.635 676.348,107.635 L676.348,111.245 L637,111.245 L637,107.635 C648.337,107.635 650.573,104.723 650.573,87.529 L650.573,74.287 C650.573,57.115 648.337,54.35 637,54.35 L637,50.937 L659.854,48 C660.725,49.727 662.251,56.76 662.776,60.377 C666.211,53.504 673.948,48 680.82,48" id="Fill-56" fill="#333D47" sketch:type="MSShapeGroup"></path>
            <path d="M20.118,156.121 C7.055,156.121 0,147.704 0,142.024 C0,139.279 1.728,137.038 4.999,137.038 C14.111,137.038 8.777,150.453 20.974,150.453 C27.679,150.453 33.179,145.293 33.179,123.646 L33.179,75.84 C33.179,58.662 30.946,55.902 19.602,55.902 L19.602,52.293 L45.377,48 L45.377,123.646 C45.377,146.496 33.179,156.121 20.118,156.121" id="Fill-57" fill="#333D47" sketch:type="MSShapeGroup"></path>
            <path d="M136,107.635 C147.35,107.635 149.58,104.723 149.58,87.529 L149.58,75.84 C149.58,58.662 147.35,55.902 136,55.902 L136,52.293 L161.782,48 L161.782,87.529 C161.782,104.723 163.838,107.635 175.357,107.635 L175.357,111.245 L136,111.245 L136,107.635 Z" id="Fill-58" fill="#333D47" sketch:type="MSShapeGroup"></path>
            <path d="M521.258,54.423 L521.258,51 L521.052,51.005 L495.821,51.005 L495.821,54.427 C503.38,54.427 503.899,57.188 500.8,64.575 L489.302,92.073 L477.089,64.575 C473.66,56.327 474.689,54.427 482.589,54.427 L482.589,51.005 L452,51.005 L452,54.427 C457.839,54.427 460.6,57.188 463.855,64.575 L484.819,111.318 L488.267,111.318 L507.677,64.575 C510.769,57.001 515.241,54.427 521.258,54.427 L521.258,54.423" id="Fill-59" fill="#333D47" sketch:type="MSShapeGroup"></path>
            <path d="M632.254,54.423 L632.254,51 L632.054,51.005 L606.821,51.005 L606.821,54.427 C614.378,54.427 614.891,57.188 611.792,64.575 L600.296,92.073 L588.094,64.575 C584.653,56.327 585.69,54.427 593.591,54.427 L593.591,51.005 L563,51.005 L563,54.427 C568.841,54.427 571.596,57.188 574.86,64.575 L595.822,111.318 L599.26,111.318 L618.68,64.575 C621.766,57.001 626.241,54.427 632.254,54.427 L632.254,54.423" id="Fill-60" fill="#333D47" sketch:type="MSShapeGroup"></path>
        </g>
    </g>
</svg>