<?xml version="1.0" encoding="UTF-8" standalone="no"?>
<svg xmlns:sketch="http://www.bohemiancoding.com/sketch/ns" xmlns="http://www.w3.org/2000/svg" height="111px" width="353px" version="1.1" xmlns:xlink="http://www.w3.org/1999/xlink" viewBox="0 0 353 111"><!-- Generator: Sketch 3.3.2 (12043) - http://www.bohemiancoding.com/sketch -->
 <title>Imported Layers</title>
 <desc>Created with Sketch.</desc>
 <g id="PARTNERSHIPS-PAGE" fill-rule="evenodd" sketch:type="MSPage" fill="none">
  <g id="Desktop-Copy" transform="translate(-825 -3764)" sketch:type="MSArtboardGroup">
   <g id="Imported-Layers" transform="translate(825 3763)" sketch:type="MSLayerGroup">
    <path id="Stroke-1" sketch:type="MSShapeGroup" stroke="#E2A42D" stroke-width=".99" d="m325.74 107.08h-317.83"/>
    <path id="Fill-2" sketch:type="MSShapeGroup" fill="#E2A42D" d="m325.33 107.57l2.41 4.16h1.12l-2.4-4.16h1.13l2.4 4.16h1.13l-2.41-4.16h1.13l2.4 4.16h1.13l-2.41-4.16h1.16v-0.98h-1.16l2.41-4.16h-1.13l-2.4 4.16h-1.13l2.41-4.16h-1.13l-2.4 4.16h-1.13l2.4-4.16h-1.12l-2.41 4.16v0.98"/>
    <path id="Fill-3" sketch:type="MSShapeGroup" fill="#E2A42D" d="m8.311 107.57l-2.402 4.16h-1.126l2.402-4.16h-1.125l-2.403 4.16h-1.127l2.404-4.16h-1.126l-2.404 4.16h-1.126l2.404-4.16h-1.152v-0.98h1.152l-2.404-4.16h1.126l2.404 4.16h1.126l-2.404-4.16h1.127l2.403 4.16h1.125l-2.402-4.16h1.126l2.402 4.16v0.98"/>
    <path id="Fill-4" sketch:type="MSShapeGroup" fill="#5DC2D8" d="m29.22 63.475c-1.946 0-3.403 2.267-4.213 4.966l-3.671 17.331h-7.774l3.941-18.625c0.107-0.433 0.163-0.865 0.163-1.35 0-1.189-0.434-2.377-1.62-2.377-2.106 0-3.564 2.322-4.374 5.021l-3.67 17.331h-7.775l5.723-26.994h7.773l-0.593 2.807c2.269-2.591 4.697-3.077 6.587-3.077 2.862 0 4.967 1.295 5.559 4.642 2.593-3.994 5.508-4.588 7.506-4.588 3.455 0 5.993 1.782 5.993 6.1 0 4.373-2.592 10.906-2.592 13.929 0 1.349 0.54 2.268 2.159 2.268 2.375 0 3.348-1.943 4.534-4.752h2.269c-3.024 8.854-7.181 9.989-10.042 9.989-4.697 0-6.37-3.024-6.37-6.102 0-3.67 2.429-10.31 2.429-13.766 0-1.782-0.648-2.753-1.942-2.753"/>
    <path id="Fill-5" sketch:type="MSShapeGroup" fill="#5DC2D8" d="m63.766 66.93c0.215 0.108 0.43 0.108 0.593 0.108 2.482 0 5.992-1.62 8.313-3.239l0.487 1.457c-2.053 2.214-5.615 3.834-9.556 4.482-0.864 9.987-6.263 16.249-12.902 16.249-5.021 0-8.639-2.376-8.639-8.53 0-6.208 3.67-19.165 14.793-19.165 4.643 0 6.911 2.97 6.911 8.638zm-4.643 2.969c-1.134-0.27-1.459-1.188-1.459-2.268 0-1.511 0.703-2.483 1.674-2.914-0.107-2.268-0.649-3.132-2.052-3.132-3.832 0-7.18 9.88-7.18 15.171 0 3.562 0.702 4.373 2.753 4.373 2.646 0 5.399-4.859 6.264-11.23z"/>
    <path id="Fill-6" sketch:type="MSShapeGroup" fill="#5DC2D8" d="m78.717 58.778l-0.703 3.347c1.889-1.619 3.943-3.347 6.532-3.347 2.431 0 3.726 1.997 3.726 4.049 0 1.89-1.241 3.941-3.887 3.941-3.023 0-1.511-3.563-3.131-3.563s-2.591 0.809-3.94 2.051l-4.321 20.516h-7.773l5.722-26.994h7.775"/>
    <path id="Fill-7" sketch:type="MSShapeGroup" fill="#5DC2D8" d="m97.668 80.967c2.053 0 4.642-1.35 6.372-2.862-1.14 6.155-5.022 7.991-9.34 7.991-5.021 0-8.369-2.485-8.369-8.584 0-6.209 3.509-19.22 14.579-19.22 4.8 0 5.94 2.483 5.94 5.183 0 6.263-5.94 11.013-12.42 11.391-0.056 0.54-0.108 1.134-0.108 1.619 0 3.402 1.457 4.482 3.346 4.482zm3.672-19.814c-2.7 0-5.398 5.994-6.532 11.121 4.21-0.215 7.882-4.372 7.882-8.907 0-1.349-0.32-2.214-1.35-2.214z"/>
    <path id="Fill-8" sketch:type="MSShapeGroup" fill="#DD4164" d="m143.48 58.778l-5.35 25.05c3.3-1.187 5.29-3.023 6.81-7.721h2.26c-2.1 7.127-6.21 9.179-9.55 10.096l-0.81 3.888c-1.62 7.719-6.16 9.178-9.72 9.178-3.29 0-6.04-1.728-6.04-5.238 0-4.534 4.74-6.803 8.8-8.044l0.64-2.86c-1.56 1.673-3.67 2.969-6.48 2.969-3.67 0-7.18-2.268-7.18-8.692 0-7.289 4.48-18.896 13.88-18.896 3.07 0 4.37 1.187 4.37 2.754v0.323l0.59-2.807h7.78zm-17.6 36.28c1.13 0 2.43-1.621 3.13-4.805l0.32-1.567c-2.75 1.026-5.29 2.43-5.29 4.589 0 0.756 0.65 1.783 1.84 1.783zm-1.03-18.41c0 4.157 1.73 4.211 2.7 4.211 1.46 0 3.57-1.459 4.32-4.211l2.75-12.796c-0.05-0.593-0.48-1.997-2.21-1.997-4.59 0-7.56 9.717-7.56 14.793z"/>
    <path id="Fill-9" sketch:type="MSShapeGroup" fill="#DD4164" d="m166.11 66.93c0.22 0.108 0.43 0.108 0.6 0.108 2.48 0 5.99-1.62 8.31-3.239l0.49 1.457c-2.05 2.214-5.62 3.834-9.56 4.482-0.86 9.987-6.26 16.249-12.9 16.249-5.02 0-8.64-2.376-8.64-8.53 0-6.208 3.67-19.165 14.79-19.165 4.65 0 6.91 2.97 6.91 8.638zm-4.64 2.969c-1.13-0.27-1.46-1.188-1.46-2.268 0-1.511 0.71-2.483 1.68-2.914-0.11-2.268-0.65-3.132-2.06-3.132-3.83 0-7.18 9.88-7.18 15.171 0 3.562 0.71 4.373 2.76 4.373 2.64 0 5.4-4.859 6.26-11.23z"/>
    <path id="Fill-10" sketch:type="MSShapeGroup" fill="#DD4164" d="m190.12 66.93c0.22 0.108 0.44 0.108 0.6 0.108 2.48 0 5.99-1.62 8.31-3.239l0.49 1.457c-2.05 2.214-5.62 3.834-9.56 4.482-0.86 9.987-6.26 16.249-12.9 16.249-5.02 0-8.64-2.376-8.64-8.53 0-6.208 3.67-19.165 14.79-19.165 4.65 0 6.91 2.97 6.91 8.638zm-4.64 2.969c-1.13-0.27-1.46-1.188-1.46-2.268 0-1.511 0.71-2.483 1.68-2.914-0.11-2.268-0.65-3.132-2.05-3.132-3.84 0-7.18 9.88-7.18 15.171 0 3.562 0.7 4.373 2.75 4.373 2.64 0 5.4-4.859 6.26-11.23z"/>
    <path id="Fill-11" sketch:type="MSShapeGroup" fill="#DD4164" d="m217.23 77.134c-0.11 0.54-0.22 1.079-0.22 1.565 0 1.241 0.54 2.16 2.22 2.16 0.97 0 1.4-0.163 1.72-0.324-0.27 3.832-3.02 5.561-5.93 5.561-2.76 0-4.97-1.35-5.62-4.481-1.62 2.321-4.1 4.481-7.67 4.481-3.67 0-7.17-2.268-7.17-8.692 0-7.289 4.47-18.896 13.87-18.896 3.08 0 4.37 1.187 4.37 2.754v0.216l2.65-12.418 7.99-1.08-6.21 29.154zm-4.91-13.389c-0.11-0.648-0.6-1.89-2.22-1.89-4.59 0-7.56 9.717-7.56 14.793 0 4.157 1.73 4.211 2.7 4.211 1.41 0 3.62-1.242 4.21-3.887l2.87-13.227z"/>
    <path id="Fill-12" sketch:type="MSShapeGroup" fill="#DD4164" d="m260.86 47.98l-6.21 29.154c-0.17 0.701-0.22 1.241-0.22 1.727 0 1.512 0.7 1.998 2.21 1.998 2.11 0 3.57-2.052 4.38-4.752h2.26c-3.07 8.8-7.93 9.665-10.85 9.665-2.91 0-4.86-1.621-5.29-4.643-1.62 2.482-4.16 4.967-7.99 4.967-3.67 0-7.18-2.268-7.18-8.692 0-7.289 4.48-18.896 13.88-18.896 3.07 0 4.37 1.187 4.37 2.754v0.216l2.64-12.418 8-1.08zm-13.77 28.127l2.64-12.362c-0.1-0.648-0.59-1.89-2.21-1.89-4.59 0-7.56 9.717-7.56 14.793 0 4.157 1.73 4.211 2.7 4.211 1.51 0 3.73-1.512 4.43-4.481v-0.271z"/>
    <path id="Fill-13" sketch:type="MSShapeGroup" fill="#DD4164" d="m286.99 58.778l-3.88 18.356c-0.17 0.701-0.22 1.241-0.22 1.727 0 1.512 0.7 2.322 2.21 2.322 2.11 0 3.57-2.376 4.38-5.076h2.26c-3.07 8.8-7.93 9.989-10.85 9.989-3.02 0-4.96-1.729-5.29-4.967-1.67 2.482-4.21 4.967-8.04 4.967-3.67 0-7.18-2.268-7.18-8.692 0-7.289 4.48-18.896 13.87-18.896 3.08 0 4.37 1.187 4.37 2.754v0.378l0.6-2.862h7.77zm-18.62 17.87c0 4.157 1.73 4.211 2.7 4.211 1.56 0 3.83-1.62 4.48-4.752l2.59-12.201c0-0.647-0.49-2.051-2.21-2.051-4.59 0-7.56 9.717-7.56 14.793z"/>
    <path id="Fill-14" sketch:type="MSShapeGroup" fill="#DD4164" d="m315.42 53.009l-6.54 30.819c3.29-1.187 5.29-3.023 6.8-7.721h2.27c-2.11 7.127-6.21 9.179-9.56 10.096l-0.81 3.888c-1.62 7.719-6.15 9.178-9.72 9.178-3.29 0-6.04-1.728-6.04-5.238 0-4.534 4.75-6.803 8.8-8.044l0.64-2.915c-2.26 2.537-4.64 3.024-6.47 3.024-3.24 0-5.78-1.945-5.78-6.479 0-1.026 0.16-2.213 0.43-3.51l3.67-17.329h7.78l-3.89 18.356c-0.11 0.431-0.16 0.917-0.16 1.349 0 1.242 0.38 2.376 1.62 2.376 2 0 3.4-1.89 4.21-4.427l4.97-23.423h7.78zm-18.8 42.049c1.14 0 2.43-1.621 3.13-4.805l0.33-1.567c-2.76 1.026-5.29 2.43-5.29 4.589 0 0.756 0.65 1.783 1.83 1.783z"/>
    <path id="Fill-15" sketch:type="MSShapeGroup" fill="#DD4164" d="m332.39 57.104c0.65 13.982 1.19 16.089 1.19 19.652 0 7.017-6.37 9.34-10.8 9.34-5.5 0-7.88-3.618-7.88-6.911 0-2.484 1.4-4.319 2.86-5.021 3.02-5.345 4.97-10.689 6.64-15.98l7.99-1.08zm-13.17 21.65c-0.54 0-1.19-0.163-1.46-0.703 0 2.538 0.92 3.78 3.3 3.78 2.37 0 4.69-1.242 4.69-5.021 0-2.808-0.49-4.482-1.02-12.796-1.09 3.509-2.6 6.749-4.38 10.205 0.71 0.323 1.24 0.971 1.24 1.888 0 1.297-0.97 2.647-2.37 2.647z"/>
    <path id="Fill-16" sketch:type="MSShapeGroup" fill="#DD4164" d="m348.53 42.127l-0.01-0.004c-0.35 0.183-0.74 0.345-1.14 0.517-0.09 0.04-0.19 0.076-0.29 0.113-0.31 0.124-0.63 0.238-0.96 0.348-0.13 0.044-0.27 0.089-0.4 0.124-0.33 0.101-0.67 0.19-1.01 0.267-0.13 0.027-0.25 0.059-0.38 0.086-0.48 0.098-0.96 0.179-1.46 0.227-0.77 0.066-1.57 0.06-2.37-0.025-0.26-0.032-0.51-0.074-0.76-0.115-0.12-0.023-0.23-0.047-0.34-0.071-0.28-0.057-0.55-0.122-0.83-0.201-0.34-0.103-0.69-0.205-1.04-0.346-0.08-0.036-0.16-0.075-0.24-0.11-0.44-0.195-0.87-0.415-1.27-0.646-0.09-0.051-0.17-0.109-0.25-0.161 0.99-0.567 1.8-1.47 2.2-2.64 0.1-0.296 0.17-0.604 0.21-0.913l0.2-1.459 1.42 0.359c2.43 0.602 4.97-0.787 5.77-3.161 0.3-0.895 0.34-1.853 0.1-2.765l-0.36-1.365 1.38-0.261c1.74-0.324 3.16-1.554 3.71-3.218 0.41-1.192 0.33-2.481-0.21-3.627l-0.45-0.958 0.84-0.652c0.75-0.578 1.3-1.371 1.61-2.273 0.39-1.172 0.23-2.575-0.46-3.855-0.36-0.677-0.84-1.258-1.36-1.67-2.29 6.349-7.43 8.153-13.04 9.002 0.14-0.628 0.17-1.288 0.04-1.953-0.18-0.903-0.61-1.729-1.25-2.384l-0.96-0.983 1.04-0.893c1.3-1.105 1.91-2.828 1.58-4.502-0.24-1.207-0.93-2.262-1.94-2.962l-0.84-0.588 0.39-0.954c0.35-0.856 0.44-1.791 0.26-2.703-0.23-1.177-1.05-2.281-2.25-3.036-0.63-0.396-1.32-0.648-1.96-0.744 1.43 8.122-4.39 12.367-10.08 16.456v-0.003c-0.02 0.014-0.04 0.026-0.06 0.043-0.02 0.009-0.03 0.027-0.05 0.039-3.4 2.448-6.91 4.972-9.13 8.381-0.19 0.294-0.35 0.598-0.52 0.899-4.51-2.523-2.49-6.986-7.78-7.443-5.16-0.45-10.01 3.453-10.18 4.09 4.26-0.31 6.22 3.251 9.9 14.586 1.3 4.024 2.94 6.912 4.82 8.975v0.001c0.21 0.232 0.42 0.461 0.64 0.673v-0.001c1.05 1.018 2.17 1.796 3.33 2.387l-3.86 3.041 0.96 1.219 3.56-2.81 1.6-0.281-2.04 1.916 1.06 1.131 2.46-2.306 2.07-0.366c3.62 0.287 7.42-0.375 11-0.959 0 0.008 0.01 0.015 0.01 0.022 0.46-0.072 2.38-0.39 2.88-0.463 0.01 0.001 0.02 0 0.04-0.001l0.03-0.004c0.66-0.091 1.3-0.135 1.92-0.149 0.44-0.015 0.85 0.011 1.27 0.031 0.16 0.009 0.34 0.004 0.5 0.015 0.54 0.049 1.05 0.125 1.54 0.222 0.02 0.007 0.04 0.004 0.05 0.009 0.52 0.103 1.02 0.233 1.48 0.375 5.99 1.893 8.24 7.188 8.24 7.188s6.53-7.613 5.06-18.044c0 0-1.43 1.196-3.64 2.286"/>
    <path id="Fill-17" sketch:type="MSShapeGroup" fill="#DD4164" d="m3.738 30.53h2.507l2.557 8.582 2.656-8.582h2.156l2.656 8.582 2.56-8.582h2.354l-3.85 12.547h-2.122l-2.741-8.813-2.744 8.813h-2.122l-3.867-12.547"/>
    <path id="Fill-18" sketch:type="MSShapeGroup" fill="#DD4164" d="m27.015 30.446h2.438l5.016 12.551h-2.474l-0.873-2.225h-5.875l-0.877 2.225h-2.353l4.998-12.551zm3.316 8.239l-2.159-5.394-2.133 5.394h4.292z"/>
    <path id="Fill-19" sketch:type="MSShapeGroup" fill="#DD4164" d="m42.445 38.655h-3.024v4.342h-2.338v-12.467h5.85c3.67 0 4.7 1.561 4.7 3.968 0 1.797-0.644 3.33-2.747 3.921l2.588 4.578h-2.571l-2.458-4.342zm0.423-2.124c1.57 0 2.361-0.42 2.361-1.933 0-1.565-0.761-1.966-2.394-1.966h-3.414v3.899h3.447z"/>
    <path id="Fill-20" sketch:type="MSShapeGroup" fill="#DD4164" d="m56.236 38.655h-3.025v4.342h-2.342v-12.467h5.851c3.668 0 4.698 1.561 4.698 3.968 0 1.797-0.641 3.33-2.744 3.921l2.592 4.578h-2.572l-2.458-4.342zm0.415-2.124c1.568 0 2.357-0.42 2.357-1.933 0-1.565-0.755-1.966-2.391-1.966h-3.406v3.899h3.44z"/>
    <path id="Fill-21" sketch:type="MSShapeGroup" fill="#DD4164" d="m64.826 30.53h2.364v12.467h-2.364v-12.467z"/>
    <path id="Fill-22" sketch:type="MSShapeGroup" fill="#DD4164" d="m70.309 36.751c0-4.627 2.523-6.428 6.511-6.428 3.971 0 6.527 1.801 6.527 6.428 0 4.644-2.556 6.442-6.527 6.442-3.988 0-6.511-1.798-6.511-6.442zm10.618 0.034c0-2.64-1.112-4.223-4.107-4.223-2.997 0-4.103 1.583-4.103 4.223 0 2.657 1.106 4.239 4.103 4.239 2.995 0 4.107-1.582 4.107-4.239z"/>
    <path id="Fill-23" sketch:type="MSShapeGroup" fill="#DD4164" d="m91.647 38.655h-3.029v4.342h-2.338v-12.467h5.858c3.666 0 4.697 1.561 4.697 3.968 0 1.797-0.643 3.33-2.74 3.921l2.586 4.578h-2.578l-2.456-4.342zm0.423-2.124c1.568 0 2.354-0.42 2.354-1.933 0-1.565-0.757-1.966-2.39-1.966h-3.416v3.899h3.452z"/>
    <path id="Fill-24" sketch:type="MSShapeGroup" fill="#DD4164" d="m98.872 41.583l1.208-1.77c1.37 0.911 2.9 1.314 4.46 1.314 2.48 0 3.1-0.52 3.1-1.715 0-1.196-1.15-1.413-3.15-1.717-3.16-0.471-4.91-1.028-4.91-3.705 0-2.687 1.63-3.667 5.01-3.667 2.39 0 3.91 0.558 4.89 1.192l-1.3 1.905c-0.81-0.539-2.24-0.958-3.6-0.958-2.02 0-2.63 0.438-2.63 1.479 0 1.13 1.09 1.349 3.15 1.649 2.93 0.46 4.91 0.928 4.91 3.703 0 2.505-1.43 3.888-5.4 3.888-2.32 0-4.27-0.554-5.738-1.598"/>
    <path id="Fill-25" sketch:type="MSShapeGroup" fill="#DD4164" d="m117.94 30.53h2.38v12.467h-2.38v-12.467z"/>
    <path id="Fill-26" sketch:type="MSShapeGroup" fill="#DD4164" d="m124.12 30.53h2.58l6.15 8.426v-8.426h2.31v12.467h-2.19l-6.55-8.939v8.939h-2.3v-12.467"/>
    <path id="Fill-27" sketch:type="MSShapeGroup" fill="#DD4164" d="m143.52 30.53h5.85c3.59 0 4.77 1.512 4.77 4.068 0 2.557-1.12 4.358-4.89 4.358h-3.4v4.041h-2.33v-12.467zm5.83 6.324c1.65 0 2.4-0.59 2.4-2.137 0-1.599-0.72-2.085-2.43-2.085h-3.47v4.222h3.5z"/>
    <path id="Fill-28" sketch:type="MSShapeGroup" fill="#DD4164" d="m157.26 30.53h2.38v12.467h-2.38v-12.467z"/>
    <path id="Fill-29" sketch:type="MSShapeGroup" fill="#DD4164" d="m163.44 30.53h2.59l6.15 8.426v-8.426h2.3v12.467h-2.19l-6.54-8.939v8.939h-2.31v-12.467"/>
    <path id="Fill-30" sketch:type="MSShapeGroup" fill="#DD4164" d="m182.4 37.255l-1.93 2.259v3.483h-2.35v-12.467h2.35v5.936l5.1-5.936h2.69l-4.26 4.926 4.87 7.541h-2.71l-3.76-5.742"/>
    <path id="Fill-31" sketch:type="MSShapeGroup" fill="#DD4164" d="m189.08 31.912c0-0.847 0.47-1.482 1.43-1.482s1.44 0.635 1.44 1.482c0 0.838-0.48 1.475-1.44 1.475s-1.43-0.637-1.43-1.475zm2.65 0c0-0.727-0.35-1.279-1.22-1.279s-1.22 0.552-1.22 1.279c0 0.715 0.35 1.269 1.22 1.269s1.22-0.554 1.22-1.269zm-1.15 0.248h-0.44v0.643h-0.33v-1.783h0.83c0.55 0 0.66 0.226 0.66 0.561 0 0.262-0.07 0.478-0.38 0.556l0.37 0.666h-0.35l-0.36-0.643zm0.05-0.285c0.25 0 0.34-0.06 0.34-0.279 0-0.22-0.09-0.282-0.34-0.282h-0.49v0.561h0.49z"/>
   </g>
  </g>
 </g>
</svg>
