<?xml version="1.0" encoding="UTF-8" standalone="no"?>
<svg xmlns:sketch="http://www.bohemiancoding.com/sketch/ns" xmlns="http://www.w3.org/2000/svg" height="114px" width="171px" version="1.1" xmlns:xlink="http://www.w3.org/1999/xlink" viewBox="0 0 171 114"><!-- Generator: Sketch 3.3.1 (12002) - http://www.bohemiancoding.com/sketch -->
 <title>WarriorsInPink_GLS_4C_R02</title>
 <desc>Created with Sketch.</desc>
 <defs>
  <path id="path-1" d="m0.06 0.248h170.46v113.69h-170.46"/>
  <path id="path-3" d="m0.06 0.248h170.46v113.69h-170.46v-113.69z"/>
  <path id="path-5" d="m0.06 0.248h170.46v113.69h-170.46"/>
 </defs>
 <g id="Page-1" fill-rule="evenodd" sketch:type="MSPage" fill="none">
  <g id="WarriorsInPink_GLS_4C_R02" sketch:type="MSLayerGroup">
   <path id="Fill-1" sketch:type="MSShapeGroup" fill="#9D5161" d="m37.361 55.383c0.416-0.131 0.719-0.137 0.852 0.287 0.047 0.147 0.046 0.272 0.021 0.359l-0.177-0.051c0.017-0.061 0.024-0.147-0.012-0.261-0.081-0.259-0.273-0.268-0.634-0.155-0.357 0.112-0.513 0.23-0.431 0.491 0.037 0.117 0.083 0.178 0.158 0.241l-0.114 0.133c-0.091-0.078-0.153-0.159-0.207-0.331-0.128-0.406 0.115-0.579 0.544-0.713zm0.355 1.18c0.557-0.174 0.904-0.441 0.729-0.996-0.173-0.552-0.609-0.574-1.166-0.399-0.552 0.173-0.898 0.44-0.725 0.992 0.173 0.554 0.61 0.576 1.162 0.403zm-0.474-1.511c0.618-0.194 1.112-0.163 1.315 0.48 0.201 0.644-0.185 0.957-0.803 1.151-0.616 0.192-1.11 0.155-1.312-0.488-0.201-0.644 0.184-0.95 0.8-1.143z"/>
   <path id="Fill-2" sketch:type="MSShapeGroup" fill="#9D5161" d="m37.045 57.221l0.727 0.218c0.58 0.176 0.699 0.167 0.895 0.088 0.199-0.081 0.259-0.19 0.169-0.41-0.067-0.165-0.157-0.279-0.259-0.366l0.169-0.195c0.126 0.11 0.24 0.245 0.345 0.5 0.151 0.372 0.043 0.576-0.285 0.71-0.291 0.118-0.469 0.099-1.097-0.088l-0.518-0.153 0.324 0.794-0.223 0.092-0.451-1.107 0.204-0.083"/>
   <path id="Fill-3" sketch:type="MSShapeGroup" fill="#9D5161" d="m38.91 59.304c0.546-0.272 0.712-0.446 0.567-0.739-0.152-0.302-0.387-0.267-0.932 0.004-0.548 0.274-0.724 0.442-0.572 0.746 0.148 0.298 0.39 0.262 0.937-0.011zm-0.491-0.987c0.66-0.328 1.03-0.399 1.294 0.131 0.258 0.52-0.026 0.778-0.68 1.102-0.669 0.334-1.027 0.396-1.287-0.123-0.261-0.524 0.009-0.779 0.673-1.11z"/>
   <path id="Fill-4" sketch:type="MSShapeGroup" fill="#9D5161" d="m39.797 60.815c0.518-0.319 0.668-0.505 0.497-0.785-0.178-0.289-0.408-0.232-0.928 0.086-0.52 0.321-0.681 0.504-0.503 0.793 0.175 0.283 0.412 0.227 0.934-0.094zm-0.578-0.939c0.628-0.385 0.99-0.489 1.3 0.016 0.303 0.494 0.044 0.775-0.579 1.158-0.636 0.391-0.988 0.485-1.292-0.01-0.306-0.498-0.061-0.774 0.571-1.164z"/>
   <path id="Fill-5" sketch:type="MSShapeGroup" fill="#9D5161" d="m39.344 61.874l0.255-0.031c0.017 0.137 0.061 0.275 0.188 0.449 0.164 0.225 0.306 0.279 0.624 0.047 0.316-0.233 0.297-0.376 0.151-0.576-0.097-0.134-0.199-0.188-0.294-0.211l-0.077-0.208 0.869-0.572 0.62 0.846-0.202 0.149-0.482-0.66-0.485 0.32c0.091 0.033 0.193 0.107 0.304 0.26 0.229 0.31 0.209 0.541-0.238 0.868-0.485 0.355-0.721 0.255-0.981-0.102-0.161-0.22-0.229-0.405-0.252-0.579"/>
   <path id="Fill-6" sketch:type="MSShapeGroup" fill="#9D5161" d="m42.29 62.372l0.791 0.879-0.192 0.173-0.603-0.671-0.498 0.449 0.57 0.633-0.19 0.171-0.569-0.634-0.718 0.647-0.189-0.21 1.598-1.437"/>
   <path id="Fill-7" sketch:type="MSShapeGroup" fill="#9D5161" d="m42.977 65.021c0.23-0.241 0.376-0.444 0.135-0.676-0.241-0.229-0.44-0.076-0.67 0.164-0.229 0.24-0.376 0.448-0.136 0.677 0.243 0.233 0.441 0.076 0.671-0.165zm-0.725-0.706c0.328-0.341 0.642-0.528 1.036-0.153 0.395 0.378 0.216 0.702-0.108 1.041-0.334 0.349-0.643 0.534-1.037 0.155-0.389-0.372-0.222-0.696 0.109-1.043z"/>
   <path id="Fill-8" sketch:type="MSShapeGroup" fill="#9D5161" d="m43.957 64.831l0.175 0.125-0.098 0.157c0.117-0.044 0.265-0.03 0.466 0.14l-0.165 0.195c-0.304-0.247-0.494-0.058-0.684 0.165l-0.517 0.609-0.208-0.176 1.031-1.215"/>
   <path id="Fill-9" sketch:type="MSShapeGroup" fill="#9D5161" d="m44.952 66.636c0.201-0.268 0.324-0.48 0.042-0.692-0.24-0.179-0.414-0.015-0.619 0.258-0.205 0.272-0.323 0.492-0.08 0.674 0.28 0.21 0.454 0.03 0.657-0.24zm-0.791-0.602c0.266-0.353 0.545-0.621 0.929-0.334 0.212 0.16 0.266 0.278 0.262 0.403l0.453-0.602 0.214 0.161-1.328 1.769-0.182-0.112 0.085-0.158c-0.127 0.051-0.273 0.031-0.506-0.144-0.381-0.287-0.193-0.629 0.073-0.983z"/>
   <path id="Fill-10" sketch:type="MSShapeGroup" fill="#9D5161" d="m46.723 66.235l0.305 0.18-0.386 1.714 1.308-1.171 0.306 0.178-1.091 1.856-0.238-0.14 0.821-1.397-1.271 1.132-0.175-0.103 0.367-1.664-0.821 1.399-0.215-0.126 1.09-1.858"/>
   <path id="Fill-11" sketch:type="MSShapeGroup" fill="#9D5161" d="m48.815 68.909c0.145-0.301 0.221-0.539-0.082-0.684-0.298-0.145-0.44 0.063-0.585 0.363-0.144 0.299-0.219 0.542 0.08 0.686 0.303 0.147 0.443-0.066 0.587-0.365zm-0.908-0.448c0.205-0.427 0.447-0.702 0.938-0.466 0.492 0.237 0.423 0.602 0.219 1.024-0.21 0.435-0.446 0.706-0.939 0.468-0.485-0.232-0.427-0.592-0.218-1.026z"/>
   <path id="Fill-12" sketch:type="MSShapeGroup" fill="#9D5161" d="m49.602 68.375l0.237 0.098 0.202-0.377 0.223 0.038-0.182 0.439 0.349 0.143-0.09 0.22-0.349-0.144-0.348 0.848c-0.054 0.131-0.064 0.209 0.1 0.275l0.166 0.068-0.091 0.22c-0.038-0.013-0.164-0.057-0.196-0.071-0.332-0.136-0.355-0.293-0.24-0.572l0.357-0.872-0.227-0.093 0.089-0.22"/>
   <path id="Fill-13" sketch:type="MSShapeGroup" fill="#9D5161" d="m51.348 69.903c0.108-0.314 0.157-0.561-0.161-0.672-0.314-0.108-0.431 0.116-0.541 0.43-0.108 0.315-0.155 0.566 0.16 0.674 0.317 0.11 0.432-0.117 0.542-0.432zm-0.955-0.34c0.155-0.449 0.364-0.75 0.877-0.572 0.518 0.18 0.491 0.549 0.337 0.993-0.158 0.457-0.362 0.755-0.879 0.576-0.509-0.176-0.493-0.541-0.335-0.997z"/>
   <path id="Fill-14" sketch:type="MSShapeGroup" fill="#9D5161" d="m52.178 69.335l0.211 0.041-0.026 0.183c0.089-0.089 0.229-0.136 0.481-0.064l-0.07 0.245c-0.378-0.098-0.472 0.15-0.552 0.431l-0.22 0.767-0.261-0.074 0.437-1.529"/>
   <path id="Fill-15" sketch:type="MSShapeGroup" fill="#9D5161" d="m53.445 70.217c0.132-0.644 0.351-1.048 1.006-0.915 0.224 0.047 0.384 0.136 0.483 0.238l-0.191 0.197c-0.069-0.064-0.179-0.133-0.354-0.17-0.395-0.08-0.552 0.154-0.666 0.712-0.114 0.557-0.069 0.841 0.335 0.923 0.184 0.037 0.296 0.02 0.428-0.031l0.093 0.24c-0.167 0.065-0.322 0.088-0.586 0.035-0.622-0.127-0.682-0.574-0.548-1.229"/>
   <path id="Fill-16" sketch:type="MSShapeGroup" fill="#9D5161" d="m55.921 70.931c0.048-0.331 0.048-0.584-0.285-0.631-0.331-0.047-0.405 0.195-0.451 0.525-0.047 0.332-0.046 0.587 0.286 0.635 0.333 0.047 0.403-0.197 0.45-0.529zm-1.006-0.153c0.067-0.471 0.216-0.808 0.757-0.732 0.544 0.077 0.588 0.449 0.521 0.914-0.068 0.481-0.213 0.814-0.756 0.736-0.536-0.076-0.589-0.439-0.522-0.918z"/>
   <path id="Fill-17" sketch:type="MSShapeGroup" fill="#9D5161" d="m56.573 70.229l0.218-0.003 0.013 0.16c0.067-0.106 0.187-0.174 0.481-0.155 0.277 0.017 0.342 0.103 0.376 0.214 0.073-0.11 0.211-0.176 0.509-0.159 0.416 0.026 0.432 0.268 0.411 0.617l-0.066 1.043-0.269-0.015 0.062-0.984c0.016-0.257 0.013-0.393-0.249-0.409-0.295-0.018-0.354 0.137-0.378 0.51l-0.053 0.844-0.269-0.018 0.062-0.982c0.016-0.257 0.014-0.394-0.246-0.41-0.298-0.018-0.361 0.14-0.383 0.51l-0.053 0.843-0.265-0.016 0.099-1.59"/>
   <path id="Fill-18" sketch:type="MSShapeGroup" fill="#9D5161" d="m59.977 71.13c-0.006-0.342-0.05-0.584-0.352-0.58-0.348 0.006-0.376 0.254-0.37 0.593 0.006 0.338 0.038 0.579 0.389 0.573 0.298-0.006 0.338-0.24 0.333-0.586zm-1.008-0.78l0.218-0.022 0.022 0.163c0.068-0.112 0.206-0.192 0.493-0.197 0.479-0.008 0.54 0.383 0.547 0.82 0.008 0.444-0.05 0.83-0.528 0.839-0.267 0.003-0.381-0.056-0.455-0.158l0.009 0.601-0.272 0.005-0.034-2.051z"/>
   <path id="Fill-19" sketch:type="MSShapeGroup" fill="#9D5161" d="m61.419 71.22l-0.017-0.225-0.064 0.004c-0.399 0.03-0.567 0.09-0.545 0.381 0.017 0.232 0.122 0.295 0.298 0.281 0.194-0.014 0.352-0.11 0.328-0.441zm-0.881 0.207c-0.035-0.467 0.231-0.609 0.78-0.651l0.068-0.005c-0.023-0.209-0.076-0.313-0.308-0.297-0.168 0.013-0.301 0.064-0.39 0.117l-0.129-0.215c0.12-0.072 0.297-0.135 0.526-0.152 0.429-0.033 0.538 0.136 0.566 0.528l0.051 0.679c0.01 0.123 0.021 0.154 0.137 0.146l0.017 0.237c-0.023 0.005-0.048 0.006-0.075 0.009-0.174 0.012-0.249-0.017-0.286-0.134-0.087 0.135-0.231 0.187-0.442 0.203-0.36 0.026-0.492-0.153-0.515-0.465z"/>
   <path id="Fill-20" sketch:type="MSShapeGroup" fill="#9D5161" d="m62.054 70.187l0.213-0.046 0.043 0.155c0.052-0.118 0.167-0.209 0.458-0.248 0.407-0.055 0.494 0.177 0.54 0.525l0.138 1.039-0.27 0.035-0.13-0.977c-0.034-0.257-0.078-0.388-0.337-0.355-0.311 0.042-0.333 0.223-0.286 0.578l0.112 0.84-0.27 0.037-0.211-1.583"/>
   <path id="Fill-21" sketch:type="MSShapeGroup" fill="#9D5161" d="m64.029 71.747l0.146-0.027c0.085-0.017 0.11-0.051 0.119-0.129l0.01-0.13-0.786-1.49 0.269-0.052 0.579 1.133 0.115-1.268 0.261-0.051-0.195 1.868c-0.024 0.228-0.123 0.296-0.336 0.339l-0.139 0.026-0.043-0.219"/>
   <path id="Fill-22" sketch:type="MSShapeGroup" fill="#005186" d="m84.266 0.248c-15.405 0-27.754 4.617-27.754 10.406 0 5.755 12.451 10.409 27.754 10.409 15.304 0 27.754-4.669 27.754-10.409 0-5.738-12.45-10.406-27.754-10.406"/>
   <path id="Fill-23" sketch:type="MSShapeGroup" fill="#fff" d="m95.197 12.859c0.01 0.048 0.071 0.094 0.133 0.116 0.02 0.007 0.031 0.023 0.008 0.073-0.172 0.37-0.332 0.584-0.549 0.906-0.197 0.296-0.424 0.528-0.695 0.752-0.41 0.339-0.979 0.708-1.451 0.461-0.207-0.109-0.297-0.401-0.295-0.639 0.011-0.666 0.308-1.349 0.855-2.022 0.666-0.821 1.404-1.247 1.889-1.014 0.5 0.238 0.34 0.819 0.115 1.274-0.016 0.035-0.018 0.065-0.01 0.093zm5.373-5.189c0.04-0.064 0-0.11-0.08-0.11-0.42 0-0.967 0.001-1.404 0.001-0.102 0-0.156 0.012-0.205 0.109-0.16 0.307-2.121 3.245-2.486 3.816-0.061 0.086-0.137 0.076-0.145-0.024-0.037-0.339-0.33-0.729-0.791-0.915-0.352-0.143-0.695-0.168-1.053-0.121-0.642 0.087-1.219 0.427-1.722 0.81-0.762 0.579-1.418 1.328-2.266 1.883-0.463 0.302-1.098 0.565-1.522 0.172-0.382-0.355-0.339-1.146 0.248-1.757 0.061-0.064 0.135-0.011 0.124 0.047-0.055 0.276 0.013 0.552 0.224 0.744 0.254 0.23 0.621 0.255 0.936 0.103 0.369-0.184 0.588-0.538 0.65-0.94 0.1-0.624-0.381-1.175-0.982-1.218-0.489-0.035-0.957 0.135-1.412 0.511-0.229 0.191-0.36 0.33-0.557 0.612-0.047 0.069-0.123 0.076-0.119-0.027 0.023-0.798-0.309-1.247-0.969-1.263-0.512-0.011-1.059 0.267-1.486 0.607-0.467 0.376-0.877 0.873-1.315 1.342-0.054 0.056-0.101 0.054-0.117-0.058-0.014-0.529-0.146-1.041-0.392-1.405-0.086-0.126-0.268-0.19-0.422-0.104-0.071 0.039-0.317 0.153-0.497 0.296-0.087 0.074-0.122 0.18-0.083 0.316 0.236 0.791 0.183 1.689-0.137 2.448-0.293 0.695-0.865 1.322-1.537 1.534-0.444 0.141-0.905 0.072-1.19-0.321-0.392-0.542-0.234-1.485 0.35-2.268 0.514-0.689 1.26-1.127 2.004-1.409 0.086-0.034 0.103-0.09 0.08-0.164-0.041-0.123-0.106-0.289-0.131-0.364-0.068-0.182-0.26-0.212-0.492-0.187-0.539 0.064-1.028 0.248-1.508 0.506-1.26 0.675-1.893 1.981-2.168 2.679-0.135 0.336-0.248 0.545-0.395 0.73-0.199 0.249-0.449 0.477-0.904 0.877-0.041 0.037-0.072 0.113-0.037 0.185 0.047 0.095 0.283 0.431 0.35 0.461 0.076 0.036 0.16-0.015 0.195-0.039 0.318-0.217 0.701-0.559 0.887-0.792 0.066-0.079 0.133-0.046 0.168 0.075 0.174 0.622 0.631 1.13 1.261 1.342 1.155 0.389 2.354-0.174 3.258-1.157 0.574-0.623 0.781-1.024 1.002-1.296 0.373-0.463 1.11-1.499 1.988-2.163 0.321-0.245 0.702-0.431 0.893-0.307 0.154 0.098 0.203 0.331-0.043 0.779-0.894 1.633-2.209 3.552-2.451 4.017-0.045 0.081-0.006 0.143 0.078 0.143 0.469-0.002 0.934-0.001 1.357-0.001 0.071-0.003 0.104-0.035 0.137-0.085 0.688-1.074 1.332-2.096 2.026-3.153 0.039-0.063 0.074-0.015 0.076 0.013 0.013 0.245 0.074 0.58 0.22 0.8 0.26 0.408 0.631 0.583 1.043 0.585 0.327 0.004 0.493-0.045 0.846-0.177 0.287-0.107 0.518-0.246 0.695-0.372 0.104-0.073 0.122 0.047 0.12 0.066-0.161 0.853 0.037 1.863 0.884 2.282 1.014 0.5 2.129-0.203 2.77-0.837 0.062-0.062 0.129-0.055 0.137 0.077 0.013 0.242 0.123 0.53 0.322 0.731 0.539 0.539 1.623 0.325 2.711-0.517 0.697-0.539 1.429-1.301 2.09-2.108 0.023-0.031 0.041-0.082-0.006-0.132-0.1-0.105-0.246-0.225-0.346-0.318-0.045-0.039-0.111-0.028-0.15 0.001-0.676 0.644-1.285 1.378-2.166 1.985-0.297 0.207-0.77 0.374-0.983 0.086-0.082-0.111-0.074-0.266 0.008-0.469 0.258-0.639 4.321-6.828 4.531-7.193z"/>
   <path id="Fill-24" sketch:type="MSShapeGroup" fill="#fff" d="m81.447 8.416c0.016 0.093 0.053 0.11 0.094 0.103 0.207-0.042 0.434-0.212 0.568-0.41 0.123-0.179 0.18-0.437 0.059-0.541-0.109-0.092-0.285-0.067-0.416 0.049-0.26 0.23-0.338 0.556-0.305 0.799m-10.361 7.967c-1.516 0.011-2.85-0.927-3.004-2.548-0.084-0.898 0.17-1.699 0.678-2.358 0.451-0.588 1.215-1.078 1.861-1.197 0.209-0.038 0.492-0.013 0.609 0.125 0.184 0.214 0.131 0.448-0.052 0.541-0.494 0.252-1.088 0.683-1.381 1.272-0.238 0.48-0.285 1.058 0.078 1.61 0.609 0.919 2.305 0.944 3.883-0.521 0.39-0.359 0.74-0.703 1.096-1.112 0.693-0.795 0.925-1.084 1.849-2.365 0.01-0.015 0.014-0.034 0.008-0.043-0.006-0.017-0.02-0.021-0.047-0.023-0.615 0.017-1.152 0.201-1.676 0.591-0.15 0.11-0.367 0.094-0.461-0.05-0.105-0.163-0.031-0.376 0.143-0.496 0.842-0.584 1.76-0.69 2.697-0.849-0.002 0 0.065 0.004 0.117-0.068 0.387-0.494 0.676-0.939 1.086-1.439 0.414-0.507 0.948-0.972 1.356-1.322 0.57-0.489 0.935-0.654 1.306-0.857 0.098-0.05-0.011-0.112-0.043-0.112-2.07-0.389-4.226-0.893-6.283-0.131-1.426 0.532-2.051 1.663-1.75 2.417 0.213 0.536 0.918 0.623 1.578 0.301 0.549-0.269 1.055-0.701 1.414-1.259 0.202-0.308 0.625-0.086 0.397 0.451-0.604 1.416-1.754 2.539-3.154 2.586-1.194 0.039-1.963-0.839-1.961-1.921 0.004-2.135 2.382-3.542 4.881-3.752 3.007-0.249 5.857 0.552 8.843 0.915 2.291 0.278 4.485 0.284 6.785-0.246 0.272-0.058 0.463 0.115 0.446 0.389-0.024 0.398-0.33 0.78-1.088 1.192-0.861 0.474-1.764 0.618-2.705 0.624-2.278 0.02-4.397-0.868-6.592-1.344 0.004 0.095 0.027 0.211-0.053 0.271-1.215 0.897-2.314 1.807-3.051 3.086-0.023 0.029-0.009 0.058 0.032 0.054 0.638-0.034 1.215-0.05 1.81-0.098 0.104-0.009 0.108-0.035 0.1-0.11-0.053-0.442 0.076-0.943 0.463-1.289 0.396-0.357 0.894-0.397 1.224-0.141 0.373 0.292 0.34 0.817 0.135 1.21-0.207 0.401-0.553 0.613-0.883 0.717 0 0-0.068 0.016-0.058 0.078 0.013 0.102 0.463 0.351 0.502 0.417 0.037 0.064 0.017 0.161-0.051 0.236-0.049 0.055-0.123 0.107-0.217 0.105-0.078-0.002-0.127-0.029-0.225-0.082-0.201-0.11-0.455-0.289-0.623-0.502-0.056-0.071-0.085-0.072-0.23-0.066-0.645 0.039-1.65 0.135-2.332 0.221-0.166 0.021-0.191 0.051-0.225 0.109-1.086 1.793-2.248 3.725-3.523 5.02-1.365 1.388-2.502 1.753-3.709 1.763"/>
   <path id="Fill-25" sketch:type="MSShapeGroup" fill="#fff" d="m84.266 1.95c-14.174 0-25.661 3.916-25.661 8.708 0 4.793 11.487 8.709 25.661 8.709 14.171 0 25.664-3.916 25.664-8.709 0-4.792-11.493-8.708-25.664-8.708zm0 18.207c-14.688 0-26.596-4.253-26.596-9.499 0-5.247 11.908-9.499 26.596-9.499 14.685 0 26.594 4.252 26.594 9.499 0 5.246-11.909 9.499-26.594 9.499z"/>
   <path id="Fill-26" sketch:type="MSShapeGroup" fill="#700B31" d="m85.416 41.811s0.984-2.69-1.106-2.78c-1.544-0.066-1.863 0.966-1.539 2.894-0.968-0.68-1.853-0.261-2.414 1.171-0.566 1.433 1.819 2.127 2.434 1.562l0.615-0.567s1.086 1.723-0.07 2.61c-0.133 0.101-0.631 0.436-0.68 0.937-0.06 0.574 1.479 1.285 1.531 2.341 0.383-0.962 1.538-1.666 1.657-2.136 0.086-0.341-0.223-0.61-0.516-0.889h0.004s-0.986-0.638-0.592-2.119c0.225-0.826 0.401-0.761 0.401-0.761s2.32 2.103 2.623-0.753c0.304-2.853-2.348-1.51-2.348-1.51"/>
   <path id="Fill-27" sketch:type="MSShapeGroup" fill="#CA975E" d="m119.13 18.226s5.29-3.26 3.6-11.804c0 0 2.36 3.935 1.12 7.531-1.23 3.602-4.72 4.273-4.72 4.273zm1.35 1.463s8.66-1.799 10.12-7.984c0 0 0.68 6.298-3.37 7.534-4.05 1.237-6.75 0.45-6.75 0.45zm-33.144 19.461c2.273-13.184 16.804-10.562 29.334-16.354 1.01-0.465 1.92-0.959 2.75-1.47 17.43 1.651 10.01-7.543 14.12-10.342 4.18-2.857 9.45 2.06 9.45 2.06s-1.02-5.743-7-6.373c-6.04-0.636-9.01 4.484-8.93 4.658-1.21-8.362-8.6-10.086-9.05-9.93 8.07 8.094 1.77 20.705-19.727 24.761-12.726 2.401-10.947 12.99-10.947 12.99z"/>
   <path id="Fill-28" sketch:type="MSShapeGroup" fill="#700B31" d="m116.5 25.997c0.41 0.032 0.95 0.209 1.53 0.446 0.4-1.254 0.94-2.261 1.68-2.05 0.63 0.178 0.57 0.975 0.02 2.836 0.91 0.45 1.74 0.88 2.17 1.001 0.98 0.271 1.13 0.901 0.98 1.211-0.08 0.168-1.85-0.212-3.59-0.692-0.49 1.882-0.44 2.904-1.34 2.767-1.02-0.157-0.98-0.353-0.78-1.176 0.07-0.28 0.19-1.134 0.4-2.105-0.76-0.246-1.37-0.475-1.62-0.633-0.89-0.588-0.89-1.722 0.55-1.605"/>
   <path id="Fill-29" sketch:type="MSShapeGroup" fill="#EFB4C4" d="m107.77 30.46c0.38-0.223 1.11-0.557 1.93-0.871-0.2-0.695-0.41-1.675 0.58-1.829 0.48-0.078 0.85 0.433 1.18 1.236 1.24-0.355 2.34-0.522 2.54-0.142 0.23 0.441 0.59 1.056-0.08 1.369-0.25 0.117-0.98 0.393-1.82 0.695 0.25 1.064 0.31 2.16-0.49 2.359-0.65 0.164-1.09-0.791-1.38-1.72-0.77 0.261-1.4 0.453-1.56 0.466-0.43 0.039-2.07-0.86-0.9-1.563"/>
   <path id="Fill-30" sketch:type="MSShapeGroup" fill="#700B31" d="m100.38 30.89c0.27 0.077 0.92 0.313 1.68 0.617 0.27-1.323 0.73-2.353 1.49-1.673 0.27 0.245 0.33 1.271 0.25 2.391 1.21 0.512 2.3 1.031 2.49 1.249 0.39 0.472 0.55 0.626 0.11 1.017-0.19 0.179-1.46-0.223-2.8-0.732-0.19 1.054-0.49 1.908-0.83 1.908-0.87 0-1.1-0.238-1.1-0.587 0-0.127 0.03-1.013 0.15-2.035-0.89-0.37-1.57-0.681-1.68-0.746-0.314-0.196-0.585-1.643 0.24-1.409"/>
   <path id="Fill-31" sketch:type="MSShapeGroup" fill="#EFB4C4" d="m93.146 35.611c0.223-0.182 0.782-0.512 1.45-0.865-0.352-0.963-0.434-1.822 0.392-1.859 0.248-0.009 0.686 0.475 1.102 1.132 0.91-0.405 1.736-0.679 1.953-0.535 0.498 0.322 0.623 0.575 0.42 0.881-0.084 0.121-0.777 0.584-1.625 1.094 0.351 0.852 0.506 1.641 0.146 1.862-0.886 0.546-0.779 0.364-1.013 0.054-0.065-0.094-0.334-0.504-0.633-1.049-0.893 0.485-1.654 0.84-1.781 0.74-0.307-0.262-1.084-0.909-0.411-1.455"/>
   <path id="Fill-32" sketch:type="MSShapeGroup" fill="#700B31" d="m89.221 38.833c0.261-0.021 0.634-0.087 1.064-0.166 0.055-1.129 0.307-2.122 1.063-1.647 0.201 0.122 0.369 0.695 0.459 1.378 0.773-0.119 1.455-0.174 1.644-0.002 0.342 0.304 0.238 1.222-0.195 1.316-0.145 0.032-0.719 0.168-1.399 0.299-0.056 0.639-0.214 1.145-0.525 1.232-0.873 0.241-0.912 0.065-0.949-0.115-0.01-0.042-0.045-0.376-0.08-0.833-0.815 0.127-1.5 0.178-1.553 0.021-0.141-0.395-0.518-1.401 0.471-1.483"/>
   <path id="Fill-33" sketch:type="MSShapeGroup" fill="#EFB4C4" d="m123.84 25.479c-0.81-0.866-0.64-1.47-0.64-1.47 0.22-0.305 0.92-0.07 1.6 0.28 0.03-0.027 0.05-0.057 0.08-0.084 1.69-1.83 2.03-1.483 2.03-1.483 0.59 0.447-0.11 1.595-0.79 2.421 0.01 0.004 0.02 0.016 0.03 0.023 0.59 0.518 1.42 0.966 1.17 1.448-0.22 0.46-0.54 0.904-2.24-0.166-0.52 0.836-1.05 1.807-1.48 1.579-0.47-0.251-0.87-0.953 0.24-2.548"/>
   <path id="Fill-34" sketch:type="MSShapeGroup" fill="#EFB4C4" d="m114.59 56.809l-3.33 2.048v-0.005l3.33-2.043"/>
   <path id="Fill-35" sketch:type="MSShapeGroup" fill="#EFB4C4" d="m106.18 35.851c0.63-0.154 1.27-0.303 1.9-0.442-1.11 1.376-2.15 3.296-3.31 5.438 0.41-1.995 0.85-3.677 1.41-4.996"/>
   <path id="Fill-36" sketch:type="MSShapeGroup" fill="#EFB4C4" d="m104.18 36.358c0.33-0.089 0.65-0.167 0.97-0.251-0.59 0.847-1.15 1.816-1.74 2.907 0.23-1.005 0.49-1.886 0.77-2.656"/>
   <path id="Fill-37" sketch:type="MSShapeGroup" fill="#EFB4C4" d="m123.49 42.461c0.83 1.17 2.18 2.285 3.71 3.269-0.66 0.31-1.35 0.629-2.03 0.953-0.58-1.401-1.94-3.037-4.51-4.886v-0.001c2.95-1.785 6.02-3.646 8.77-5.307-0.47 0.282-0.94 0.568-1.42 0.86 1.73 0.269 2.47 0.407 3.7 0.409 0.34 0.305 0.67 0.608 0.98 0.916 0.25 0.242 0.48 0.483 0.7 0.722-0.1 0.022-0.2 0.042-0.3 0.06-0.8 0.133-1.61 0.195-2.49 0.224-0.11 0.004-0.22 0.007-0.33 0.008-0.86 0.019-1.79 0.014-2.84 0.019 0 0 1.95 1.293 4.49 1.455 0.44 0.032 0.91 0.022 1.39-0.034 0.32-0.04 0.65-0.092 0.99-0.18-0.61 0.423-1.38 0.71-2.11 0.906-0.04 0.009-0.08 0.019-0.11 0.028-0.04 0.011-0.09 0.02-0.13 0.031-0.16 0.038-0.32 0.075-0.49 0.108 0 0.002-0.01 0.002-0.01 0.003-0.17 0.036-0.35 0.068-0.53 0.096-0.01 0.001-0.02 0.004-0.04 0.006-0.18 0.029-0.38 0.055-0.57 0.076-1.04-0.489-2.22-0.959-3.53-1.361 0.92 0.653 2.52 1.861 4.18 3.149-0.27 0.125-0.55 0.252-0.83 0.383-2.38-1.188-4.91-2.1-6.64-1.912"/>
   <path id="Fill-38" sketch:type="MSShapeGroup" fill="#EFB4C4" d="m137.88 40.901c0.01 0.011-1.86 0.82-2.65 1.176v-0.005l2.65-1.171"/>
   <path id="Fill-39" sketch:type="MSShapeGroup" fill="#EFB4C4" d="m134.22 38.714c-0.45-0.33-0.96-0.68-1.52-0.977 0.4-0.016 0.87-0.041 1.42-0.076 0.17 0.206 0.34 0.414 0.5 0.615 0.24 0.343 1.22 1.675 1.91 2.79-0.77-0.907-1.72-1.914-2.31-2.352"/>
   <path id="Fill-40" sketch:type="MSShapeGroup" fill="#EFB4C4" d="m138.47 38.483c-0.79-0.854-1.85-1.776-3.25-2.754 0.29 0.356 0.58 0.7 0.84 1.039-1.16-0.367-2.68-0.963-4.25-1.723 0.93-0.564 1.79-1.086 2.57-1.558 0.86 0.52 1.63 1.036 2.22 1.476-0.54-0.484-1.22-1.045-1.95-1.636 0.1-0.065 0.21-0.128 0.31-0.19 0.4-0.244 0.79-0.478 1.14-0.689 0.53 0.43 0.91 0.803 1.17 1.081-0.26-0.367-0.56-0.792-0.89-1.249 0.18-0.107 0.66-0.402 1.11-0.678 0.33 0.39 0.58 0.676 0.64 0.722 0-0.092-0.18-0.416-0.44-0.843 0.09-0.054 0.18-0.107 0.26-0.156 0.32-0.191 0.5-0.302 0.5-0.302s0 0.008 0.01 0.021v0.003c0.13 0.22 1.12 2.018 1.16 4.461v-0.001c0 0.502-0.03 1.03-0.12 1.578v0.001c-0.1 0.659-0.29 1.319-0.58 1.993 0.01-0.03 0.02-0.063 0.03-0.089 0.01 0.001-0.31-0.318-0.48-0.507"/>
   <path id="Fill-41" sketch:type="MSShapeGroup" fill="#EFB4C4" d="m137.69 40.081c-0.68-0.804-1.63-1.617-2.8-2.47 0.49-0.033 1.03-0.071 1.64-0.115-0.58-0.019-1.26-0.07-2-0.148-0.01-0.005-0.02-0.012-0.03-0.019-0.46-0.331-0.96-0.672-1.49-1.014 0.27 0.323 0.53 0.636 0.79 0.947-1.37-0.177-2.87-0.451-4.24-0.853 0.06-0.039 0.13-0.08 0.19-0.119 0.24-0.144 0.47-0.286 0.71-0.426 0.19-0.117 0.38-0.232 0.57-0.345 1.82 0.491 3.65 0.946 5.03 1.251 0.77 0.973 1.41 1.893 1.88 2.845v0.003c0.12 0.229 0.21 0.495 0.3 0.728l-0.15 0.255c-0.13-0.176-0.25-0.342-0.39-0.519l-0.01-0.001"/>
   <path id="Fill-42" sketch:type="MSShapeGroup" fill="#EFB4C4" d="m122.32 55.979c-0.55-0.276-1.13-0.546-1.77-0.8 0.55 0.43 1.05 0.875 1.53 1.327-0.33 0.586-0.85 1.023-1.47 1.332-0.63-0.293-1.33-0.572-2.07-0.832 0.96-0.412 1.5-0.777 1.5-0.777-0.61 0.322-1.22 0.531-1.82 0.669-0.26-0.095-0.52-0.183-0.79-0.263 0.14 0.095 0.29 0.207 0.45 0.324-1.19 0.203-2.32 0.088-3.29-0.15l2.29-1.409c1.11-0.151 2.18-0.434 3.37-0.946-0.8 0.229-1.68 0.39-2.58 0.46l2.43-1.487c0.2-0.014 0.41-0.028 0.63-0.046-0.16-0.006-0.34-0.014-0.52-0.024v-0.001l5.92-3.637c3.6 0.548 3.18 0.624 8.94 0.212-1.89-0.064-4.85-0.422-7.34-1.193v-0.001l1.45-0.889c1.96 0.529 3.96 1.036 5.45 1.362-0.31-0.099-0.65-0.213-1-0.343-0.25-0.09-0.51-0.19-0.78-0.296-0.88-0.346-1.84-0.766-2.81-1.249l2.58-1.589v0.001c0.98 0.589 1.86 1.172 2.54 1.663-0.62-0.543-1.4-1.182-2.23-1.849v-0.001l1.44-0.885c0.67 0.522 1.15 0.979 1.44 1.306-0.31-0.444-0.67-0.963-1.09-1.526l0.54-0.331-0.54 0.331c-0.37-0.498-0.79-1.036-1.26-1.591-0.34 0.16-0.68 0.313-1.05 0.476-0.43-0.257-0.89-0.513-1.39-0.771 0.66 0.091 1.46 0.139 2.28 0.104 0.24-0.009 0.48-0.032 0.72-0.056 0.27-0.118 0.51-0.226 0.75-0.332 0.4 0.385 0.98 0.956 1.27 1.364 0.34 0.47 0.62 0.96 0.82 1.467-0.17-0.499-0.42-1.006-0.72-1.529l1.53-0.94v0.005-0.006s1.85 7.346-8.34 11.751c-0.31 0.727-0.63 1.41-0.96 2.067-0.77-0.801-1.77-1.662-3.07-2.572 1.05 1.265 1.93 2.396 2.56 3.564-0.1 0.186-0.2 0.366-0.3 0.543-1.03-1.119-2.57-2.278-4.48-3.522 1.48 1.766 2.8 3.372 3.67 4.845 0.14-0.209 0.27-0.422 0.41-0.639-0.3 0.494-0.61 0.969-0.93 1.42 0.15-0.219 0.3-0.444 0.45-0.674-0.91-1.26-2.33-2.41-4.36-3.437"/>
   <path id="Fill-43" sketch:type="MSShapeGroup" fill="#EFB4C4" d="m109.21 49.629c1.33 0.457 3.65 1.141 5.98 1.768-0.59 0.286-1.17 0.558-1.7 0.815-1.95-0.591-3.62-1.435-4.28-2.583"/>
   <path id="Fill-44" sketch:type="MSShapeGroup" fill="#EFB4C4" d="m123.55 46.18c0.43 0.151 0.97 0.323 1.59 0.514-0.38 0.174-0.75 0.351-1.13 0.529 0.11-0.051 0.21-0.101 0.31-0.149-0.32-0.275-0.59-0.572-0.77-0.894"/>
   <path id="Fill-45" sketch:type="MSShapeGroup" fill="#EFB4C4" d="m136.37 32.279h0.01c-0.1 0.057-0.19 0.114-0.28 0.169v-0.002c0.09-0.057 0.18-0.112 0.27-0.167"/>
   <path id="Fill-46" sketch:type="MSShapeGroup" fill="#EFB4C4" d="m118.96 49.605c-0.99 0.472-1.95 0.929-2.86 1.363-1.85-0.891-3.77-2.01-5.24-3.255 0 0.003 1.62-0.976 1.94-1.172 2.09 0.728 4.37 1.94 6.16 3.064"/>
   <path id="Fill-47" sketch:type="MSShapeGroup" fill="#EFB4C4" d="m110.75 59.162v0.002l-0.86 0.527 0.86-0.529"/>
   <path id="Fill-48" sketch:type="MSShapeGroup" fill="#EFB4C4" d="m132.04 43.497c0.13-0.058 0.25-0.114 0.37-0.17v0.002c-0.12 0.056-0.24 0.11-0.37 0.168"/>
   <path id="Fill-49" sketch:type="MSShapeGroup" fill="#EFB4C4" d="m117.67 54.915v-0.001l-0.79 0.486 0.79-0.485"/>
   <path id="Fill-50" sketch:type="MSShapeGroup" fill="#EFB4C4" d="m122.28 48.037c-0.45 0.211-0.89 0.421-1.34 0.63-0.93-1.31-2.22-3.005-3.98-4.631-0.25 0.15-0.49 0.293-0.74 0.439 0.42-0.248 0.84-0.502 1.26-0.76 2.45 1.26 3.98 2.713 4.8 4.322"/>
   <path id="Fill-51" sketch:type="MSShapeGroup" fill="#CA975E" d="m103 61.875c2.46 3.674 1.94 3.322 5.6 6.846-0.62 0.007-1.25 0-1.88-0.024-1.98-1.672-3.67-4.078-3.72-6.822"/>
   <path id="Fill-52" sketch:type="MSShapeGroup" fill="#CA975E" d="m101.63 64.18c1.79 1.976 2.99 3.379 4.6 4.498-0.84-0.041-1.69-0.102-2.54-0.184-0.1 0.098-0.2 0.188-0.29 0.283 0.07-0.068 0.14-0.136 0.21-0.209-1.63-2.011-1.98-4.388-1.98-4.388"/>
   <path id="Fill-53" sketch:type="MSShapeGroup" fill="#EFB4C4" d="m119.06 42.766c2.37 1.626 4.05 3.114 4.66 4.592v0.001c-0.47 0.222-0.94 0.443-1.41 0.665-0.68-1.54-1.99-3.217-3.54-5.088-0.31 0.185-0.61 0.368-0.91 0.549 0.88-0.531 1.79-1.079 2.7-1.634 0 0.001 0 0.002 0.01 0.002-0.51 0.308-1.02 0.612-1.51 0.913"/>
   <path id="Fill-54" sketch:type="MSShapeGroup" fill="#EFB4C4" d="m130.13 44.373c-0.04 0.019-0.08 0.037-0.12 0.056 0.04-0.019 0.08-0.038 0.12-0.056"/>
   <path id="Fill-55" sketch:type="MSShapeGroup" fill="#EFB4C4" d="m115 45.217c0.17 0.075 0.34 0.151 0.51 0.228 2.5 1.12 4.26 2.393 5.27 3.299-0.53 0.251-1.06 0.503-1.58 0.749-1.29-1.055-2.8-2.228-4.12-3.241-0.01-0.005-0.02-0.014-0.02-0.018-0.27-0.201-0.54-0.397-0.78-0.585-0.24 0.143-0.47 0.284-0.7 0.422 0.46-0.273 0.92-0.556 1.41-0.851v0.002l0.01-0.005"/>
   <path id="Fill-56" sketch:type="MSShapeGroup" fill="#CA975E" d="m114.15 67.549c0.63-1.32 0.87-2.924 0.63-4.869 0.2 0.185 0.42 0.367 0.67 0.535-0.31 1.732-0.69 3.219-1.3 4.334zm1.66 0.148c0.27-0.537 0.42-1.193 0.5-1.945 0.02-0.104 0.03-0.201 0.05-0.303 0.04-0.527 0.04-1.101 0.01-1.707 0.3 0.145 0.62 0.289 0.96 0.418-0.11 0.479-0.24 0.942-0.4 1.375-0.06 0.168-0.13 0.332-0.2 0.492-0.25 0.592-0.54 1.147-0.92 1.67zm-7.04 1.02c3.15-0.055 6.17-0.533 8.97-1.684 0.04-0.137 0.07-0.285 0.1-0.435 0.06-0.282 0.1-0.58 0.14-0.895 0.04-0.402 0.07-0.828 0.08-1.287 0.97 0.328 2.03 0.586 3.08 0.781 0.4-0.279 0.81-0.572 1.21-0.894-1.41-0.356-2.92-0.762-4.31-1.16-0.02-0.493-0.07-1.024-0.13-1.586-0.03-0.018-0.06-0.03-0.08-0.053-0.08 0.519-0.17 1.029-0.25 1.512-0.45-0.129-0.88-0.254-1.29-0.381-0.06-0.766-0.17-1.594-0.31-2.467-0.02-0.02-0.03-0.033-0.05-0.047-0.11 0.803-0.23 1.568-0.34 2.301-0.32-0.1-0.62-0.193-0.89-0.276-0.18-1.091-0.49-2.291-0.98-3.597 0.27 3.676-0.46 6.846-0.91 8.803 0.13-1.274 0-4.491-1.55-8.495l-0.51 0.307c0.24 2.59 0.51 6.326 0.55 8.654-0.21-2.115-0.89-5.582-1.97-8.349-1.69-0.766-1.88-1.981-1.62-3.018-0.18-0.221-0.37-0.426-0.56-0.597-0.84 3.666 1.08 9.791 2.45 12.787-1.61-2.815-4.19-7.936-5.17-10.256-0.85 2.623 2.17 7.543 4.34 10.332z"/>
   <path id="Fill-57" sketch:type="MSShapeGroup" fill="#EFB4C4" d="m115 45.216c0.03-0.023 0.07-0.045 0.11-0.068-0.04 0.023-0.08 0.046-0.11 0.069v-0.001"/>
   <path id="Fill-58" sketch:type="MSShapeGroup" fill="#CA975E" d="m103.09 69.068c-0.18 0.18-0.37 0.352-0.55 0.526-0.64-0.801-1.1-1.569-1.28-2.004 0.61 0.582 1.23 1.068 1.83 1.478"/>
   <path id="Fill-59" sketch:type="MSShapeGroup" fill="#CA975E" d="m117.91 61.557c-0.01-0.121-0.03-0.235-0.03-0.358-0.02 0.106-0.04 0.205-0.05 0.305-0.66-0.422-1.28-0.871-1.85-1.336 0-0.076-0.02-0.141-0.03-0.221 0 0.059-0.01 0.116-0.02 0.174-0.71-0.598-1.33-1.223-1.78-1.867 0.03-0.008 0.07-0.004 0.1-0.008 0.57 0.152 1.47 0.291 2.47 0.309 2.55 0.681 5.61 2.326 7.76 3.722-0.68 0.75-1.39 1.422-2.12 2.02 0.1-0.09 0.2-0.18 0.31-0.274-1.53-0.646-3.24-1.496-4.76-2.466"/>
   <path id="Fill-60" sketch:type="MSShapeGroup" fill="#CA975E" d="m120.61 57.838c2.3 1.045 3.97 2.217 4.99 3.092-0.33 0.431-0.67 0.84-1.02 1.228-1.52-1.258-3.42-2.742-4.99-3.928 0.36-0.101 0.7-0.232 1.02-0.392"/>
   <path id="Fill-61" sketch:type="MSShapeGroup" fill="#700B31" d="m123.49 42.461c1.73-0.188 4.26 0.724 6.64 1.912-0.04 0.018-0.08 0.037-0.12 0.056-0.9 0.417-1.84 0.848-2.81 1.301-1.53-0.984-2.88-2.099-3.71-3.269"/>
   <path id="Fill-62" sketch:type="MSShapeGroup" fill="#700B31" d="m127.2 45.73c0.91 0.578 1.88 1.116 2.84 1.591v0.001c0.97 0.483 1.93 0.903 2.81 1.249 0.27 0.106 0.53 0.206 0.78 0.296 0.35 0.13 0.69 0.244 1 0.343-1.49-0.326-3.49-0.833-5.45-1.362-1.44-0.393-2.89-0.793-4.04-1.153-0.01-0.005 1.4-0.655 2.06-0.965"/>
   <path id="Fill-63" sketch:type="MSShapeGroup" fill="#700B31" d="m130.13 44.373c0.28-0.131 0.56-0.258 0.83-0.383 0.66 0.517 1.33 1.044 1.97 1.557v0.001c0.83 0.667 1.61 1.306 2.23 1.849-0.68-0.491-1.56-1.074-2.54-1.663v-0.001c-0.78-0.463-1.62-0.926-2.49-1.36"/>
   <path id="Fill-64" sketch:type="MSShapeGroup" fill="#700B31" d="m125.27 49.592c0.21-0.517 0.3-1.105 0.21-1.761 0.66 0.35 1.43 0.647 2.25 0.906v0.001c2.49 0.771 5.45 1.129 7.34 1.193-5.76 0.412-5.34 0.336-8.94-0.212v-0.001c-0.26-0.038-0.55-0.082-0.86-0.126"/>
   <path id="Fill-65" sketch:type="MSShapeGroup" fill="#700B31" d="m132.41 43.327c0.37-0.163 0.71-0.316 1.05-0.476 0.47 0.555 0.89 1.093 1.26 1.591 0.42 0.563 0.78 1.082 1.09 1.526-0.29-0.327-0.77-0.784-1.44-1.306-0.53-0.416-1.19-0.867-1.96-1.333v-0.002"/>
   <path id="Fill-66" sketch:type="MSShapeGroup" fill="#700B31" d="m125.17 46.683c-0.01 0.001-0.02 0.003-0.03 0.012v-0.001c-0.62-0.191-1.16-0.363-1.59-0.514 0.18 0.322 0.45 0.619 0.77 0.894-0.1 0.048-0.2 0.098-0.31 0.149-0.09 0.043-0.29 0.135-0.29 0.136v-0.001c-0.61-1.478-2.29-2.966-4.66-4.592-0.01 0.007 1.59-0.973 1.6-0.97v0.001c2.57 1.849 3.93 3.485 4.51 4.886"/>
   <path id="Fill-67" sketch:type="MSShapeGroup" fill="#700B31" d="m111.63 55.587c2.12-0.003 3.73 0.022 5.25-0.187l-2.29 1.409c-1.75-0.424-2.96-1.222-2.96-1.222"/>
   <path id="Fill-68" sketch:type="MSShapeGroup" fill="#700B31" d="m114.99 45.222v-0.002-0.005s0 0.001 0.01 0.001v0.001l-0.01 0.005"/>
   <path id="Fill-69" sketch:type="MSShapeGroup" fill="#700B31" d="m110.56 57.205c0.26 0.561 0.49 1.108 0.7 1.647v0.005l-0.51 0.307v-0.002c-0.06-0.777-0.13-1.459-0.19-1.957"/>
   <path id="Fill-70" sketch:type="MSShapeGroup" fill="#700B31" d="m107.71 56.453c0.61 0.77 1.15 1.826 1.62 3.016-1.69-0.766-1.88-1.979-1.62-3.016"/>
   <path id="Fill-71" sketch:type="MSShapeGroup" fill="#700B31" d="m115.06 46.234c0 0.004 0.01 0.013 0.02 0.018 1.32 1.013 2.83 2.186 4.12 3.241v0.001c0.6 0.485 1.15 0.947 1.62 1.353-0.52-0.369-1.14-0.803-1.86-1.241v-0.001c-1.79-1.124-4.07-2.336-6.16-3.064 0-0.001 0.01-0.002 0.01-0.002 0.02-0.012 0.03-0.022 0.05-0.034 0.24-0.141 0.48-0.285 0.72-0.434 0.23-0.138 0.46-0.279 0.7-0.422 0.24 0.188 0.51 0.384 0.78 0.585"/>
   <path id="Fill-72" sketch:type="MSShapeGroup" fill="#700B31" d="m117.58 63.016c-0.45-0.129-0.88-0.254-1.29-0.381-0.06-0.766-0.17-1.594-0.31-2.467 0.57 0.465 1.19 0.914 1.85 1.336-0.08 0.519-0.17 1.029-0.25 1.512"/>
   <path id="Fill-73" sketch:type="MSShapeGroup" fill="#700B31" d="m114.25 58.246c-0.03 0.004-0.07 0-0.1 0.008 0.45 0.644 1.07 1.269 1.78 1.867-0.11 0.803-0.23 1.568-0.34 2.301-0.32-0.1-0.62-0.193-0.89-0.276-0.18-1.091-0.49-2.291-0.98-3.597 0.27 3.676-0.46 6.846-0.91 8.803 0.13-1.274 0-4.491-1.55-8.495l3.33-2.048c0.97 0.238 2.1 0.353 3.29 0.15-0.16-0.117-0.31-0.229-0.45-0.324 0.27 0.08 0.53 0.168 0.79 0.263 0.6-0.138 1.21-0.347 1.82-0.669 0 0-0.54 0.365-1.5 0.777 0.74 0.26 1.44 0.539 2.07 0.832-0.32 0.16-0.66 0.291-1.02 0.392 1.57 1.186 3.47 2.67 4.99 3.928v0.002c-0.03 0.041-0.07 0.082-0.1 0.121v-0.004c-2.15-1.396-5.21-3.041-7.76-3.722-1-0.018-1.9-0.157-2.47-0.309"/>
   <path id="Fill-74" sketch:type="MSShapeGroup" fill="#700B31" d="m109.57 59.572c0.1 0.043 0.21 0.084 0.32 0.119l0.86-0.527c0.24 2.59 0.51 6.326 0.55 8.654-0.21-2.115-0.89-5.582-1.97-8.349 0.07 0.035 0.15 0.07 0.24 0.103"/>
   <path id="Fill-75" sketch:type="MSShapeGroup" fill="#700B31" d="m134.64 33.325s0.01 0.001 0.01 0.002c0.73 0.591 1.41 1.152 1.95 1.636-0.59-0.44-1.36-0.956-2.22-1.476v-0.001c0.09-0.053 0.18-0.109 0.26-0.161"/>
   <path id="Fill-76" sketch:type="MSShapeGroup" fill="#700B31" d="m137.27 33.529c-0.26-0.278-0.64-0.651-1.17-1.081 0.09-0.055 0.18-0.112 0.28-0.168 0.33 0.457 0.63 0.882 0.89 1.249"/>
   <path id="Fill-77" sketch:type="MSShapeGroup" fill="#700B31" d="m114.78 62.68c0.2 0.185 0.42 0.367 0.67 0.535-0.31 1.732-0.69 3.219-1.3 4.334 0.63-1.32 0.87-2.924 0.63-4.869"/>
   <path id="Fill-78" sketch:type="MSShapeGroup" fill="#700B31" d="m116.36 65.449c0.04-0.527 0.04-1.101 0.01-1.707 0.3 0.145 0.62 0.289 0.96 0.418-0.11 0.479-0.24 0.942-0.4 1.375-0.06 0.168-0.13 0.332-0.2 0.492-0.25 0.592-0.54 1.147-0.92 1.67 0.27-0.537 0.42-1.193 0.5-1.945 0.02-0.104 0.03-0.201 0.05-0.303"/>
   <path id="Fill-79" sketch:type="MSShapeGroup" fill="#700B31" d="m122.31 48.024v0.001c0.07 0.172 0.15 0.352 0.21 0.523-0.07-0.173-0.16-0.34-0.24-0.508v-0.003c-0.82-1.609-2.35-3.062-4.8-4.322 0.12-0.075 0.26-0.153 0.38-0.23 0.3-0.181 0.6-0.364 0.91-0.549 1.55 1.871 2.86 3.548 3.54 5.088"/>
   <path id="Fill-80" sketch:type="MSShapeGroup" fill="#700B31" d="m120.94 48.667v0.002c0.2 0.266 0.38 0.518 0.54 0.747-0.17-0.186-0.41-0.416-0.7-0.672-1.01-0.906-2.77-2.179-5.27-3.299-0.17-0.077-0.34-0.153-0.51-0.228 0.03-0.023 0.07-0.046 0.11-0.069 0.2-0.119 0.4-0.239 0.6-0.366 0.17-0.099 0.34-0.205 0.51-0.307 0.25-0.146 0.49-0.289 0.74-0.439 1.76 1.626 3.05 3.321 3.98 4.631"/>
   <path id="Fill-81" sketch:type="MSShapeGroup" fill="#700B31" d="m119.63 38.121c-0.29-1.457-0.98-3.082-2.49-4.348 0 0 1.95 1.339 3.5 3.923v0.001c-0.34 0.141-0.67 0.284-1.01 0.424"/>
   <path id="Fill-82" sketch:type="MSShapeGroup" fill="#700B31" d="m116.88 55.4l0.79-0.486c0.9-0.07 1.78-0.231 2.58-0.46-1.19 0.512-2.26 0.795-3.37 0.946"/>
   <path id="Fill-83" sketch:type="MSShapeGroup" fill="#700B31" d="m117.72 38.931v-0.001c-0.43-1.75-1.31-3.399-2.3-4.685 1.41 1.396 2.2 2.729 2.95 4.408-0.02 0.009-0.04 0.019-0.06 0.028-0.19 0.084-0.39 0.169-0.59 0.25"/>
   <path id="Fill-84" sketch:type="MSShapeGroup" fill="#700B31" d="m115.67 39.801c-0.33-2.099-0.92-4.198-1.43-5.608 1.44 2.96 1.99 4.119 2.35 5.216-0.31 0.135-0.62 0.263-0.92 0.392"/>
   <path id="Fill-85" sketch:type="MSShapeGroup" fill="#700B31" d="m114.49 40.306c-0.3 0.124-0.58 0.249-0.87 0.372 0.23-2.182 0.23-4.312 0.12-5.803 0.25 1.469 0.52 3.461 0.75 5.431"/>
   <path id="Fill-86" sketch:type="MSShapeGroup" fill="#700B31" d="m110.46 42.041c-0.19 0.081-0.37 0.16-0.55 0.239-0.09 0.036-0.17 0.074-0.25 0.111v-0.001c0.49-1.802 1.11-3.94 1.67-5.706 0.18-0.589 0.37-1.138 0.53-1.62-0.43 1.669-0.88 4.283-1 6.802v0.001c-0.14 0.059-0.27 0.115-0.4 0.174"/>
   <path id="Fill-87" sketch:type="MSShapeGroup" fill="#700B31" d="m117.98 65.703c0.04-0.402 0.07-0.828 0.08-1.287 0.97 0.328 2.03 0.586 3.08 0.781v0.002c-0.2 0.135-0.39 0.264-0.59 0.389 0 0.006-0.01 0.01-0.02 0.012-0.19 0.123-0.38 0.24-0.57 0.353-0.11 0.063-0.22 0.119-0.33 0.178-0.11 0.058-0.21 0.117-0.32 0.17-0.11 0.064-0.24 0.125-0.35 0.183-0.15 0.073-0.29 0.143-0.44 0.209-0.06 0.03-0.12 0.061-0.18 0.088-0.04 0.022-0.09 0.039-0.13 0.057-0.11 0.049-0.21 0.094-0.32 0.135-0.05 0.021-0.1 0.043-0.15 0.062v-0.002c0.04-0.137 0.07-0.285 0.1-0.435 0.06-0.282 0.1-0.58 0.14-0.895"/>
   <path id="Fill-88" sketch:type="MSShapeGroup" fill="#700B31" d="m122.08 56.506c-0.48-0.452-0.98-0.897-1.53-1.327 0.64 0.254 1.22 0.524 1.77 0.8 2.03 1.027 3.45 2.177 4.36 3.437-0.15 0.23-0.3 0.455-0.45 0.674-0.01 0.014-0.02 0.025-0.03 0.037-0.15 0.213-0.3 0.42-0.45 0.623-0.05 0.066-0.1 0.123-0.14 0.184-0.01-0.002-0.01-0.002-0.01-0.004-1.02-0.875-2.69-2.047-4.99-3.092 0.62-0.309 1.14-0.746 1.47-1.332"/>
   <path id="Fill-89" sketch:type="MSShapeGroup" fill="#700B31" d="m117.91 61.557c1.52 0.97 3.23 1.82 4.76 2.466-0.11 0.094-0.21 0.184-0.31 0.274-0.01 0.004-0.01 0.004-0.01 0.006-1.41-0.356-2.92-0.762-4.31-1.16-0.02-0.493-0.07-1.024-0.13-1.586"/>
   <path id="Fill-90" sketch:type="MSShapeGroup" fill="#700B31" d="m126.58 35.193c-0.7-0.421-1.26-0.896-1.58-1.448 0.72 0.246 1.74 0.564 2.88 0.901l0.01 0.001c0.98 0.284 2.05 0.582 3.13 0.871-0.18 0.114-0.37 0.23-0.56 0.346-0.24 0.14-0.47 0.282-0.71 0.426-0.06 0.039-0.13 0.079-0.19 0.119-1.12-0.322-2.15-0.725-2.98-1.215v-0.001"/>
   <path id="Fill-91" sketch:type="MSShapeGroup" fill="#700B31" d="m129.66 33.902c-1.93-1.123-3.72-2.457-4.71-3.875 2.02-0.223 5.17 1.077 7.86 2.555 0 0.001 0.01 0.001 0.01 0.001 0.54 0.3 1.06 0.603 1.56 0.903-0.78 0.474-1.64 0.996-2.57 1.556-0.72-0.345-1.44-0.729-2.15-1.139v-0.001"/>
   <path id="Fill-92" sketch:type="MSShapeGroup" fill="#700B31" d="m128.37 56.451s0 0.002 0.01 0.002c-0.07 0.135-0.14 0.262-0.2 0.393-0.11 0.203-0.21 0.402-0.32 0.599v-0.002c-0.63-1.168-1.51-2.299-2.56-3.564 1.3 0.91 2.3 1.771 3.07 2.572"/>
   <path id="Fill-93" sketch:type="MSShapeGroup" fill="#700B31" d="m123.08 54.464c1.91 1.244 3.45 2.403 4.48 3.522v0.004c-0.13 0.225-0.26 0.444-0.39 0.656 0 0.006-0.01 0.016-0.01 0.024-0.14 0.217-0.27 0.43-0.41 0.639-0.87-1.473-2.19-3.079-3.67-4.845"/>
   <path id="Fill-94" sketch:type="MSShapeGroup" fill="#700B31" d="m138.61 22.637c-2.09-2.2-2.47-2.768-3.86-3.834 0-0.018 0.01-0.036 0.02-0.054 0.01-0.049 0.03-0.097 0.05-0.145 0.06-0.166 0.12-0.332 0.18-0.499 0.06-0.165 0.11-0.329 0.16-0.493 0.01-0.043 0.03-0.086 0.04-0.129 1.65 1.288 3.02 3.032 3.41 5.154"/>
   <path id="Fill-95" sketch:type="MSShapeGroup" fill="#700B31" d="m137.78 26.318c-0.82-1.287-2.4-3.498-3.97-5.597 0.17-0.286 0.31-0.573 0.46-0.861l0.15-0.297c1.93 2.249 3.64 4.884 3.36 6.755"/>
   <path id="Fill-96" sketch:type="MSShapeGroup" fill="#700B31" d="m139.58 20.136c-1.67-1.317-2.92-2.327-4.25-3.107 0.03-0.114 0.05-0.231 0.08-0.346 0.03-0.155 0.07-0.308 0.11-0.464 0.01-0.07 0.02-0.14 0.03-0.209 0.05-0.247 0.09-0.494 0.13-0.746v0.002c2.85 1.659 3.9 4.87 3.9 4.87"/>
   <path id="Fill-97" sketch:type="MSShapeGroup" fill="#700B31" d="m135.73 14.857c0.02-0.13 0.03-0.261 0.05-0.391 0.02-0.236 0.04-0.473 0.05-0.713 0.24 0.167 0.46 0.336 0.67 0.508 0.03 0.023 0.06 0.048 0.09 0.071 0.21 0.175 0.41 0.351 0.61 0.529 0.01 0.012 0.02 0.023 0.03 0.034 0.19 0.179 0.37 0.362 0.55 0.545 0.02 0.033 0.05 0.066 0.08 0.099 0.15 0.152 0.28 0.305 0.41 0.459 0.01 0.023 0.04 0.047 0.06 0.071 0-0.001-0.01-0.002-0.01-0.003-0.93-0.52-1.83-0.878-2.6-1.121 0.01-0.029 0.01-0.058 0.01-0.088"/>
   <path id="Fill-98" sketch:type="MSShapeGroup" fill="#700B31" d="m115.98 60.168c-0.02-0.02-0.03-0.033-0.05-0.047 0.01-0.058 0.02-0.115 0.02-0.174 0.01 0.08 0.03 0.145 0.03 0.221"/>
   <path id="Fill-99" sketch:type="MSShapeGroup" fill="#700B31" d="m117.91 61.557c-0.03-0.018-0.06-0.03-0.08-0.053 0.01-0.1 0.03-0.199 0.05-0.305 0 0.123 0.02 0.237 0.03 0.358"/>
   <path id="Fill-100" sketch:type="MSShapeGroup" fill="#700B31" d="m87.785 60.469l0.061-0.235s0.574-2.252 3.023-1.437c3.358 1.115 4.563 0.131 4.563 0.131s-2.004 2.408-4.139 3.051c0.469-1.282-0.064-2.057-0.719-2.204-0.697-0.156-1.529 0.405-1.424 1.829 0.006 0.089 0.018 0.181 0.034 0.277-0.506-0.25-0.987-0.699-1.399-1.412zm10.039-6.732c0.459-0.001 0.881-0.038 1.27-0.106 0.906 0.935 1.866 1.782 2.716 2.464-0.04 0.025-0.09 0.051-0.13 0.074-1.2-0.731-2.584-1.601-3.856-2.432zm3.656-1.213c0.21-0.2 0.39-0.415 0.53-0.639 0.65 0.948 1.21 1.886 1.61 2.717-0.05 0.058-0.1 0.112-0.14 0.166-0.55-0.692-1.24-1.471-2-2.244zm0.93-1.948c0.03-1.266-0.97-2.439-2.935-2.48-2.276-0.046-3.297 2.554-0.325 3.901-8.082 0.187-5.109-6.827 2.09-5.295 1.62 0.347 3.79 1.855 3.71 4.442-0.76-1.147-1.84-2.326-3.2-3.473 1.26 1.867 2.14 3.878 2.73 5.486-0.05 0.102-0.1 0.202-0.14 0.3-0.46-0.84-1.11-1.883-1.93-2.881zm-15.767 16.883c-0.02 1.281-0.481 2.031 0.007 2.543 0.016 0.203-0.15 0.514-0.105 0.666 0.152 0.535 0.428 0.773 0.428 0.773s0.422 1.202 0.443 1.414c0.145 0.584-0.658 1.411-0.088 2.416 0.033 0.055 0.068 0.104 0.104 0.157 0.048 0.07 0.095 0.138 0.146 0.205 0.045 0.058 0.09 0.113 0.137 0.166 0.045 0.055 0.09 0.109 0.137 0.16 0.052 0.057 0.105 0.109 0.16 0.16 0.045 0.043 0.09 0.086 0.134 0.127 0.061 0.051 0.122 0.098 0.184 0.145 0.045 0.035 0.09 0.07 0.135 0.101 0.064 0.043 0.133 0.086 0.201 0.125 0.047 0.028 0.092 0.055 0.141 0.08 0.07 0.037 0.144 0.071 0.218 0.102 0.047 0.021 0.096 0.041 0.145 0.06 0.078 0.03 0.158 0.055 0.236 0.079 0.051 0.015 0.102 0.031 0.154 0.044 0.083 0.02 0.165 0.036 0.251 0.051 0.052 0.01 0.109 0.02 0.162 0.026 0.088 0.011 0.175 0.019 0.267 0.023 0.055 0.004 0.113 0.006 0.172 0.008 0.092 0.004 0.186 0.002 0.281-0.002 0.059-0.002 0.12-0.006 0.178-0.01 0.1-0.008 0.199-0.017 0.303-0.031 0.06-0.008 0.123-0.02 0.185-0.029 0.104-0.016 0.211-0.036 0.319-0.059 0.062-0.014 0.127-0.029 0.193-0.045 0.111-0.027 0.223-0.059 0.338-0.09 0.064-0.019 0.131-0.041 0.197-0.062 0.119-0.037 0.24-0.078 0.364-0.121 0.064-0.026 0.128-0.051 0.193-0.078 0.129-0.049 0.26-0.1 0.394-0.159 0.061-0.025 0.123-0.056 0.186-0.084 0.141-0.062 0.283-0.129 0.43-0.201 0.054-0.025 0.111-0.057 0.168-0.086 0.156-0.08 0.314-0.16 0.476-0.248 0.045-0.025 0.092-0.053 0.137-0.078 0.178-0.1 0.353-0.201 0.537-0.311 0.025-0.015 0.053-0.033 0.076-0.048 0.242-0.149 0.49-0.307 0.742-0.473 0.014-0.008 0.028-0.018 0.041-0.025 0.245-0.162 0.493-0.336 0.748-0.516 0.024-0.016 0.047-0.031 0.071-0.049 0.25-0.178 0.504-0.365 0.763-0.56 0.03-0.024 0.061-0.045 0.09-0.069 0.258-0.195 0.522-0.4 0.789-0.615 0.032-0.025 0.065-0.053 0.098-0.078 0.271-0.217 0.547-0.443 0.828-0.678 0.029-0.025 0.057-0.049 0.086-0.072 0.289-0.244 0.577-0.498 0.887-0.76 0.01-0.015 0.03-0.031 0.05-0.047 0.29-0.256 0.59-0.523 0.89-0.797 0.05-0.045 0.09-0.089 0.15-0.134 0.28-0.268 0.58-0.541 0.88-0.825 0.02-0.019 0.04-0.037 0.06-0.056-0.64-0.801-1.1-1.569-1.28-2.004 0.61 0.582 1.23 1.068 1.83 1.478h0.01c0.09-0.097 0.2-0.193 0.3-0.291 0.07-0.068 0.14-0.136 0.21-0.209-1.63-2.011-1.98-4.388-1.98-4.388 1.79 1.976 2.99 3.379 4.6 4.498 0 0 0.01 0.004 0.01 0.006 0.11 0.005 0.23 0.007 0.34 0.011h0.06c0.03 0 0.06 0.002 0.08 0.002-1.98-1.672-3.67-4.078-3.72-6.822 2.46 3.674 1.94 3.322 5.6 6.846v0.004c0.06 0 0.12-0.006 0.17-0.006v-0.002c-2.17-2.789-5.19-7.709-4.34-10.332 0.98 2.32 3.56 7.441 5.17 10.256-1.37-2.996-3.29-9.121-2.45-12.787 0.19 0.171 0.38 0.376 0.56 0.597v0.002c0.26-1.064 0.98-1.943 0.98-1.943s0.95-0.453 2.5-1.2c1.84 1.399 4.24 1.792 6.48 1.605v-0.001l2.43-1.487c0.2-0.014 0.41-0.028 0.63-0.046-0.16-0.006-0.34-0.014-0.52-0.024v-0.001c-1.87-0.107-4.47-0.457-6.72-1.144-1.95-0.591-3.62-1.435-4.28-2.583 1.33 0.457 3.65 1.141 5.98 1.768 0 0.001 0.01 0.001 0.01 0.001 1.84 0.493 3.7 0.956 5.09 1.261-1.15-0.36-2.65-0.948-4.19-1.691-1.85-0.891-3.77-2.01-5.24-3.255-1.9 1.141-3.1 1.868-3.15 1.882-4.8-1.081-1.87-4.573-1.79-5.416v-0.073c0.03-0.019 0.07-0.043 0.12-0.068 0.03-0.018 0.07-0.039 0.11-0.06 0.02-0.006 0.03-0.012 0.04-0.018 0.22-0.112 0.54-0.265 0.95-0.452 0.01-0.002 0.01-0.003 0.02-0.005 0.09-0.044 0.19-0.09 0.3-0.138 0.02-0.01 0.04-0.021 0.07-0.031 0.36-0.164 0.77-0.346 1.22-0.548-0.18 0.078-0.19 0.084 0.05-0.022 0.04-3.911 0.96-6.696 1.48-7.78-0.73 1.127-1.78 5.131-4.81 8.421-4.37 4.738-6.784-1.021-11.847 2.509-2.732 1.904-2.738 6.556 2.193 7.613 1.139 1.232 2.926 2.331 4.594 3.133-0.25 0.07-0.496 0.125-0.748 0.168-2.019-0.535-1.758-0.631-4.539-1.998 0.486 0.816 1.109 1.481 1.813 2.014-3.383-0.535-6.459-3.066-6.1-7.03 0.185-2.043 0.974-6.176 8.314-6.037 8.59 0.162 8.71-8.181 9.06-8.396v-0.003c-0.04 0.013-0.08 0.023-0.13 0.028v0.003c-1.11 1.376-2.15 3.296-3.31 5.438 0.41-1.995 0.85-3.677 1.41-4.996v-0.005c-0.09 0.019-0.17 0.044-0.26 0.065-0.25 0.061-0.51 0.12-0.76 0.19 0 0.002 0 0.004-0.01 0.006-0.59 0.847-1.15 1.816-1.74 2.907 0.23-1.005 0.49-1.886 0.77-2.656 0 0.001-0.01 0.001-0.01 0.003-1.29 0.355-2.61 0.701-3.9 1.261-17.112 7.447-14.553 18.665-14.014 21.497 0.549 2.875 0.418 4.395-1.215 7.067-0.326 0.537 1.609 0.685 1.602 1.273z"/>
   <path id="Fill-101" sketch:type="MSShapeGroup" fill="#CA975E" d="m114.24 34.193c1.44 2.96 1.99 4.119 2.35 5.216-0.31 0.135-0.62 0.263-0.92 0.392-0.33-2.099-0.92-4.198-1.43-5.608zm-0.5 0.682c0.25 1.469 0.52 3.461 0.75 5.431-0.3 0.124-0.58 0.249-0.87 0.372 0.23-2.182 0.23-4.312 0.12-5.803zm16.36-9.471c0.05-0.054 0.1-0.108 0.16-0.162-0.44 0.435-0.9 0.874-1.39 1.319-7.06 6.343-13.7 7.296-20.66 8.82-0.35 0.215-0.47 8.558-9.06 8.396-7.34-0.139-8.129 3.994-8.314 6.037-0.359 3.964 2.717 6.495 6.1 7.03-0.704-0.533-1.327-1.198-1.813-2.014 2.781 1.367 2.52 1.463 4.539 1.998 0.252-0.043 0.498-0.098 0.748-0.168-1.668-0.802-3.455-1.901-4.594-3.133-4.931-1.057-4.925-5.709-2.193-7.613 5.063-3.53 7.477 2.229 11.847-2.509 3.03-3.29 4.08-7.294 4.81-8.421-0.52 1.084-1.44 3.869-1.48 7.78-0.24 0.106-0.23 0.1-0.05 0.022 0.17-0.076 0.5-0.219 0.91-0.397 0.49-1.802 1.11-3.939 1.67-5.705 0.18-0.589 0.37-1.138 0.53-1.62-0.43 1.669-0.88 4.283-1 6.802 1.96-0.848 4.33-1.863 6.86-2.936-0.43-1.75-1.31-3.399-2.3-4.685 1.41 1.396 2.2 2.729 2.95 4.408 0.42-0.176 0.84-0.353 1.26-0.532-0.29-1.457-0.98-3.082-2.49-4.348 0 0 1.95 1.339 3.5 3.923 1.99-0.841 4.01-1.692 5.94-2.503-0.7-0.421-1.26-0.896-1.58-1.448 0.72 0.246 1.74 0.564 2.88 0.901 0.61-0.253 1.2-0.5 1.78-0.744-1.93-1.123-3.72-2.457-4.71-3.875 2.02-0.223 5.17 1.077 7.86 2.555 0.04-0.014 0.25-0.117 0.56-0.274-1.97-1.554-4.04-3.121-5.14-3.903 2.87 0.881 5.09 2.077 6.65 3.144 0.22-0.111 0.45-0.227 0.68-0.344-0.63-0.788-1.36-1.633-2.21-2.477-0.54-0.542-1.14-1.084-1.79-1.608 0.15 0.541 0.27 1.013 0.38 1.384-0.74-1.076-1.35-2.116-1.84-3.1z"/>
   <path id="Fill-102" sketch:type="MSShapeGroup" fill="#EFB4C4" d="m136.1 25.651c1.14 1.376 2.09 2.601 2.72 3.886v0.003c0 0.001-0.17 0.091-0.45 0.235-0.75-0.817-1.76-1.648-2.99-2.524-0.47-0.331-0.96-0.672-1.5-1.014 0.57 0.679 1.11 1.329 1.62 1.961 0.18 0.258 0.9 1.288 1.54 2.258-0.12 0.059-0.24 0.119-0.36 0.183-0.66-0.761-1.38-1.557-1.8-1.871-0.9-0.666-2.04-1.202-3.35-1.741-0.19-0.722-0.41-1.563-0.63-2.444-0.03 0.028-0.06 0.058-0.09 0.086-0.1 0.108-0.21 0.221-0.32 0.331 1.35-1.431 2.69-3.185 3.32-4.279 1.57 2.099 3.15 4.31 3.97 5.597 0.28-1.871-1.43-4.506-3.36-6.755-0.05 0.099 0.2-0.441 0.35-0.814-0.01 0.018-0.02 0.036-0.02 0.054 1.39 1.066 1.77 1.634 3.86 3.834-0.39-2.122-1.76-3.866-3.41-5.154-0.01 0.043-0.03 0.086-0.04 0.129 0.09-0.306 0.18-0.616 0.25-0.929-0.03 0.115-0.05 0.232-0.08 0.346 1.33 0.78 2.58 1.79 4.25 3.107 0 0-1.05-3.211-3.9-4.87 0.02-0.135 0.04-0.271 0.05-0.409 0 0.03 0 0.059-0.01 0.088 0.77 0.243 1.67 0.601 2.6 1.121 3.58 4.401 2.17 9.629 1.03 12.339-0.79-0.855-1.85-1.776-3.25-2.754"/>
   <path id="Fill-103" sketch:type="MSShapeGroup" fill="#EFB4C4" d="m99.094 53.631c0.906 0.935 1.866 1.782 2.716 2.464-0.04 0.025-0.09 0.051-0.13 0.074-1.2-0.731-2.584-1.601-3.856-2.432 0.459-0.001 0.881-0.038 1.27-0.106"/>
   <path id="Fill-104" sketch:type="MSShapeGroup" fill="#EFB4C4" d="m102.01 51.885c0.65 0.948 1.21 1.886 1.61 2.717-0.05 0.058-0.1 0.112-0.14 0.166-0.55-0.692-1.24-1.471-2-2.244 0.21-0.2 0.39-0.415 0.53-0.639"/>
   <path id="Fill-105" sketch:type="MSShapeGroup" fill="#EFB4C4" d="m99.475 48.096c-2.276-0.046-3.297 2.554-0.325 3.901-8.082 0.187-5.109-6.827 2.09-5.295 1.62 0.347 3.79 1.855 3.71 4.442-0.76-1.147-1.84-2.326-3.2-3.473 1.26 1.867 2.14 3.878 2.73 5.486-0.05 0.102-0.1 0.202-0.14 0.3-0.46-0.84-1.11-1.883-1.93-2.881 0.03-1.266-0.97-2.439-2.935-2.48"/>
   <path id="Fill-106" sketch:type="MSShapeGroup" fill="#700B31" d="m138.46 31.047v-0.003c-0.01-0.013-0.01-0.021-0.01-0.021s-0.21 0.127-0.5 0.302c-0.08 0.049-0.17 0.102-0.26 0.156-0.18-0.303-0.41-0.659-0.65-1.025-0.64-0.97-1.36-2-1.54-2.258-0.51-0.632-1.05-1.282-1.62-1.961 0.54 0.342 1.03 0.683 1.5 1.014 1.23 0.876 2.24 1.707 2.99 2.524 0.07 0.077 0.14 0.152 0.2 0.228v0.001c0.44 0.514 0.77 1.021 0.97 1.53-0.15-0.698-0.4-1.352-0.72-1.994v-0.003c-0.63-1.285-1.58-2.51-2.72-3.886 1.4 0.978 2.46 1.899 3.25 2.754 3.16 3.429 1.95 5.864 0.27 7.102v0.001c-0.04-2.443-1.03-4.241-1.16-4.461"/>
   <path id="Fill-107" sketch:type="MSShapeGroup" fill="#700B31" d="m138.13 32.324c-0.06-0.046-0.31-0.332-0.64-0.722 0.07-0.041 0.14-0.081 0.2-0.121 0.26 0.427 0.44 0.751 0.44 0.843"/>
   <path id="Fill-108" sketch:type="MSShapeGroup" fill="#700B31" d="m130.9 24.568c0.22 0.882 0.44 1.737 0.63 2.459 1.31 0.539 2.45 1.075 3.35 1.741 0.42 0.314 1.14 1.11 1.8 1.871 0.29 0.344 0.58 0.68 0.81 0.963-0.45 0.276-0.93 0.571-1.11 0.678 0 0 0-0.001-0.01-0.001-0.21-0.289-0.43-0.587-0.67-0.899v-0.001c-0.05-0.057-0.1-0.116-0.14-0.174-0.63-0.788-1.36-1.633-2.21-2.477-0.54-0.542-1.14-1.084-1.79-1.608 0.15 0.541 0.27 1.013 0.38 1.384-0.74-1.076-1.35-2.116-1.84-3.1 0.05-0.054 0.77-0.807 0.8-0.836"/>
   <path id="Fill-109" sketch:type="MSShapeGroup" fill="#700B31" d="m133.41 32.336v-0.001c-0.01-0.009-0.03-0.019-0.04-0.027-1.97-1.554-4.04-3.121-5.14-3.903 2.87 0.881 5.09 2.077 6.65 3.144 0.05 0.035 0.11 0.071 0.16 0.105v0.001c0.4 0.275 0.75 0.542 1.06 0.791v0.002c-0.35 0.211-0.74 0.445-1.14 0.689-0.11 0.063-0.21 0.124-0.32 0.188-0.39-0.317-0.81-0.653-1.23-0.989"/>
   <path id="Fill-110" sketch:type="MSShapeGroup" fill="#700B31" d="m137.94 39.615c-0.47-0.952-1.11-1.872-1.88-2.845-1.38-0.305-3.21-0.76-5.03-1.251-0.01 0-0.01-0.001-0.01-0.001 0.27-0.159 0.53-0.318 0.79-0.476v0.003c1.57 0.76 3.09 1.356 4.25 1.723-0.26-0.339-0.55-0.683-0.84-1.039 1.4 0.978 2.46 1.9 3.25 2.754 0.17 0.189 0.49 0.508 0.48 0.507-0.01 0.026-0.02 0.059-0.03 0.089-0.08 0.217-0.23 0.519-0.38 0.777-0.04 0.079-0.09 0.15-0.12 0.215-0.1 0.164-0.17 0.28-0.17 0.28-0.01-0.002-0.01-0.003-0.01-0.005-0.09-0.233-0.18-0.499-0.3-0.728v-0.003"/>
   <path id="Fill-111" sketch:type="MSShapeGroup" fill="#700B31" d="m134.22 38.714c-0.45-0.33-0.96-0.68-1.52-0.977 0.4-0.016 0.87-0.041 1.42-0.076 0.17 0.206 0.34 0.414 0.5 0.615 0.24 0.343 1.22 1.675 1.91 2.79-0.77-0.907-1.72-1.914-2.31-2.352zm2.64 6.389c-0.17-0.499-0.42-1.006-0.72-1.529-0.23-0.391-0.62-1.086-0.91-1.497v-0.005l2.65-1.171 0.21-0.3c-0.13-0.176-0.25-0.342-0.39-0.519l-0.01-0.001c-0.68-0.804-1.63-1.617-2.8-2.47 0.49-0.033 1.03-0.071 1.64-0.115-0.58-0.019-1.26-0.07-2-0.148-0.01-0.005-0.02-0.012-0.03-0.019-0.46-0.331-0.96-0.672-1.49-1.014 0.27 0.323 0.53 0.636 0.79 0.947-1.37-0.177-2.87-0.451-4.24-0.853-0.05 0.027-0.09 0.053-0.13 0.08-0.47 0.282-0.94 0.568-1.42 0.86 1.73 0.269 2.47 0.407 3.7 0.409 0.34 0.305 0.67 0.608 0.98 0.916 0.25 0.242 0.48 0.483 0.7 0.722-0.1 0.022-0.2 0.042-0.3 0.06-0.8 0.133-1.61 0.195-2.49 0.224-0.11 0.004-0.22 0.007-0.33 0.008-0.86 0.019-1.79 0.014-2.84 0.019 0 0 1.95 1.293 4.49 1.455 0.44 0.032 0.91 0.022 1.39-0.034 0.32-0.04 0.65-0.092 0.99-0.18-0.61 0.423-1.38 0.71-2.11 0.906-0.04 0.009-0.08 0.019-0.11 0.028-0.04 0.011-0.09 0.02-0.13 0.031-0.16 0.038-0.32 0.075-0.49 0.108 0 0.002-0.01 0.002-0.01 0.003-0.17 0.036-0.35 0.068-0.53 0.096-0.01 0.001-0.02 0.004-0.04 0.006-0.22 0.035-0.42 0.06-0.57 0.076-1.04-0.489-2.22-0.959-3.53-1.361 0.92 0.653 2.52 1.861 4.18 3.149 0.37-0.169 0.73-0.332 1.08-0.493 0.13-0.058 0.25-0.114 0.37-0.17-0.43-0.257-0.89-0.513-1.39-0.771 0.66 0.091 1.46 0.139 2.28 0.104 0.24-0.009 0.48-0.032 0.72-0.056 0.27-0.118 0.51-0.226 0.75-0.332 0.4 0.385 0.98 0.956 1.27 1.364 0.34 0.47 0.62 0.96 0.82 1.467z"/>
   <path id="Fill-112" sketch:type="MSShapeGroup" fill="#EFB4C4" d="m90.98 66.285l7.674-3.742 0.555 0.559-8.115 4.072-0.114-0.889"/>
   <path id="Fill-113" sketch:type="MSShapeGroup" fill="#EFB4C4" d="m90.24 64.68l7.219-3.291 0.557 0.556-7.657 3.619h-0.004l-0.115-0.884"/>
   <path id="Fill-114" sketch:type="MSShapeGroup" fill="#CA975E" d="m44.678 13.953c-1.239-3.596 1.119-7.531 1.119-7.531-1.686 8.544 3.603 11.804 3.603 11.804s-3.49-0.671-4.722-4.273zm-3.379 5.286c-4.047-1.236-3.371-7.534-3.371-7.534 1.465 6.185 10.123 7.984 10.123 7.984s-2.701 0.787-6.752-0.45zm28.949 6.921c-21.494-4.056-27.799-16.667-19.723-24.761-0.453-0.156-7.838 1.568-9.058 9.93 0.084-0.174-2.883-5.294-8.928-4.658-5.975 0.63-7 6.373-7 6.373s5.277-4.917 9.449-2.06c4.112 2.799-3.306 11.993 14.119 10.342 0.838 0.511 1.75 1.005 2.758 1.47 12.531 5.792 27.059 3.17 29.332 16.354 0 0 1.778-10.589-10.949-12.99z"/>
   <path id="Fill-115" sketch:type="MSShapeGroup" fill="#700B31" d="m52.031 25.997c-0.412 0.032-0.947 0.209-1.531 0.446-0.397-1.254-0.94-2.261-1.68-2.05-0.625 0.178-0.564 0.975-0.021 2.836-0.912 0.45-1.737 0.88-2.172 1.001-0.973 0.271-1.129 0.901-0.973 1.211 0.078 0.168 1.85-0.212 3.586-0.692 0.49 1.882 0.445 2.904 1.344 2.767 1.018-0.157 0.976-0.353 0.781-1.176-0.07-0.28-0.195-1.134-0.402-2.105 0.76-0.246 1.371-0.475 1.617-0.633 0.898-0.588 0.898-1.722-0.549-1.605"/>
   <path id="Fill-116" sketch:type="MSShapeGroup" fill="#EFB4C4" d="m60.758 30.46c-0.373-0.223-1.1-0.557-1.926-0.871 0.203-0.695 0.412-1.675-0.578-1.829-0.479-0.078-0.85 0.433-1.186 1.236-1.236-0.355-2.332-0.522-2.533-0.142-0.228 0.441-0.588 1.056 0.08 1.369 0.246 0.117 0.977 0.393 1.819 0.695-0.254 1.064-0.311 2.16 0.488 2.359 0.65 0.164 1.094-0.791 1.379-1.72 0.773 0.261 1.406 0.453 1.56 0.466 0.43 0.039 2.073-0.86 0.897-1.563"/>
   <path id="Fill-117" sketch:type="MSShapeGroup" fill="#700B31" d="m68.156 30.89c-0.269 0.077-0.918 0.313-1.683 0.617-0.276-1.323-0.735-2.353-1.489-1.673-0.273 0.245-0.332 1.271-0.254 2.391-1.205 0.512-2.3 1.031-2.484 1.249-0.391 0.472-0.549 0.626-0.117 1.017 0.195 0.179 1.461-0.223 2.799-0.732 0.195 1.054 0.496 1.908 0.838 1.908 0.861 0 1.099-0.238 1.099-0.587 0-0.127-0.035-1.013-0.15-2.035 0.883-0.37 1.572-0.681 1.68-0.746 0.31-0.196 0.583-1.643-0.239-1.409"/>
   <path id="Fill-118" sketch:type="MSShapeGroup" fill="#EFB4C4" d="m75.387 35.611c-0.223-0.182-0.784-0.512-1.45-0.865 0.352-0.963 0.434-1.822-0.392-1.859-0.248-0.009-0.686 0.475-1.104 1.132-0.91-0.405-1.734-0.679-1.951-0.535-0.498 0.322-0.623 0.575-0.42 0.881 0.084 0.121 0.776 0.584 1.623 1.094-0.349 0.852-0.504 1.641-0.144 1.862 0.887 0.546 0.779 0.364 1.012 0.054 0.066-0.094 0.335-0.504 0.634-1.049 0.891 0.485 1.655 0.84 1.78 0.74 0.308-0.262 1.084-0.909 0.412-1.455"/>
   <path id="Fill-119" sketch:type="MSShapeGroup" fill="#700B31" d="m79.311 38.833c-0.26-0.021-0.633-0.087-1.063-0.166-0.057-1.129-0.309-2.122-1.063-1.647-0.201 0.122-0.371 0.695-0.458 1.378-0.774-0.119-1.456-0.174-1.647-0.002-0.34 0.304-0.238 1.222 0.195 1.316 0.147 0.032 0.719 0.168 1.401 0.299 0.056 0.639 0.215 1.145 0.525 1.232 0.873 0.241 0.912 0.065 0.949-0.115 0.008-0.042 0.045-0.376 0.08-0.833 0.815 0.127 1.5 0.178 1.553 0.021 0.139-0.395 0.518-1.401-0.472-1.483"/>
   <path id="Fill-120" sketch:type="MSShapeGroup" fill="#EFB4C4" d="m44.693 25.479c0.809-0.866 0.641-1.47 0.641-1.47-0.225-0.305-0.924-0.07-1.604 0.28-0.023-0.027-0.048-0.057-0.076-0.084-1.687-1.83-2.033-1.483-2.033-1.483-0.584 0.447 0.115 1.595 0.795 2.421-0.01 0.004-0.023 0.016-0.035 0.023-0.586 0.518-1.416 0.966-1.174 1.448 0.228 0.46 0.541 0.904 2.244-0.166 0.527 0.836 1.051 1.807 1.479 1.579 0.476-0.251 0.867-0.953-0.237-2.548"/>
   <path id="Fill-121" sketch:type="MSShapeGroup" fill="#EFB4C4" d="m53.945 56.809h-0.002l3.328 2.048c0-0.002 0.002-0.003 0.002-0.005l-3.328-2.043"/>
   <path id="Fill-122" sketch:type="MSShapeGroup" fill="#EFB4C4" d="m62.354 35.851c-0.637-0.154-1.27-0.303-1.901-0.442 1.109 1.376 2.15 3.296 3.305 5.438-0.401-1.995-0.846-3.677-1.404-4.996"/>
   <path id="Fill-123" sketch:type="MSShapeGroup" fill="#EFB4C4" d="m64.354 36.358c-0.329-0.089-0.651-0.167-0.977-0.251 0.6 0.847 1.156 1.816 1.746 2.907-0.236-1.005-0.49-1.886-0.769-2.656"/>
   <path id="Fill-124" sketch:type="MSShapeGroup" fill="#EFB4C4" d="m45.037 42.461c-0.82 1.17-2.174 2.285-3.707 3.269 0.666 0.31 1.352 0.629 2.033 0.953 0.582-1.401 1.944-3.037 4.51-4.886l0.002-0.001c-2.949-1.785-6.022-3.646-8.768-5.307 0.465 0.282 0.94 0.568 1.418 0.86-1.738 0.269-2.468 0.407-3.701 0.409-0.342 0.305-0.672 0.608-0.982 0.916-0.244 0.242-0.477 0.483-0.701 0.722 0.103 0.022 0.205 0.042 0.304 0.06 0.799 0.133 1.61 0.195 2.492 0.224 0.108 0.004 0.217 0.007 0.329 0.008 0.857 0.019 1.785 0.014 2.839 0.019 0 0-1.951 1.293-4.488 1.455-0.451 0.032-0.912 0.022-1.394-0.034-0.323-0.04-0.653-0.092-0.987-0.18 0.606 0.423 1.381 0.71 2.112 0.906 0.037 0.009 0.072 0.019 0.109 0.028 0.041 0.011 0.084 0.02 0.123 0.031 0.16 0.038 0.324 0.075 0.492 0.108 0.004 0.002 0.008 0.002 0.01 0.003 0.174 0.036 0.352 0.068 0.533 0.096 0.01 0.001 0.024 0.004 0.035 0.006 0.186 0.029 0.379 0.055 0.575 0.076 1.041-0.489 2.216-0.959 3.527-1.361-0.922 0.653-2.524 1.861-4.184 3.149 0.276 0.125 0.551 0.252 0.836 0.383 2.379-1.188 4.914-2.1 6.633-1.912"/>
   <path id="Fill-125" sketch:type="MSShapeGroup" fill="#EFB4C4" d="m30.648 40.901c-0.007 0.011 1.86 0.82 2.653 1.176 0.002-0.001 0.002-0.004 0.004-0.005l-2.657-1.171"/>
   <path id="Fill-126" sketch:type="MSShapeGroup" fill="#EFB4C4" d="m34.318 38.714c0.444-0.33 0.957-0.68 1.514-0.977-0.406-0.016-0.871-0.041-1.422-0.076-0.168 0.206-0.34 0.414-0.5 0.615-0.236 0.343-1.213 1.675-1.908 2.79 0.767-0.907 1.725-1.914 2.316-2.352"/>
   <path id="Fill-127" sketch:type="MSShapeGroup" fill="#EFB4C4" d="m30.06 38.483c0.795-0.854 1.856-1.776 3.254-2.754-0.295 0.356-0.576 0.7-0.843 1.039 1.168-0.367 2.681-0.963 4.252-1.723-0.928-0.564-1.791-1.086-2.571-1.558-0.857 0.52-1.625 1.036-2.226 1.476 0.552-0.484 1.232-1.045 1.961-1.636-0.108-0.065-0.209-0.128-0.313-0.19-0.408-0.244-0.793-0.478-1.142-0.689-0.528 0.43-0.914 0.803-1.17 1.081 0.261-0.367 0.564-0.792 0.896-1.249-0.18-0.107-0.664-0.402-1.121-0.678-0.33 0.39-0.572 0.676-0.633 0.722-0.004-0.092 0.174-0.416 0.436-0.843-0.09-0.054-0.178-0.107-0.258-0.156-0.316-0.191-0.496-0.302-0.496-0.302s-0.004 0.008-0.012 0.021c0 0.001-0.002 0.002-0.002 0.002-0.127 0.221-1.115 2.019-1.154 4.462 0-0.001-0.002-0.001-0.002-0.001-0.008 0.502 0.025 1.03 0.113 1.578v0.001c0.106 0.659 0.293 1.319 0.584 1.993-0.01-0.03-0.023-0.063-0.031-0.089-0.006 0.001 0.305-0.318 0.478-0.507"/>
   <path id="Fill-128" sketch:type="MSShapeGroup" fill="#EFB4C4" d="m30.84 40.081c0.685-0.804 1.637-1.617 2.801-2.47-0.487-0.033-1.026-0.071-1.639-0.115 0.58-0.019 1.266-0.07 2-0.148 0.01-0.005 0.017-0.012 0.027-0.019 0.469-0.331 0.965-0.672 1.496-1.014-0.267 0.323-0.529 0.636-0.787 0.947 1.367-0.177 2.862-0.451 4.239-0.853-0.065-0.039-0.131-0.08-0.198-0.119-0.238-0.144-0.47-0.286-0.703-0.426-0.191-0.117-0.383-0.232-0.57-0.345-1.819 0.491-3.651 0.946-5.037 1.251-0.768 0.973-1.409 1.893-1.877 2.845-0.002 0.001-0.002 0.002-0.002 0.002-0.113 0.23-0.207 0.496-0.301 0.729 0.053 0.085 0.102 0.17 0.158 0.255 0.123-0.176 0.242-0.342 0.391-0.519l0.002-0.001"/>
   <path id="Fill-129" sketch:type="MSShapeGroup" fill="#EFB4C4" d="m46.213 55.979c0.549-0.276 1.133-0.546 1.767-0.8-0.55 0.43-1.05 0.875-1.527 1.327 0.334 0.586 0.852 1.023 1.469 1.332 0.637-0.293 1.33-0.572 2.07-0.832-0.957-0.412-1.504-0.777-1.504-0.777 0.61 0.322 1.225 0.531 1.824 0.669 0.256-0.095 0.52-0.183 0.788-0.263-0.133 0.095-0.288 0.207-0.45 0.324 1.192 0.203 2.327 0.088 3.293-0.15l-2.291-1.409c-1.113-0.151-2.179-0.434-3.367-0.946 0.799 0.229 1.674 0.39 2.574 0.46l-2.425-1.487c-0.202-0.014-0.415-0.028-0.637-0.046 0.166-0.006 0.342-0.014 0.525-0.024 0 0 0.002 0 0.002-0.001l-5.924-3.637c-3.595 0.548-3.175 0.624-8.941 0.212 1.896-0.064 4.851-0.422 7.34-1.193 0.002 0 0.002-0.001 0.004-0.001l-1.45-0.889h-0.001c-1.956 0.529-3.961 1.036-5.45 1.362 0.311-0.099 0.647-0.213 1.002-0.343 0.25-0.09 0.512-0.19 0.78-0.296 0.876-0.346 1.837-0.766 2.812-1.249l-2.586-1.589s-0.002 0-0.002 0.001c-0.98 0.589-1.857 1.172-2.533 1.663 0.623-0.543 1.398-1.182 2.23-1.849 0 0 0-0.001 0.002-0.001l-1.443-0.885c-0.67 0.522-1.152 0.979-1.447 1.306 0.314-0.444 0.672-0.963 1.092-1.526l-0.541-0.331 0.541 0.331c0.373-0.498 0.791-1.036 1.259-1.591 0.34 0.16 0.686 0.313 1.055 0.476 0.428-0.257 0.891-0.513 1.385-0.771-0.653 0.091-1.453 0.139-2.272 0.104-0.242-0.009-0.482-0.032-0.728-0.056-0.262-0.118-0.51-0.226-0.748-0.332-0.401 0.385-0.973 0.956-1.268 1.364-0.342 0.47-0.619 0.96-0.818 1.467 0.166-0.499 0.418-1.006 0.72-1.529l-1.533-0.94c0 0.002-0.002 0.004-0.002 0.005v-0.006s-1.845 7.346 8.344 11.751c0.305 0.727 0.627 1.41 0.957 2.067 0.774-0.801 1.775-1.662 3.076-2.572-1.049 1.265-1.931 2.396-2.564 3.564 0.101 0.186 0.203 0.366 0.306 0.543 1.028-1.119 2.567-2.278 4.469-3.522-1.472 1.766-2.801 3.372-3.668 4.845-0.136-0.209-0.271-0.422-0.404-0.639 0.303 0.494 0.611 0.969 0.93 1.42-0.153-0.219-0.305-0.444-0.455-0.674 0.91-1.26 2.335-2.41 4.363-3.437"/>
   <path id="Fill-130" sketch:type="MSShapeGroup" fill="#EFB4C4" d="m59.322 49.629c-1.33 0.457-3.644 1.141-5.982 1.768 0.597 0.286 1.168 0.558 1.707 0.815 1.945-0.591 3.613-1.435 4.275-2.583"/>
   <path id="Fill-131" sketch:type="MSShapeGroup" fill="#EFB4C4" d="m44.984 46.18c-0.435 0.151-0.974 0.323-1.59 0.514 0.374 0.174 0.75 0.351 1.125 0.529-0.105-0.051-0.21-0.101-0.312-0.149 0.322-0.275 0.592-0.572 0.777-0.894"/>
   <path id="Fill-132" sketch:type="MSShapeGroup" fill="#EFB4C4" d="m32.158 32.279v0.001c0.09 0.056 0.182 0.113 0.274 0.168 0.002 0 0.002-0.002 0.003-0.002-0.095-0.057-0.187-0.112-0.277-0.167"/>
   <path id="Fill-133" sketch:type="MSShapeGroup" fill="#EFB4C4" d="m49.57 49.605c0.992 0.472 1.953 0.929 2.867 1.363 1.846-0.891 3.764-2.01 5.233-3.255 0.008 0.003-1.613-0.976-1.94-1.172-2.089 0.728-4.371 1.94-6.16 3.064"/>
   <path id="Fill-134" sketch:type="MSShapeGroup" fill="#EFB4C4" d="m57.777 59.162v0.002l0.864 0.527-0.864-0.529"/>
   <path id="Fill-135" sketch:type="MSShapeGroup" fill="#EFB4C4" d="m36.49 43.497c-0.123-0.058-0.248-0.114-0.367-0.17-0.002 0.001-0.002 0.001-0.002 0.002 0.121 0.056 0.244 0.11 0.369 0.168"/>
   <path id="Fill-136" sketch:type="MSShapeGroup" fill="#EFB4C4" d="m50.861 54.915s0-0.001-0.002-0.001l0.793 0.486-0.791-0.485"/>
   <path id="Fill-137" sketch:type="MSShapeGroup" fill="#EFB4C4" d="m46.252 48.037c0.447 0.211 0.892 0.421 1.336 0.63 0.933-1.31 2.226-3.005 3.986-4.631 0.25 0.15 0.49 0.293 0.735 0.439-0.413-0.248-0.832-0.502-1.258-0.76-2.449 1.26-3.981 2.713-4.799 4.322"/>
   <path id="Fill-138" sketch:type="MSShapeGroup" fill="#CA975E" d="m65.531 61.875c-2.463 3.674-1.941 3.322-5.597 6.846 0.621 0.007 1.248 0 1.878-0.024 1.985-1.672 3.672-4.078 3.719-6.822"/>
   <path id="Fill-139" sketch:type="MSShapeGroup" fill="#CA975E" d="m66.902 64.18c-1.791 1.976-2.994 3.379-4.599 4.498 0.842-0.041 1.689-0.102 2.543-0.184 0.097 0.098 0.195 0.188 0.293 0.283-0.073-0.068-0.143-0.136-0.215-0.209 1.625-2.011 1.978-4.388 1.978-4.388"/>
   <path id="Fill-140" sketch:type="MSShapeGroup" fill="#EFB4C4" d="m49.477 42.766c-2.374 1.626-4.053 3.114-4.663 4.592 0 0-0.001 0-0.001 0.001 0.47 0.222 0.941 0.443 1.41 0.665 0.677-1.54 1.992-3.217 3.535-5.088 0.31 0.185 0.611 0.368 0.912 0.549-0.879-0.531-1.783-1.079-2.701-1.634-0.002 0.001-0.002 0.002-0.002 0.002 0.508 0.308 1.017 0.612 1.51 0.913"/>
   <path id="Fill-141" sketch:type="MSShapeGroup" fill="#EFB4C4" d="m38.404 44.373c0.039 0.019 0.08 0.037 0.119 0.056-0.037-0.019-0.08-0.038-0.119-0.056"/>
   <path id="Fill-142" sketch:type="MSShapeGroup" fill="#EFB4C4" d="m53.535 45.217c-0.176 0.075-0.344 0.151-0.512 0.228-2.498 1.12-4.263 2.393-5.275 3.299 0.533 0.251 1.062 0.503 1.584 0.749 1.295-1.055 2.797-2.228 4.121-3.241 0.012-0.005 0.018-0.014 0.025-0.018 0.266-0.201 0.53-0.397 0.77-0.585 0.24 0.143 0.473 0.284 0.703 0.422-0.453-0.273-0.924-0.556-1.41-0.851v0.002s-0.004-0.005-0.006-0.005"/>
   <path id="Fill-143" sketch:type="MSShapeGroup" fill="#CA975E" d="m53.08 63.215c0.252-0.168 0.475-0.35 0.672-0.535-0.244 1.945-0.006 3.549 0.629 4.869-0.608-1.115-0.992-2.602-1.301-4.334zm-1.279 2.812c-0.069-0.16-0.135-0.324-0.199-0.492-0.159-0.433-0.286-0.896-0.403-1.375 0.34-0.129 0.662-0.273 0.963-0.418-0.025 0.606-0.025 1.18 0.016 1.707 0.011 0.102 0.027 0.199 0.041 0.303 0.082 0.752 0.236 1.408 0.504 1.945-0.381-0.523-0.674-1.078-0.922-1.67zm12.301-7.642c-0.981 2.32-3.563 7.441-5.172 10.256 1.373-2.996 3.293-9.121 2.449-12.787-0.19 0.171-0.377 0.376-0.553 0.597 0.254 1.037 0.072 2.252-1.621 3.018-1.082 2.767-1.76 6.234-1.977 8.349 0.043-2.328 0.311-6.064 0.549-8.654l-0.506-0.307c-1.55 4.004-1.679 7.221-1.546 8.495-0.448-1.957-1.186-5.127-0.916-8.803-0.485 1.306-0.801 2.506-0.981 3.597-0.265 0.083-0.566 0.176-0.883 0.276-0.117-0.733-0.228-1.498-0.345-2.301-0.016 0.014-0.034 0.027-0.051 0.047-0.137 0.873-0.242 1.701-0.309 2.467-0.406 0.127-0.84 0.252-1.289 0.381-0.082-0.483-0.166-0.993-0.244-1.512-0.027 0.023-0.057 0.035-0.084 0.053-0.063 0.562-0.111 1.093-0.133 1.586-1.39 0.398-2.896 0.804-4.305 1.16 0.395 0.322 0.801 0.615 1.211 0.894 1.049-0.195 2.104-0.453 3.081-0.781 0.007 0.459 0.033 0.885 0.078 1.287 0.039 0.315 0.082 0.613 0.138 0.895 0.032 0.15 0.063 0.298 0.1 0.435 2.795 1.151 5.818 1.629 8.969 1.684 2.173-2.789 5.185-7.709 4.34-10.332z"/>
   <path id="Fill-144" sketch:type="MSShapeGroup" fill="#EFB4C4" d="m53.535 45.216c-0.037-0.023-0.074-0.045-0.111-0.068l0.111 0.069v-0.001"/>
   <path id="Fill-145" sketch:type="MSShapeGroup" fill="#CA975E" d="m65.439 69.068c0.186 0.18 0.37 0.352 0.553 0.526 0.645-0.801 1.106-1.569 1.279-2.004-0.609 0.582-1.23 1.068-1.832 1.478"/>
   <path id="Fill-146" sketch:type="MSShapeGroup" fill="#CA975E" d="m50.623 61.557c0.014-0.121 0.027-0.235 0.035-0.358 0.02 0.106 0.033 0.205 0.049 0.305 0.658-0.422 1.277-0.871 1.842-1.336 0.008-0.076 0.017-0.141 0.031-0.221 0.006 0.059 0.01 0.116 0.02 0.174 0.718-0.598 1.334-1.223 1.787-1.867-0.033-0.008-0.069-0.004-0.108-0.008-0.564 0.152-1.465 0.291-2.465 0.309-2.546 0.681-5.607 2.326-7.757 3.722 0.679 0.75 1.386 1.422 2.121 2.02-0.108-0.09-0.209-0.18-0.315-0.274 1.53-0.646 3.235-1.496 4.76-2.466"/>
   <path id="Fill-147" sketch:type="MSShapeGroup" fill="#CA975E" d="m47.922 57.838c-2.301 1.045-3.971 2.217-4.992 3.092 0.33 0.431 0.672 0.84 1.019 1.228 1.526-1.258 3.428-2.742 4.998-3.928-0.363-0.101-0.705-0.232-1.025-0.392"/>
   <path id="Fill-148" sketch:type="MSShapeGroup" fill="#700B31" d="m45.037 42.461c-1.719-0.188-4.254 0.724-6.633 1.912 0.039 0.018 0.082 0.037 0.119 0.056 0.901 0.417 1.842 0.848 2.807 1.301 1.533-0.984 2.887-2.099 3.707-3.269"/>
   <path id="Fill-149" sketch:type="MSShapeGroup" fill="#700B31" d="m41.33 45.73c-0.906 0.578-1.873 1.116-2.832 1.591l-0.002 0.001c-0.975 0.483-1.936 0.903-2.812 1.249-0.268 0.106-0.53 0.206-0.78 0.296-0.355 0.13-0.691 0.244-1.002 0.343 1.489-0.326 3.494-0.833 5.45-1.362h0.001c1.44-0.393 2.887-0.793 4.043-1.153 0.006-0.005-1.4-0.655-2.066-0.965"/>
   <path id="Fill-150" sketch:type="MSShapeGroup" fill="#700B31" d="m38.404 44.373c-0.285-0.131-0.56-0.258-0.836-0.383-0.656 0.517-1.322 1.044-1.961 1.557-0.002 0-0.002 0.001-0.002 0.001-0.832 0.667-1.607 1.306-2.23 1.849 0.676-0.491 1.553-1.074 2.533-1.663 0-0.001 0.002-0.001 0.002-0.001 0.783-0.463 1.621-0.926 2.494-1.36"/>
   <path id="Fill-151" sketch:type="MSShapeGroup" fill="#700B31" d="m43.262 49.592c-0.209-0.517-0.297-1.105-0.213-1.761-0.66 0.35-1.426 0.647-2.246 0.906-0.002 0-0.002 0.001-0.004 0.001-2.489 0.771-5.444 1.129-7.34 1.193 5.766 0.412 5.346 0.336 8.941-0.212 0 0 0-0.001 0.002-0.001 0.26-0.038 0.545-0.082 0.86-0.126"/>
   <path id="Fill-152" sketch:type="MSShapeGroup" fill="#700B31" d="m36.123 43.327c-0.369-0.163-0.715-0.316-1.055-0.476-0.468 0.555-0.886 1.093-1.259 1.591-0.42 0.563-0.778 1.082-1.092 1.526 0.295-0.327 0.777-0.784 1.447-1.306 0.533-0.416 1.189-0.867 1.957-1.333 0-0.001 0-0.001 0.002-0.002"/>
   <path id="Fill-153" sketch:type="MSShapeGroup" fill="#700B31" d="m43.363 46.683c0.01 0.001 0.018 0.003 0.026 0.012 0.002 0 0.004-0.001 0.005-0.001 0.616-0.191 1.155-0.363 1.59-0.514-0.185 0.322-0.455 0.619-0.777 0.894 0.102 0.048 0.207 0.098 0.312 0.149 0.094 0.043 0.294 0.135 0.294 0.136 0-0.001 0.001-0.001 0.001-0.001 0.61-1.478 2.289-2.966 4.663-4.592 0.003 0.007-1.596-0.973-1.602-0.97l-0.002 0.001c-2.566 1.849-3.928 3.485-4.51 4.886"/>
   <path id="Fill-154" sketch:type="MSShapeGroup" fill="#700B31" d="m56.9 55.587c-2.121-0.003-3.726 0.022-5.248-0.187l2.291 1.409h0.002c1.746-0.424 2.955-1.222 2.955-1.222"/>
   <path id="Fill-155" sketch:type="MSShapeGroup" fill="#700B31" d="m53.541 45.222v-0.002-0.005s-0.004 0.001-0.006 0.001v0.001c0.002 0 0.006 0.005 0.006 0.005"/>
   <path id="Fill-156" sketch:type="MSShapeGroup" fill="#700B31" d="m57.975 57.205c-0.262 0.561-0.493 1.108-0.702 1.647 0 0.002-0.002 0.003-0.002 0.005l0.506 0.307v-0.002c0.071-0.777 0.141-1.459 0.198-1.957"/>
   <path id="Fill-157" sketch:type="MSShapeGroup" fill="#700B31" d="m60.824 56.453c-0.611 0.77-1.152 1.826-1.619 3.016 1.693-0.766 1.875-1.979 1.619-3.016"/>
   <path id="Fill-158" sketch:type="MSShapeGroup" fill="#700B31" d="m53.478 46.234c-0.007 0.004-0.013 0.013-0.025 0.018-1.324 1.013-2.826 2.186-4.121 3.241-0.002 0-0.002 0.001-0.002 0.001-0.596 0.485-1.145 0.947-1.615 1.353 0.515-0.369 1.142-0.803 1.853-1.241l0.002-0.001c1.789-1.124 4.071-2.336 6.16-3.064-0.002-0.001-0.003-0.002-0.005-0.003-0.018-0.011-0.036-0.021-0.055-0.033-0.232-0.141-0.473-0.285-0.719-0.434-0.23-0.138-0.463-0.279-0.703-0.422-0.24 0.188-0.504 0.384-0.77 0.585"/>
   <path id="Fill-159" sketch:type="MSShapeGroup" fill="#700B31" d="m50.951 63.016c0.449-0.129 0.883-0.254 1.289-0.381 0.067-0.766 0.172-1.594 0.309-2.467-0.565 0.465-1.184 0.914-1.842 1.336 0.078 0.519 0.162 1.029 0.244 1.512"/>
   <path id="Fill-160" sketch:type="MSShapeGroup" fill="#700B31" d="m54.279 58.246c0.039 0.004 0.075 0 0.108 0.008-0.453 0.644-1.069 1.269-1.787 1.867 0.117 0.803 0.228 1.568 0.345 2.301 0.317-0.1 0.618-0.193 0.883-0.276 0.18-1.091 0.496-2.291 0.981-3.597-0.27 3.676 0.468 6.846 0.916 8.803-0.133-1.274-0.004-4.491 1.546-8.495l-3.328-2.048c-0.966 0.238-2.101 0.353-3.293 0.15 0.162-0.117 0.317-0.229 0.45-0.324-0.268 0.08-0.532 0.168-0.788 0.263-0.599-0.138-1.214-0.347-1.824-0.669 0 0 0.547 0.365 1.504 0.777-0.74 0.26-1.433 0.539-2.07 0.832 0.32 0.16 0.662 0.291 1.025 0.392-1.57 1.186-3.472 2.67-4.998 3.928v0.002c0.033 0.041 0.069 0.082 0.104 0.121 0.002 0 0.002-0.002 0.004-0.004 2.15-1.396 5.211-3.041 7.757-3.722 1-0.018 1.901-0.157 2.465-0.309"/>
   <path id="Fill-161" sketch:type="MSShapeGroup" fill="#700B31" d="m58.965 59.572c-0.102 0.043-0.207 0.084-0.324 0.119l-0.864-0.527c-0.238 2.59-0.506 6.326-0.549 8.654 0.217-2.115 0.895-5.582 1.977-8.349-0.078 0.035-0.156 0.07-0.24 0.103"/>
   <path id="Fill-162" sketch:type="MSShapeGroup" fill="#700B31" d="m33.887 33.325v0.002c-0.729 0.591-1.409 1.152-1.961 1.636 0.601-0.44 1.369-0.956 2.226-1.476l0.002-0.001c-0.088-0.053-0.183-0.109-0.267-0.161"/>
   <path id="Fill-163" sketch:type="MSShapeGroup" fill="#700B31" d="m31.262 33.529c0.256-0.278 0.642-0.651 1.17-1.081-0.092-0.055-0.184-0.112-0.274-0.168-0.332 0.457-0.635 0.882-0.896 1.249"/>
   <path id="Fill-164" sketch:type="MSShapeGroup" fill="#700B31" d="m53.752 62.68c-0.197 0.185-0.42 0.367-0.672 0.535 0.309 1.732 0.693 3.219 1.301 4.334-0.635-1.32-0.873-2.924-0.629-4.869"/>
   <path id="Fill-165" sketch:type="MSShapeGroup" fill="#700B31" d="m52.178 65.449c-0.041-0.527-0.041-1.101-0.016-1.707-0.301 0.145-0.623 0.289-0.963 0.418 0.117 0.479 0.244 0.942 0.403 1.375 0.064 0.168 0.13 0.332 0.199 0.492 0.248 0.592 0.541 1.147 0.922 1.67-0.268-0.537-0.422-1.193-0.504-1.945-0.014-0.104-0.03-0.201-0.041-0.303"/>
   <path id="Fill-166" sketch:type="MSShapeGroup" fill="#700B31" d="m46.223 48.024v0.001c-0.071 0.172-0.155 0.352-0.209 0.523 0.068-0.173 0.152-0.34 0.236-0.508l0.002-0.003c0.818-1.609 2.35-3.062 4.799-4.322-0.125-0.075-0.254-0.153-0.381-0.23-0.301-0.181-0.602-0.364-0.912-0.549-1.543 1.871-2.858 3.548-3.535 5.088"/>
   <path id="Fill-167" sketch:type="MSShapeGroup" fill="#700B31" d="m47.588 48.667v0.002c-0.195 0.266-0.371 0.518-0.529 0.747 0.164-0.186 0.4-0.416 0.689-0.672 1.012-0.906 2.777-2.179 5.275-3.299 0.168-0.077 0.336-0.153 0.512-0.228l-0.111-0.069c-0.199-0.119-0.401-0.239-0.604-0.366-0.166-0.099-0.342-0.205-0.511-0.307-0.245-0.146-0.485-0.289-0.735-0.439-1.76 1.626-3.053 3.321-3.986 4.631"/>
   <path id="Fill-168" sketch:type="MSShapeGroup" fill="#700B31" d="m48.902 38.121c0.291-1.457 0.977-3.082 2.491-4.348 0 0-1.948 1.339-3.495 3.923v0.001c0.334 0.141 0.668 0.284 1.004 0.424"/>
   <path id="Fill-169" sketch:type="MSShapeGroup" fill="#700B31" d="m51.652 55.4l-0.793-0.486c-0.9-0.07-1.775-0.231-2.574-0.46 1.188 0.512 2.254 0.795 3.367 0.946"/>
   <path id="Fill-170" sketch:type="MSShapeGroup" fill="#700B31" d="m50.809 38.931v-0.001c0.431-1.75 1.31-3.399 2.306-4.685-1.412 1.396-2.201 2.729-2.955 4.408 0.02 0.009 0.041 0.019 0.065 0.028 0.193 0.084 0.392 0.169 0.584 0.25"/>
   <path id="Fill-171" sketch:type="MSShapeGroup" fill="#700B31" d="m52.863 39.801c0.328-2.099 0.916-4.198 1.428-5.608-1.443 2.96-1.99 4.119-2.344 5.216 0.307 0.135 0.615 0.263 0.916 0.392"/>
   <path id="Fill-172" sketch:type="MSShapeGroup" fill="#700B31" d="m54.045 40.306c0.295 0.124 0.582 0.249 0.869 0.372-0.23-2.182-0.234-4.312-0.119-5.803-0.25 1.469-0.52 3.461-0.75 5.431"/>
   <path id="Fill-173" sketch:type="MSShapeGroup" fill="#700B31" d="m58.076 42.041c0.188 0.081 0.371 0.16 0.549 0.239 0.084 0.036 0.17 0.074 0.25 0.111l-0.002-0.001c-0.488-1.802-1.107-3.94-1.668-5.706-0.187-0.589-0.367-1.138-0.535-1.62 0.432 1.669 0.879 4.283 1 6.802v0.001c0.139 0.059 0.271 0.115 0.406 0.174"/>
   <path id="Fill-174" sketch:type="MSShapeGroup" fill="#700B31" d="m50.555 65.703c-0.045-0.402-0.071-0.828-0.078-1.287-0.977 0.328-2.032 0.586-3.081 0.781-0.002 0.002-0.003 0.002-0.005 0.002 0.195 0.135 0.392 0.264 0.587 0.389 0.008 0.006 0.016 0.01 0.022 0.012 0.191 0.123 0.383 0.24 0.578 0.353 0.107 0.063 0.219 0.119 0.328 0.178 0.104 0.058 0.207 0.117 0.313 0.17 0.119 0.064 0.238 0.125 0.359 0.183 0.143 0.073 0.287 0.143 0.432 0.209 0.062 0.03 0.123 0.061 0.187 0.088 0.039 0.022 0.082 0.039 0.123 0.057 0.108 0.049 0.215 0.094 0.324 0.135 0.049 0.021 0.1 0.043 0.149 0.062v-0.002c-0.037-0.137-0.068-0.285-0.1-0.435-0.056-0.282-0.099-0.58-0.138-0.895"/>
   <path id="Fill-175" sketch:type="MSShapeGroup" fill="#700B31" d="m46.453 56.506c0.477-0.452 0.977-0.897 1.527-1.327-0.634 0.254-1.218 0.524-1.767 0.8-2.028 1.027-3.453 2.177-4.363 3.437 0.15 0.23 0.302 0.455 0.455 0.674 0.009 0.014 0.017 0.025 0.027 0.037 0.148 0.213 0.299 0.42 0.453 0.623 0.045 0.066 0.098 0.123 0.141 0.184l0.004-0.004c1.021-0.875 2.691-2.047 4.992-3.092-0.617-0.309-1.135-0.746-1.469-1.332"/>
   <path id="Fill-176" sketch:type="MSShapeGroup" fill="#700B31" d="m50.623 61.557c-1.525 0.97-3.23 1.82-4.76 2.466 0.106 0.094 0.207 0.184 0.315 0.274 0.002 0.004 0.004 0.004 0.007 0.006 1.409-0.356 2.915-0.762 4.305-1.16 0.022-0.493 0.07-1.024 0.133-1.586"/>
   <path id="Fill-177" sketch:type="MSShapeGroup" fill="#700B31" d="m41.949 35.193c0.701-0.421 1.26-0.896 1.582-1.448-0.717 0.246-1.736 0.564-2.883 0.901-0.002 0.001-0.004 0.001-0.005 0.001-0.979 0.284-2.055 0.582-3.135 0.871 0.187 0.114 0.377 0.23 0.568 0.346 0.233 0.14 0.465 0.282 0.703 0.426 0.067 0.039 0.131 0.079 0.198 0.119 1.111-0.322 2.144-0.725 2.972-1.215v-0.001"/>
   <path id="Fill-178" sketch:type="MSShapeGroup" fill="#700B31" d="m38.875 33.902c1.932-1.123 3.713-2.457 4.709-3.875-2.022-0.223-5.17 1.077-7.865 2.555 0 0.001-0.002 0.001-0.002 0.001-0.547 0.3-1.069 0.603-1.563 0.903 0.78 0.474 1.643 0.996 2.573 1.556 0.716-0.345 1.439-0.729 2.148-1.139v-0.001"/>
   <path id="Fill-179" sketch:type="MSShapeGroup" fill="#700B31" d="m40.16 56.451c-0.002 0-0.002 0.002-0.002 0.002 0.065 0.135 0.131 0.262 0.195 0.393 0.104 0.203 0.209 0.402 0.319 0.599v-0.002c0.633-1.168 1.515-2.299 2.564-3.564-1.301 0.91-2.302 1.771-3.076 2.572"/>
   <path id="Fill-180" sketch:type="MSShapeGroup" fill="#700B31" d="m45.447 54.464c-1.902 1.244-3.441 2.403-4.469 3.522-0.001 0.002-0.003 0.004-0.003 0.004 0.127 0.225 0.255 0.444 0.386 0.656 0.004 0.006 0.01 0.016 0.014 0.024 0.133 0.217 0.268 0.43 0.404 0.639 0.867-1.473 2.196-3.079 3.668-4.845"/>
   <path id="Fill-181" sketch:type="MSShapeGroup" fill="#700B31" d="m29.922 22.637c2.086-2.2 2.472-2.768 3.863-3.834-0.008-0.018-0.014-0.036-0.019-0.054-0.02-0.049-0.036-0.097-0.053-0.145-0.063-0.166-0.125-0.332-0.182-0.499-0.054-0.165-0.105-0.329-0.156-0.493-0.014-0.043-0.029-0.086-0.043-0.129-1.65 1.288-3.016 3.032-3.41 5.154"/>
   <path id="Fill-182" sketch:type="MSShapeGroup" fill="#700B31" d="m30.748 26.318c0.822-1.287 2.402-3.498 3.975-5.597-0.164-0.286-0.313-0.573-0.459-0.861-0.049-0.099-0.1-0.198-0.149-0.297-1.937 2.249-3.638 4.884-3.367 6.755"/>
   <path id="Fill-183" sketch:type="MSShapeGroup" fill="#700B31" d="m28.957 20.136c1.67-1.317 2.914-2.327 4.244-3.107-0.029-0.114-0.051-0.231-0.078-0.346-0.035-0.155-0.074-0.308-0.105-0.464-0.014-0.07-0.026-0.14-0.038-0.209-0.046-0.247-0.089-0.494-0.123-0.746-0.002 0.001-0.002 0.002-0.004 0.002-2.851 1.659-3.896 4.87-3.896 4.87"/>
   <path id="Fill-184" sketch:type="MSShapeGroup" fill="#700B31" d="m32.801 14.857c-0.016-0.13-0.03-0.261-0.043-0.391-0.024-0.236-0.045-0.473-0.059-0.713-0.234 0.167-0.453 0.336-0.666 0.508-0.031 0.023-0.06 0.048-0.09 0.071-0.213 0.175-0.414 0.351-0.605 0.529-0.012 0.012-0.026 0.023-0.037 0.034-0.19 0.179-0.369 0.362-0.543 0.545-0.031 0.033-0.061 0.066-0.09 0.099-0.141 0.152-0.274 0.305-0.402 0.459-0.018 0.023-0.041 0.047-0.061 0.071l0.006-0.003c0.935-0.52 1.83-0.878 2.599-1.121-0.003-0.029-0.005-0.058-0.009-0.088"/>
   <path id="Fill-185" sketch:type="MSShapeGroup" fill="#700B31" d="m52.549 60.168c0.017-0.02 0.035-0.033 0.051-0.047-0.01-0.058-0.014-0.115-0.02-0.174-0.014 0.08-0.023 0.145-0.031 0.221"/>
   <path id="Fill-186" sketch:type="MSShapeGroup" fill="#700B31" d="m50.623 61.557c0.027-0.018 0.057-0.03 0.084-0.053-0.016-0.1-0.029-0.199-0.049-0.305-0.008 0.123-0.021 0.237-0.035 0.358"/>
   <path id="Fill-187" sketch:type="MSShapeGroup" fill="#700B31" d="m79.35 61.881c0.015-0.096 0.025-0.188 0.033-0.277 0.105-1.424-0.727-1.985-1.424-1.829-0.654 0.147-1.188 0.922-0.721 2.204-2.133-0.643-4.136-3.051-4.136-3.051s1.205 0.984 4.56-0.131c2.451-0.815 3.025 1.437 3.025 1.437l0.061 0.235c-0.412 0.713-0.893 1.162-1.398 1.412zm-12.496-5.712c-0.045-0.023-0.09-0.049-0.133-0.074 0.857-0.682 1.812-1.529 2.718-2.464 0.389 0.068 0.811 0.105 1.27 0.106-1.272 0.831-2.652 1.701-3.855 2.432zm-1.795-1.401c-0.047-0.054-0.096-0.108-0.141-0.166 0.391-0.831 0.951-1.769 1.605-2.717 0.139 0.224 0.317 0.439 0.53 0.639-0.762 0.773-1.45 1.552-1.994 2.244zm-0.864-1.311c-0.047-0.098-0.093-0.198-0.136-0.3 0.587-1.608 1.462-3.619 2.724-5.486-1.365 1.147-2.439 2.326-3.201 3.473-0.082-2.587 2.088-4.095 3.711-4.442 7.199-1.532 10.172 5.482 2.09 5.295 2.972-1.347 1.951-3.947-0.326-3.901-1.961 0.041-2.959 1.214-2.934 2.48-0.822 0.998-1.467 2.041-1.928 2.881zm19.297 12.729c-1.633-2.672-1.764-4.192-1.217-7.067 0.539-2.832 3.1-14.05-14.015-21.497-1.289-0.56-2.614-0.906-3.895-1.261-0.004-0.002-0.008-0.002-0.011-0.003 0.279 0.77 0.533 1.651 0.769 2.656-0.59-1.091-1.146-2.06-1.746-2.907-0.002-0.002-0.002-0.004-0.004-0.006-0.25-0.07-0.506-0.129-0.758-0.19-0.088-0.021-0.176-0.046-0.263-0.065 0 0.001 0.002 0.003 0.002 0.005 0.558 1.319 1.003 3.001 1.404 4.996-1.155-2.142-2.196-4.062-3.305-5.438 0-0.001-0.002-0.002-0.002-0.003-0.045-0.005-0.086-0.015-0.129-0.028 0 0.001 0.002 0.002 0.002 0.003 0.344 0.215 0.469 8.558 9.059 8.396 7.338-0.139 8.129 3.994 8.312 6.037 0.362 3.964-2.715 6.495-6.099 7.03 0.705-0.533 1.326-1.198 1.812-2.014-2.779 1.367-2.517 1.463-4.537 1.998-0.252-0.043-0.502-0.098-0.746-0.168 1.666-0.802 3.453-1.901 4.592-3.133 4.929-1.057 4.926-5.709 2.193-7.613-5.062-3.53-7.478 2.229-11.844-2.509-3.033-3.29-4.086-7.294-4.816-8.421 0.525 1.084 1.441 3.869 1.479 7.78 0.242 0.106 0.23 0.1 0.052 0.022 0.455 0.202 0.863 0.384 1.225 0.548 0.023 0.01 0.047 0.021 0.07 0.031 0.104 0.048 0.205 0.094 0.301 0.138 0.004 0.002 0.008 0.003 0.012 0.005 0.408 0.187 0.73 0.34 0.953 0.452 0.012 0.006 0.023 0.012 0.035 0.018 0.043 0.021 0.082 0.042 0.117 0.06 0.047 0.025 0.09 0.049 0.121 0.068-0.004 0.022-0.004 0.046-0.002 0.073 0.082 0.843 3.006 4.335-1.789 5.416-0.047-0.014-1.25-0.741-3.154-1.882-1.469 1.245-3.387 2.364-5.233 3.255h-0.002c-1.546 0.743-3.044 1.331-4.191 1.691 1.393-0.305 3.25-0.768 5.092-1.261 0.002 0 0.002 0 0.004-0.001 2.338-0.627 4.652-1.311 5.982-1.768-0.662 1.148-2.33 1.992-4.275 2.583-2.25 0.687-4.858 1.037-6.723 1.144 0 0.001-0.002 0.001-0.002 0.001-0.183 0.01-0.359 0.018-0.525 0.024 0.222 0.018 0.435 0.032 0.637 0.046l2.425 1.487h0.002c2.239 0.188 4.641-0.205 6.479-1.604 1.553 0.747 2.504 1.2 2.504 1.2s0.717 0.879 0.98 1.943l0.002-0.002c0.176-0.221 0.363-0.426 0.553-0.597 0.844 3.666-1.076 9.791-2.449 12.787 1.609-2.815 4.191-7.936 5.172-10.256 0.845 2.623-2.167 7.543-4.34 10.332 0 0-0.002 0-0.002 0.002 0.056 0 0.115 0.006 0.17 0.006 0.002-0.002 0.002-0.004 0.004-0.004 3.656-3.524 3.134-3.172 5.597-6.846-0.047 2.744-1.734 5.15-3.719 6.822 0.026 0 0.051-0.002 0.077-0.002h0.062c0.113-0.004 0.229-0.006 0.342-0.011 0.004-0.002 0.008-0.006 0.01-0.006 1.605-1.119 2.808-2.522 4.599-4.498 0 0-0.353 2.377-1.978 4.388 0.072 0.073 0.142 0.141 0.215 0.209 0.099 0.098 0.201 0.194 0.299 0.291h0.001c0.602-0.41 1.223-0.896 1.832-1.478-0.173 0.435-0.634 1.203-1.279 2.004h-0.002c0.022 0.019 0.041 0.037 0.063 0.056 0.3 0.284 0.595 0.557 0.884 0.825 0.049 0.045 0.098 0.089 0.149 0.134 0.301 0.274 0.598 0.541 0.889 0.797 0.017 0.016 0.035 0.032 0.052 0.047 0.301 0.262 0.594 0.516 0.883 0.76 0.029 0.023 0.057 0.047 0.086 0.072 0.281 0.235 0.557 0.461 0.828 0.678 0.033 0.025 0.065 0.053 0.098 0.078 0.267 0.215 0.529 0.42 0.789 0.615 0.029 0.024 0.058 0.045 0.09 0.069 0.258 0.195 0.513 0.382 0.763 0.56 0.024 0.018 0.047 0.033 0.071 0.049 0.254 0.18 0.504 0.354 0.748 0.516 0.013 0.007 0.027 0.017 0.041 0.025 0.252 0.166 0.5 0.324 0.74 0.473 0.025 0.015 0.053 0.033 0.078 0.048 0.182 0.11 0.36 0.211 0.535 0.311 0.047 0.025 0.094 0.053 0.139 0.078 0.162 0.088 0.318 0.168 0.475 0.248 0.056 0.029 0.113 0.061 0.169 0.086 0.147 0.072 0.288 0.139 0.43 0.201 0.063 0.028 0.125 0.059 0.186 0.084 0.133 0.059 0.263 0.11 0.392 0.159 0.067 0.027 0.131 0.052 0.196 0.078 0.123 0.043 0.244 0.084 0.363 0.121 0.066 0.021 0.131 0.043 0.195 0.062 0.115 0.031 0.229 0.063 0.34 0.09 0.065 0.016 0.129 0.031 0.193 0.045 0.108 0.023 0.213 0.043 0.319 0.059 0.062 0.009 0.125 0.021 0.185 0.029 0.104 0.014 0.203 0.023 0.301 0.031 0.061 0.004 0.121 0.008 0.18 0.01 0.095 0.004 0.189 0.006 0.281 0.002 0.059-0.002 0.115-0.004 0.172-0.008 0.09-0.004 0.18-0.012 0.268-0.023 0.052-0.006 0.107-0.016 0.162-0.026 0.084-0.015 0.168-0.031 0.25-0.051 0.052-0.013 0.103-0.029 0.154-0.044 0.078-0.024 0.158-0.049 0.234-0.079 0.051-0.019 0.098-0.039 0.147-0.06 0.074-0.031 0.148-0.065 0.219-0.102 0.046-0.025 0.093-0.052 0.14-0.08 0.069-0.039 0.135-0.082 0.201-0.125 0.045-0.031 0.09-0.066 0.135-0.101 0.063-0.047 0.123-0.094 0.182-0.145 0.047-0.041 0.092-0.084 0.134-0.127 0.055-0.051 0.11-0.103 0.161-0.16 0.049-0.051 0.093-0.105 0.138-0.16 0.045-0.053 0.092-0.108 0.137-0.166 0.049-0.067 0.098-0.135 0.147-0.205 0.033-0.053 0.068-0.102 0.103-0.157 0.57-1.005-0.234-1.832-0.088-2.416 0.02-0.212 0.444-1.414 0.444-1.414s0.275-0.238 0.427-0.773c0.045-0.152-0.121-0.463-0.105-0.666 0.488-0.512 0.027-1.262 0.008-2.543-0.01-0.588 1.927-0.736 1.601-1.273z"/>
   <path id="Fill-188" sketch:type="MSShapeGroup" fill="#CA975E" d="m52.863 39.801c-0.301-0.129-0.609-0.257-0.916-0.392 0.354-1.097 0.901-2.256 2.344-5.216-0.512 1.41-1.1 3.509-1.428 5.608zm2.051 0.877c-0.287-0.123-0.574-0.248-0.869-0.372 0.23-1.97 0.5-3.962 0.75-5.431-0.115 1.491-0.111 3.621 0.119 5.803zm-18.32-12.174c0.107-0.371 0.232-0.843 0.383-1.384-0.651 0.524-1.25 1.066-1.797 1.608-0.854 0.844-1.58 1.689-2.205 2.477 0.23 0.117 0.459 0.233 0.679 0.344 1.561-1.067 3.776-2.263 6.649-3.144-1.1 0.782-3.174 2.349-5.143 3.903 0.315 0.157 0.524 0.26 0.559 0.274 2.695-1.478 5.843-2.778 7.865-2.555-0.996 1.418-2.777 2.752-4.709 3.875 0.576 0.244 1.168 0.491 1.773 0.744 1.147-0.337 2.166-0.655 2.883-0.901-0.322 0.552-0.881 1.027-1.582 1.448 1.934 0.811 3.955 1.662 5.949 2.503 1.547-2.584 3.495-3.923 3.495-3.923-1.514 1.266-2.2 2.891-2.491 4.348 0.422 0.179 0.84 0.356 1.258 0.532 0.754-1.679 1.543-3.012 2.955-4.408-0.996 1.286-1.875 2.935-2.306 4.685 2.531 1.073 4.908 2.088 6.861 2.936-0.121-2.519-0.568-5.133-1-6.802 0.168 0.482 0.348 1.031 0.535 1.62 0.561 1.766 1.18 3.903 1.668 5.705 0.408 0.178 0.734 0.321 0.908 0.397 0.178 0.078 0.19 0.084-0.052-0.022-0.038-3.911-0.954-6.696-1.479-7.78 0.73 1.127 1.783 5.131 4.816 8.421 4.366 4.738 6.782-1.021 11.844 2.509 2.733 1.904 2.736 6.556-2.193 7.613-1.139 1.232-2.926 2.331-4.592 3.133 0.244 0.07 0.494 0.125 0.746 0.168 2.02-0.535 1.758-0.631 4.537-1.998-0.486 0.816-1.107 1.481-1.812 2.014 3.384-0.535 6.461-3.066 6.099-7.03-0.183-2.043-0.974-6.176-8.312-6.037-8.59 0.162-8.715-8.181-9.059-8.396-6.963-1.524-13.605-2.477-20.66-8.82-0.496-0.445-0.953-0.884-1.387-1.319 0.053 0.054 0.102 0.108 0.157 0.162-0.493 0.984-1.098 2.024-1.84 3.1z"/>
   <path id="Fill-189" sketch:type="MSShapeGroup" fill="#EFB4C4" d="m32.437 25.651c-1.148 1.376-2.089 2.601-2.724 3.886 0 0.001 0 0.002-0.002 0.003s0.172 0.091 0.455 0.235c0.744-0.817 1.756-1.648 2.984-2.524 0.471-0.331 0.965-0.672 1.498-1.014-0.566 0.679-1.109 1.329-1.617 1.961-0.178 0.258-0.892 1.288-1.533 2.258 0.117 0.059 0.236 0.119 0.359 0.183 0.655-0.761 1.373-1.557 1.797-1.871 0.897-0.666 2.039-1.202 3.35-1.741 0.193-0.722 0.408-1.563 0.633-2.444 0.025 0.028 0.056 0.058 0.084 0.086 0.101 0.108 0.213 0.221 0.322 0.331-1.352-1.431-2.695-3.185-3.32-4.279-1.573 2.099-3.153 4.31-3.975 5.597-0.271-1.871 1.43-4.506 3.367-6.755 0.049 0.099-0.201-0.441-0.349-0.814 0.005 0.018 0.011 0.036 0.019 0.054-1.391 1.066-1.777 1.634-3.863 3.834 0.394-2.122 1.76-3.866 3.41-5.154 0.014 0.043 0.029 0.086 0.043 0.129-0.096-0.306-0.178-0.616-0.252-0.929 0.027 0.115 0.049 0.232 0.078 0.346-1.33 0.78-2.574 1.79-4.244 3.107 0 0 1.045-3.211 3.896-4.87-0.017-0.135-0.035-0.271-0.052-0.409 0.004 0.03 0.006 0.059 0.009 0.088-0.769 0.243-1.664 0.601-2.599 1.121-3.572 4.401-2.174 9.629-1.027 12.339 0.794-0.855 1.853-1.776 3.253-2.754"/>
   <path id="Fill-190" sketch:type="MSShapeGroup" fill="#EFB4C4" d="m69.439 53.631c-0.906 0.935-1.861 1.782-2.718 2.464 0.043 0.025 0.088 0.051 0.133 0.074 1.203-0.731 2.583-1.601 3.855-2.432-0.459-0.001-0.881-0.038-1.27-0.106"/>
   <path id="Fill-191" sketch:type="MSShapeGroup" fill="#EFB4C4" d="m66.523 51.885c-0.654 0.948-1.214 1.886-1.605 2.717 0.045 0.058 0.094 0.112 0.141 0.166 0.544-0.692 1.232-1.471 1.994-2.244-0.213-0.2-0.391-0.415-0.53-0.639"/>
   <path id="Fill-192" sketch:type="MSShapeGroup" fill="#EFB4C4" d="m69.057 48.096c2.277-0.046 3.298 2.554 0.326 3.901 8.082 0.187 5.109-6.827-2.09-5.295-1.623 0.347-3.793 1.855-3.711 4.442 0.762-1.147 1.836-2.326 3.201-3.473-1.262 1.867-2.137 3.878-2.724 5.486 0.043 0.102 0.089 0.202 0.136 0.3 0.461-0.84 1.106-1.883 1.928-2.881-0.025-1.266 0.973-2.439 2.934-2.48"/>
   <path id="Fill-193" sketch:type="MSShapeGroup" fill="#700B31" d="m30.072 31.047s0.002-0.002 0.002-0.003c0.008-0.013 0.012-0.021 0.012-0.021s0.211 0.127 0.496 0.302c0.08 0.049 0.168 0.102 0.258 0.156 0.187-0.303 0.416-0.659 0.658-1.025 0.641-0.97 1.355-2 1.533-2.258 0.508-0.632 1.051-1.282 1.617-1.961-0.533 0.342-1.027 0.683-1.498 1.014-1.228 0.876-2.24 1.707-2.984 2.524-0.07 0.077-0.141 0.152-0.205 0.228l-0.002 0.001c-0.432 0.514-0.768 1.021-0.965 1.53 0.147-0.698 0.399-1.352 0.717-1.994 0.002-0.001 0.002-0.002 0.002-0.003 0.635-1.285 1.576-2.51 2.724-3.886-1.4 0.978-2.459 1.899-3.253 2.754h-0.002c-3.159 3.429-1.944 5.864-0.266 7.102 0 0 0.002 0 0.002 0.001 0.039-2.443 1.027-4.241 1.154-4.461"/>
   <path id="Fill-194" sketch:type="MSShapeGroup" fill="#700B31" d="m30.404 32.324c0.061-0.046 0.303-0.332 0.633-0.722-0.066-0.041-0.133-0.081-0.197-0.121-0.262 0.427-0.44 0.751-0.436 0.843"/>
   <path id="Fill-195" sketch:type="MSShapeGroup" fill="#700B31" d="m37.639 24.568c-0.225 0.882-0.442 1.737-0.635 2.459-1.311 0.539-2.453 1.075-3.35 1.741-0.424 0.314-1.142 1.11-1.797 1.871-0.298 0.344-0.582 0.68-0.82 0.963 0.457 0.276 0.941 0.571 1.121 0.678v-0.001c0.215-0.289 0.434-0.587 0.678-0.899l0.002-0.001h-0.002c0.045-0.057 0.094-0.116 0.139-0.174 0.625-0.788 1.351-1.633 2.205-2.477 0.547-0.542 1.146-1.084 1.797-1.608-0.151 0.541-0.276 1.013-0.383 1.384 0.742-1.076 1.347-2.116 1.84-3.1-0.055-0.054-0.77-0.807-0.795-0.836"/>
   <path id="Fill-196" sketch:type="MSShapeGroup" fill="#700B31" d="m35.125 32.336v-0.001c0.012-0.009 0.023-0.019 0.035-0.027 1.969-1.554 4.043-3.121 5.143-3.903-2.873 0.881-5.088 2.077-6.649 3.144-0.051 0.035-0.109 0.071-0.158 0.105l-0.002 0.001c-0.398 0.275-0.752 0.542-1.059 0.791-0.001 0-0.001 0.002-0.003 0.002 0.349 0.211 0.734 0.445 1.142 0.689 0.106 0.063 0.205 0.124 0.313 0.188 0.398-0.317 0.818-0.653 1.238-0.989"/>
   <path id="Fill-197" sketch:type="MSShapeGroup" fill="#700B31" d="m30.592 39.615c0.468-0.952 1.109-1.872 1.877-2.845 1.386-0.305 3.218-0.76 5.037-1.251 0.002 0 0.002-0.001 0.002-0.001-0.266-0.159-0.53-0.318-0.781-0.476-0.002 0.001-0.002 0.001-0.004 0.003-1.571 0.76-3.084 1.356-4.252 1.723 0.267-0.339 0.548-0.683 0.843-1.039-1.398 0.978-2.459 1.9-3.254 2.754-0.173 0.189-0.484 0.508-0.478 0.507 0.008 0.026 0.021 0.059 0.031 0.089 0.074 0.217 0.233 0.519 0.379 0.777 0.045 0.079 0.088 0.15 0.125 0.215 0.098 0.164 0.17 0.28 0.17 0.28 0-0.002 0-0.003 0.002-0.005 0.094-0.233 0.188-0.499 0.301-0.728 0 0 0-0.002 0.002-0.003"/>
   <path id="Fill-198" sketch:type="MSShapeGroup" fill="#700B31" d="m32.002 41.066c0.695-1.115 1.672-2.447 1.908-2.79 0.16-0.201 0.332-0.409 0.5-0.615 0.551 0.035 1.016 0.06 1.422 0.076-0.557 0.297-1.07 0.647-1.514 0.977-0.591 0.438-1.549 1.445-2.316 2.352zm0.49 2.57c0.295-0.408 0.867-0.979 1.268-1.364 0.238 0.106 0.486 0.214 0.748 0.332 0.246 0.024 0.486 0.047 0.728 0.056 0.819 0.035 1.619-0.013 2.272-0.104-0.494 0.258-0.957 0.514-1.385 0.771 0.119 0.056 0.244 0.112 0.367 0.17 0.352 0.161 0.707 0.324 1.078 0.493 1.66-1.288 3.262-2.496 4.184-3.149-1.311 0.402-2.486 0.872-3.527 1.361-0.155-0.016-0.35-0.041-0.575-0.076-0.011-0.002-0.025-0.005-0.035-0.006-0.181-0.028-0.359-0.06-0.533-0.096-0.002-0.001-0.006-0.001-0.01-0.003-0.168-0.033-0.332-0.07-0.492-0.108-0.039-0.011-0.082-0.02-0.123-0.031-0.037-0.009-0.072-0.019-0.109-0.028-0.731-0.196-1.506-0.483-2.112-0.906 0.334 0.088 0.664 0.14 0.987 0.18 0.482 0.056 0.943 0.066 1.394 0.034 2.537-0.162 4.488-1.455 4.488-1.455-1.054-0.005-1.982 0-2.839-0.019-0.112-0.001-0.221-0.004-0.329-0.008-0.882-0.029-1.693-0.091-2.492-0.224-0.099-0.018-0.201-0.038-0.304-0.06 0.224-0.239 0.457-0.48 0.701-0.722 0.31-0.308 0.64-0.611 0.982-0.916 1.233-0.002 1.963-0.14 3.701-0.409-0.478-0.292-0.953-0.578-1.418-0.86-0.043-0.027-0.087-0.053-0.13-0.08-1.377 0.402-2.872 0.676-4.239 0.853 0.258-0.311 0.52-0.624 0.787-0.947-0.531 0.342-1.027 0.683-1.496 1.014-0.01 0.007-0.017 0.014-0.027 0.019-0.734 0.078-1.42 0.129-2 0.148 0.613 0.044 1.152 0.082 1.639 0.115-1.164 0.853-2.116 1.666-2.801 2.47l-0.002 0.001c-0.149 0.177-0.268 0.343-0.391 0.519h-0.002l0.203 0.3 2.657 1.171c-0.002 0.001-0.002 0.004-0.004 0.005-0.289 0.411-0.68 1.106-0.907 1.497-0.302 0.523-0.554 1.03-0.72 1.529 0.199-0.507 0.476-0.997 0.818-1.467z"/>
   <path id="Fill-199" sketch:type="MSShapeGroup" fill="#EFB4C4" d="m77.551 66.285l-7.674-3.742-0.555 0.559 8.117 4.072 0.112-0.889"/>
   <g id="Group-203">
    <mask id="mask-2" sketch:name="Clip 201" fill="white">
     <use xlink:href="#path-1"/>
    </mask>
    <path id="Fill-200" sketch:type="MSShapeGroup" fill="#EFB4C4" mask="url(#mask-2)" d="m78.293 64.68l-7.221-3.291-0.554 0.556 7.656 3.619h0.004l0.115-0.884"/>
    <path id="Fill-202" sketch:type="MSShapeGroup" fill="#700B31" mask="url(#mask-2)" d="m0 89.049h2.271l2.318 7.773 2.408-7.773h1.951l2.408 7.773 2.318-7.773h2.134l-3.491 11.371h-1.921l-2.484-7.986-2.485 7.986h-1.921l-3.506-11.371"/>
   </g>
   <path id="Fill-204" sketch:type="MSShapeGroup" fill="#700B31" d="m24.092 96.441l-1.951-4.892-1.936 4.892h3.887zm-3.003-7.468h2.21l4.543 11.367h-2.241l-0.792-2.008h-5.321l-0.793 2.008h-2.133l4.527-11.367z"/>
   <path id="Fill-205" sketch:type="MSShapeGroup" fill="#700B31" d="m35.453 94.49c1.418 0 2.135-0.381 2.135-1.752 0-1.418-0.687-1.783-2.165-1.783h-3.095v3.535h3.125zm-0.381 1.922h-2.744v3.928h-2.118v-11.291h5.305c3.323 0 4.253 1.418 4.253 3.597 0 1.631-0.58 3.018-2.485 3.551l2.347 4.143h-2.332l-2.226-3.928z"/>
   <path id="Fill-206" sketch:type="MSShapeGroup" fill="#700B31" d="m47.943 94.49c1.418 0 2.134-0.381 2.134-1.752 0-1.418-0.685-1.783-2.164-1.783h-3.095v3.535h3.125zm-0.381 1.922h-2.744v3.928h-2.119v-11.291h5.305c3.323 0 4.253 1.418 4.253 3.597 0 1.631-0.579 3.018-2.485 3.551l2.348 4.143h-2.332l-2.226-3.928z"/>
   <path id="Fill-207" sketch:type="MSShapeGroup" fill="#700B31" d="m55.342 89.049h2.149v11.291h-2.149v-11.291z"/>
   <path id="Fill-208" sketch:type="MSShapeGroup" fill="#700B31" d="m69.932 94.719c0-2.393-1.006-3.826-3.719-3.826-2.714 0-3.72 1.433-3.72 3.826 0 2.408 1.006 3.842 3.72 3.842 2.713 0 3.719-1.434 3.719-3.842zm-9.619-0.03c0-4.193 2.287-5.824 5.9-5.824 3.597 0 5.914 1.631 5.914 5.824 0 4.207-2.317 5.841-5.914 5.841-3.613 0-5.9-1.634-5.9-5.841z"/>
   <path id="Fill-209" sketch:type="MSShapeGroup" fill="#700B31" d="m80.028 94.49c1.418 0 2.135-0.381 2.135-1.752 0-1.418-0.686-1.783-2.165-1.783h-3.095v3.535h3.125zm-0.381 1.922h-2.744v3.928h-2.118v-11.291h5.305c3.323 0 4.253 1.418 4.253 3.597 0 1.631-0.58 3.018-2.485 3.551l2.347 4.143h-2.332l-2.226-3.928z"/>
   <path id="Fill-210" sketch:type="MSShapeGroup" fill="#700B31" d="m86.191 99.064l1.098-1.601c1.236 0.824 2.623 1.189 4.041 1.189 2.24 0 2.805-0.472 2.805-1.554s-1.037-1.282-2.852-1.555c-2.865-0.428-4.451-0.93-4.451-3.354 0-2.439 1.479-3.324 4.543-3.324 2.164 0 3.537 0.504 4.42 1.082l-1.174 1.723c-0.73-0.486-2.027-0.867-3.262-0.867-1.828 0-2.377 0.394-2.377 1.34 0 1.021 0.991 1.22 2.85 1.494 2.652 0.412 4.451 0.838 4.451 3.353 0 2.272-1.295 3.52-4.892 3.52-2.104 0-3.873-0.5-5.2-1.446"/>
   <path id="Fill-211" sketch:type="MSShapeGroup" fill="#700B31" d="m103.47 89.049h2.15v11.291h-2.15v-11.291z"/>
   <path id="Fill-212" sketch:type="MSShapeGroup" fill="#700B31" d="m109.07 89.049h2.34l5.57 7.637v-7.637h2.09v11.291h-1.99l-5.93-8.09v8.09h-2.08v-11.291"/>
   <path id="Fill-213" sketch:type="MSShapeGroup" fill="#700B31" d="m131.92 94.781c1.5 0 2.18-0.535 2.18-1.937 0-1.448-0.65-1.889-2.2-1.889h-3.15v3.826h3.17zm-5.28-5.732h5.3c3.26 0 4.33 1.371 4.33 3.689 0 2.317-1.02 3.948-4.44 3.948h-3.08v3.654h-2.11v-11.291z"/>
   <path id="Fill-214" sketch:type="MSShapeGroup" fill="#700B31" d="m139.09 89.049h2.15v11.291h-2.15v-11.291z"/>
   <path id="Fill-215" sketch:type="MSShapeGroup" fill="#700B31" d="m144.69 89.049h2.35l5.56 7.637v-7.637h2.09v11.291h-1.98l-5.93-8.09v8.09h-2.09v-11.291"/>
   <path id="Fill-216" sketch:type="MSShapeGroup" fill="#700B31" d="m161.88 95.146l-1.76 2.043v3.151h-2.13v-11.291h2.13v5.381l4.62-5.381h2.44l-3.87 4.467 4.42 6.824h-2.45l-3.4-5.194"/>
   <path id="Fill-217" sketch:type="MSShapeGroup" fill="#700B31" d="m169.32 90.268c0.23 0 0.31-0.055 0.31-0.25 0-0.2-0.08-0.256-0.31-0.256h-0.44v0.506h0.44zm-0.04 0.263h-0.4v0.582h-0.3v-1.617h0.76c0.49 0 0.6 0.199 0.6 0.51 0 0.238-0.07 0.43-0.36 0.5l0.35 0.607h-0.32l-0.33-0.582zm1.04-0.23c0-0.655-0.32-1.158-1.1-1.158-0.79 0-1.11 0.503-1.11 1.158 0 0.652 0.32 1.152 1.11 1.152 0.78 0 1.1-0.5 1.1-1.152zm-2.4 0c0-0.764 0.43-1.34 1.3-1.34 0.86 0 1.3 0.576 1.3 1.34 0 0.762-0.44 1.338-1.3 1.338-0.87 0-1.3-0.576-1.3-1.338z"/>
   <g id="Group-222" fill="#700B31">
    <mask id="mask-4" sketch:name="Clip 219" fill="white">
     <use xlink:href="#path-3"/>
    </mask>
    <path id="Fill-218" sketch:type="MSShapeGroup" mask="url(#mask-4)" d="m45.09 111.38c0.715 0 1.064-0.26 1.064-0.96s-0.336-0.92-1.078-0.92h-1.541v1.88h1.555zm-2.381-2.65h2.381c1.4 0 1.912 0.58 1.912 1.65s-0.49 1.76-1.947 1.76h-1.52v1.78h-0.826v-5.19z"/>
    <path id="Fill-220" sketch:type="MSShapeGroup" mask="url(#mask-4)" d="m52.791 111.33c0-1.18-0.525-1.87-1.828-1.87-1.296 0-1.821 0.69-1.821 1.87 0 1.19 0.525 1.88 1.821 1.88 1.303 0 1.828-0.69 1.828-1.88zm-4.504-0.01c0-1.91 1.016-2.68 2.676-2.68s2.682 0.77 2.682 2.68-1.022 2.68-2.682 2.68-2.676-0.77-2.676-2.68z"/>
    <path id="Fill-221" sketch:type="MSShapeGroup" mask="url(#mask-4)" d="m54.776 108.73h0.883l1.169 3.81 1.198-3.81h0.756l1.205 3.81 1.162-3.81h0.834l-1.625 5.22h-0.756l-1.219-3.85-1.211 3.85h-0.764l-1.632-5.22"/>
   </g>
   <path id="Fill-223" sketch:type="MSShapeGroup" fill="#700B31" d="m63.526 108.73h3.663v0.81h-2.815v1.3h2.745v0.81h-2.745v1.47h2.844v0.8h-3.692v-5.19"/>
   <path id="Fill-224" sketch:type="MSShapeGroup" fill="#700B31" d="m71.312 111.25c0.679 0 1.05-0.19 1.05-0.87 0-0.69-0.357-0.88-1.064-0.88h-1.513v1.75h1.527zm-0.162 0.77h-1.365v1.9h-0.826v-5.19h2.374c1.415 0 1.884 0.61 1.884 1.61 0 0.8-0.308 1.41-1.197 1.62l1.126 1.96h-0.91l-1.086-1.9z"/>
   <path id="Fill-225" sketch:type="MSShapeGroup" fill="#700B31" d="m74.965 108.73h3.663v0.81h-2.817v1.3h2.747v0.81h-2.747v1.47h2.844v0.8h-3.69v-5.19"/>
   <path id="Fill-226" sketch:type="MSShapeGroup" fill="#700B31" d="m82.154 113.13c1.527 0 1.94-0.48 1.94-1.81 0-1.35-0.343-1.79-1.911-1.79h-0.94v3.6h0.911zm-1.758-4.4h1.772c2.003 0 2.78 0.56 2.78 2.59 0 1.99-0.833 2.6-2.836 2.6h-1.716v-5.19z"/>
   <path id="Fill-227" sketch:type="MSShapeGroup" fill="#700B31" d="m91.324 113.17c0.715 0 1.03-0.22 1.03-0.77 0-0.53-0.308-0.75-1.036-0.75h-1.548v1.52h1.554zm-0.035-2.29c0.736 0 0.926-0.29 0.926-0.72 0-0.44-0.246-0.67-0.926-0.67h-1.519v1.39h1.519zm-2.353-2.15h2.326c1.267 0 1.814 0.39 1.814 1.3 0 0.6-0.224 1-0.736 1.17 0.609 0.15 0.869 0.55 0.869 1.28 0 1.1-0.672 1.44-1.975 1.44h-2.298v-5.19z"/>
   <path id="Fill-228" sketch:type="MSShapeGroup" fill="#700B31" d="m96.329 112l-2.079-3.27h0.917l1.597 2.5 1.603-2.5h0.876l-2.073 3.26v1.93h-0.841v-1.92"/>
   <g id="Group-232" fill="#700B31">
    <mask id="mask-6" sketch:name="Clip 230" fill="white">
     <use xlink:href="#path-5"/>
    </mask>
    <path id="Fill-229" sketch:type="MSShapeGroup" mask="url(#mask-6)" d="m103.03 108.73h3.55v0.81h-2.7v1.39h2.64v0.81h-2.64v2.18h-0.85v-5.19"/>
    <path id="Fill-231" sketch:type="MSShapeGroup" mask="url(#mask-6)" d="m112.34 111.33c0-1.18-0.53-1.87-1.83-1.87-1.29 0-1.82 0.69-1.82 1.87 0 1.19 0.53 1.88 1.82 1.88 1.3 0 1.83-0.69 1.83-1.88zm-4.5-0.01c0-1.91 1.01-2.68 2.67-2.68s2.68 0.77 2.68 2.68-1.02 2.68-2.68 2.68-2.67-0.77-2.67-2.68z"/>
   </g>
   <path id="Fill-233" sketch:type="MSShapeGroup" fill="#700B31" d="m117.18 111.25c0.67 0 1.05-0.19 1.05-0.87 0-0.69-0.36-0.88-1.07-0.88h-1.51v1.75h1.53zm-0.16 0.77h-1.37v1.9h-0.83v-5.19h2.38c1.41 0 1.88 0.61 1.88 1.61 0 0.8-0.31 1.41-1.2 1.62l1.13 1.96h-0.91l-1.08-1.9z"/>
   <path id="Fill-234" sketch:type="MSShapeGroup" fill="#700B31" d="m122.59 113.13c1.52 0 1.94-0.48 1.94-1.81 0-1.35-0.35-1.79-1.92-1.79h-0.93v3.6h0.91zm-1.76-4.4h1.77c2 0 2.78 0.56 2.78 2.59 0 1.99-0.83 2.6-2.84 2.6h-1.71v-5.19z"/>
  </g>
 </g>
</svg>
