<?xml version="1.0" encoding="UTF-8" standalone="no"?>
<svg xmlns:sketch="http://www.bohemiancoding.com/sketch/ns" xmlns="http://www.w3.org/2000/svg" height="30px" width="198px" version="1.1" xmlns:xlink="http://www.w3.org/1999/xlink" viewBox="0 0 198 30"><!-- Generator: Sketch 3.3.1 (12002) - http://www.bohemiancoding.com/sketch -->
 <title>Imported Layers</title>
 <desc>Created with Sketch.</desc>
 <g id="PARTNERSHIPS-PAGE" fill-rule="evenodd" sketch:type="MSPage" fill="none">
  <g id="Desktop-Copy" transform="translate(-630 -12)" fill="#EA0B8C" sketch:type="MSArtboardGroup">
   <g id="warriors-bar" transform="translate(-27.385 -7)" sketch:type="MSLayerGroup">
    <g id="Imported-Layers" sketch:type="MSShapeGroup" transform="translate(656.61 18.576)">
     <path id="Fill-1" d="m0.85848 1.0673h2.6286l2.6807 8.9687 2.786-8.9687h2.2572l2.787 8.9687 2.681-8.9687h2.469l-4.038 13.121h-2.222l-2.876-9.2149-2.8746 9.2149h-2.2226l-4.0563-13.121"/>
     <path id="Fill-2" d="m25.258 0.97962h2.557l5.256 13.12h-2.593l-0.916-2.322h-6.155l-0.918 2.322h-2.469l5.238-13.12v-0.00038zm3.474 8.6169l-2.257-5.6446-2.24 5.6446h4.497z"/>
     <path id="Fill-3" d="m41.437 9.5631h-3.176v4.5369h-2.45v-13.033l6.138 0.0003c3.844 0 4.92 1.6362 4.92 4.1515 0 1.8808-0.67 3.4812-2.875 4.0962l2.715 4.785h-2.698l-2.574-4.5369zm0.44-2.2177c1.64 0 2.47-0.4396 2.47-2.0216 0-1.6361-0.794-2.0573-2.505-2.0573h-3.581v4.0789h3.616z"/>
     <path id="Fill-4" d="m55.888 9.5631h-3.175v4.5369h-2.453v-13.033l6.138 0.0003c3.845 0 4.921 1.6362 4.921 4.1515 0 1.8808-0.67 3.4812-2.874 4.0962l2.715 4.785h-2.698l-2.574-4.5369zm0.441-2.2177c1.64 0 2.467-0.4396 2.467-2.0216 0-1.6361-0.792-2.0573-2.503-2.0573h-3.58v4.0789h3.616z"/>
     <path id="Fill-5" d="m64.888 1.0673h2.486v13.033h-2.486v-13.033z"/>
     <path id="Fill-6" d="m70.64 7.575c0-4.8381 2.645-6.72 6.825-6.72 4.162 0 6.843 1.8819 6.843 6.72 0 4.855-2.681 6.736-6.843 6.736-4.18 0-6.825-1.881-6.825-6.736zm11.128 0.0346c0-2.7611-1.164-4.4146-4.303-4.4146-3.14 0-4.304 1.6535-4.304 4.4146 0 2.7784 1.164 4.4334 4.304 4.4334 3.139 0 4.303-1.655 4.303-4.4334z"/>
     <path id="Fill-7" d="m93.009 9.5631h-3.176v4.5369h-2.45v-13.033l6.138 0.0003c3.844 0 4.92 1.6362 4.92 4.1515 0 1.8808-0.671 3.4812-2.874 4.0962l2.715 4.785h-2.698l-2.575-4.5369zm0.441-2.2177c1.641 0 2.469-0.4396 2.469-2.0216 0-1.6361-0.794-2.0573-2.505-2.0573h-3.581v4.0789h3.617z"/>
     <path id="Fill-8" d="m100.58 12.623l1.27-1.847c1.43 0.951 3.03 1.372 4.68 1.372 2.59 0 3.24-0.545 3.24-1.793 0-1.2488-1.2-1.4796-3.3-1.7946-3.31-0.4939-5.15-1.0731-5.15-3.87 0-2.8142 1.71-3.8354 5.26-3.8354 2.5 0 4.09 0.5815 5.11 1.2485l-1.36 1.988c-0.84-0.5607-2.34-1.0003-3.77-1.0003-2.12 0-2.75 0.4546-2.75 1.5461 0 1.1781 1.15 1.4077 3.3 1.7239 3.07 0.4753 5.15 0.9669 5.15 3.8688 0 2.622-1.5 4.064-5.66 4.064-2.44 0-4.49-0.579-6.02-1.671"/>
     <path id="Fill-9" d="m120.57 1.0673h2.49v13.033h-2.49v-13.033z"/>
     <path id="Fill-10" d="m127.05 1.0673h2.71l6.44 8.8119v-8.8119h2.42v13.033h-2.3l-6.86-9.3392v9.3392h-2.41v-13.033"/>
     <path id="Fill-11" d="m147.37 1.0673h6.14c3.77 0 5.01 1.5819 5.01 4.2565 0 2.6735-1.18 4.5554-5.13 4.5554h-3.57v4.2208h-2.45v-13.033 0.0003zm6.12 6.6139c1.73 0 2.52-0.6174 2.52-2.235 0-1.6697-0.75-2.1797-2.55-2.1797h-3.64v4.4147h3.67z"/>
     <path id="Fill-12" d="m161.79 1.0673h2.48v13.033h-2.48v-13.033z"/>
     <path id="Fill-13" d="m168.26 1.0673h2.72l6.44 8.8119v-8.8119h2.41v13.033h-2.29l-6.86-9.3392v9.3392h-2.42v-13.033"/>
     <path id="Fill-14" d="m188.14 8.1035l-2.02 2.3565v3.64h-2.47v-13.033l2.47 0.0003v6.2089l5.34-6.2089h2.82l-4.48 5.1542 5.12 7.8785h-2.84l-3.94-5.9965"/>
     <path id="Fill-15" d="m195.14 2.5119c0-0.8815 0.5-1.5461 1.5-1.5461 1-0.00003 1.5 0.6646 1.5 1.5461 0 0.8793-0.5 1.5439-1.5 1.5439s-1.5-0.6646-1.5-1.5439zm2.78 0c0-0.7546-0.38-1.3361-1.28-1.3361-0.91 0-1.28 0.5815-1.28 1.3361 0 0.7523 0.37 1.3293 1.28 1.3293 0.9 0 1.28-0.577 1.28-1.3293zm-1.21 0.2654h-0.47v0.6715h-0.34v-1.8657h0.88c0.57 0 0.69 0.2296 0.69 0.5884 0 0.2747-0.08 0.4962-0.41 0.577l0.4 0.7003h-0.37l-0.38-0.6715zm0.05-0.3035c0.26 0 0.36-0.0634 0.36-0.2884 0-0.2308-0.1-0.2954-0.36-0.2954h-0.52v0.5838h0.52z"/>
     <path id="Fill-16" d="m50.272 23.773h2.755c1.619 0 2.212 0.677 2.212 1.906 0 1.237-0.567 2.038-2.253 2.038h-1.759v2.043h-0.955v-5.987zm2.755 3.055c0.827 0 1.232-0.3 1.232-1.1 0-0.815-0.389-1.066-1.249-1.066h-1.783v2.166h1.8z"/>
     <path id="Fill-17" d="m56.725 26.762c0-2.199 1.176-3.086 3.096-3.086 1.921 0 3.105 0.887 3.105 3.086 0 2.206-1.184 3.095-3.105 3.095-1.92 0-3.096-0.889-3.096-3.095zm5.211 0.016c0-1.366-0.607-2.156-2.115-2.156-1.499 0-2.106 0.79-2.106 2.156 0 1.375 0.607 2.166 2.106 2.166 1.508 0 2.115-0.791 2.115-2.166z"/>
     <path id="Fill-18" d="m64.234 23.773h1.021l1.352 4.403 1.387-4.403h0.874l1.395 4.403 1.345-4.403h0.965l-1.881 6.027h-0.875l-1.411-4.443-1.401 4.443h-0.884l-1.887-6.027"/>
     <path id="Fill-19" d="m74.358 23.773h4.238v0.937h-3.258v1.503h3.176v0.929h-3.176v1.696h3.29v0.922h-4.27v-5.987"/>
     <path id="Fill-20" d="m83.179 27.578h-1.581v2.182h-0.956v-5.987h2.747c1.637 0 2.18 0.702 2.18 1.865 0 0.915-0.357 1.618-1.385 1.859l1.304 2.263h-1.053l-1.256-2.182zm0.186-0.896c0.785 0 1.216-0.219 1.216-1.003 0-0.8-0.414-1.017-1.232-1.017h-1.751v2.02h1.767z"/>
     <path id="Fill-21" d="m87.591 23.773h4.238v0.937h-3.258v1.503h3.177v0.929h-3.177v1.696h3.291v0.922h-4.271v-5.987"/>
     <path id="Fill-22" d="m93.876 23.773h2.049c2.317 0 3.216 0.646 3.216 2.989 0 2.303-0.963 2.998-3.28 2.998h-1.985v-5.987zm2.034 5.084c1.765 0 2.243-0.56 2.243-2.095 0-1.552-0.397-2.062-2.211-2.062h-1.087v4.157h1.055z"/>
     <path id="Fill-23" d="m103.76 23.773h2.69c1.46 0 2.1 0.459 2.1 1.502 0 0.695-0.26 1.156-0.86 1.35 0.71 0.179 1.01 0.638 1.01 1.478 0 1.269-0.78 1.657-2.28 1.657h-2.66v-5.987zm2.72 2.48c0.85 0 1.07-0.331 1.07-0.831 0-0.509-0.29-0.769-1.07-0.769h-1.76v1.6h1.76zm0.04 2.644c0.83 0 1.19-0.253 1.19-0.882 0-0.615-0.36-0.865-1.2-0.865h-1.79v1.747h1.8z"/>
     <path id="Fill-24" d="m112.31 27.554l-2.41-3.781h1.06l1.85 2.892 1.86-2.892h1.01l-2.4 3.765v2.222h-0.97v-2.206"/>
     <path id="Fill-25" d="m120.06 23.773h4.11v0.937h-3.13v1.609h3.06v0.928h-3.06v2.513h-0.98v-5.987"/>
     <path id="Fill-26" d="m125.62 26.762c0-2.199 1.18-3.086 3.1-3.086s3.1 0.887 3.1 3.086c0 2.206-1.18 3.095-3.1 3.095s-3.1-0.889-3.1-3.095zm5.21 0.016c0-1.366-0.6-2.156-2.11-2.156-1.5 0-2.11 0.79-2.11 2.156 0 1.375 0.61 2.166 2.11 2.166 1.51 0 2.11-0.791 2.11-2.166z"/>
     <path id="Fill-27" d="m136.24 27.578h-1.58v2.182h-0.96v-5.987h2.75c1.64 0 2.18 0.702 2.18 1.865 0 0.915-0.35 1.618-1.38 1.859l1.3 2.263h-1.05l-1.26-2.182zm0.19-0.896c0.78 0 1.21-0.219 1.21-1.003 0-0.8-0.41-1.017-1.23-1.017h-1.75v2.02h1.77z"/>
     <path id="Fill-28" d="m140.65 23.773h2.05c2.32 0 3.22 0.646 3.22 2.989 0 2.303-0.96 2.998-3.28 2.998h-1.99v-5.987zm2.04 5.084c1.77 0 2.24-0.56 2.24-2.095 0-1.552-0.39-2.062-2.21-2.062h-1.09v4.157h1.06z"/>
    </g>
   </g>
  </g>
 </g>
</svg>
