<?xml version="1.0" encoding="utf-8"?>
<!-- Generator: Adobe Illustrator 21.0.2, SVG Export Plug-In . SVG Version: 6.00 Build 0)  -->
<svg version="1.1" id="Layer_1" xmlns="http://www.w3.org/2000/svg" xmlns:xlink="http://www.w3.org/1999/xlink" x="0px" y="0px"
	 viewBox="0 0 3320.5 2148.6" style="enable-background:new 0 0 3320.5 2148.6;" xml:space="preserve">
<style type="text/css">
	.st0{fill:#FF00C4;}
	.st1{fill:#4722E3;}
	.st2{fill:none;}
</style>
<path class="st0" d="M3236,410.6c17.8-20.1,39-38.7,49.4-64.1c23.1-56.2-23-103.1-52.4-146c-11.9-17.4-20.8-42.6-46.7-38.2
	c-9.4,1.6-16,6.9-21.6,14.3c-10.9,14.3-20.2,30.2-30.7,44.9c-80.5,112.8-178.3,212.1-282.3,303.3c-51.3,45-104.2,88.1-157.8,130.2
	c-28.3,22.2-56.7,44-85.3,65.8c-26.8,20.4-53.1,42.5-81.2,61.2c-43.2,28.7-46.3-60.2-44.6-83.9c2.3-32.8,8.4-65.8,2.5-98.6
	c-10.6-59.7-70.1-98.2-129-85.7c-3.9,0.8-6.4,4.8-6.5,8.6c-4.8,103.1-35.4,203.1-88.4,291.4c-3.5,0.5-7.1,0.3-10.6-0.6
	c-32.1-68.2-32.4-150.4,3.5-217.6c36.4-68.1,106.4-116.2,182.9-126.2c5.3-0.7,10.6-5.2,8.6-11.3c-23-68.3-126.4-46.6-179-43
	c-89.7,6.1-179.5,12.2-269.2,18.3c32.3-23.4,64.5-46.7,96.8-70.1c6.5-4.7,5.2-13.3-2.1-16.3c-115.2-46.7-240.1-56.5-363-64.7
	c-125-8.3-250-15.1-375-23.6c-251.2-17.2-503.1-41.4-748.4-99.9c-67.1-16-133.5-34.5-199-56.1C372.9,91.8,339.3,79.8,306,67
	c-9.2-3.6-21.2-10.9-30.1-2.6c-2.5,2.4-4.5,5.7-5,9.1c-0.1,0.7,0.3,3,0.8,5.4c-12.4-6.6-24.8-13.1-37.2-19.7
	c-5.3-2.8-11.4-7.2-17.8-6.2c-8.6,1.3-13.9,10.1-11.3,18.2c0,0.1,0,0.2,0.1,0.2c7.7,22.7,6.2,52.6,5.1,76.3
	c-1.2,26.5-5.4,52.7-11.5,78.5c-12.6,53.3-33.1,104.3-55,154.4c-42.7,97.8-93,195.4-108.7,302.2c-35.2,240,114,454.9,283.5,607.8
	c45.3,40.9,93,79.2,141.3,116.6c45.3,35.1,91.6,69.2,141.2,98c48.6,28.2,100.8,51.6,156,63.5c63.4,13.6,126.2,3.7,190.2,6.8
	c105.4,5.1,204.7,69.7,252.6,163.8c10.4,20.4,16.6,42.4,39.6,52c19,8,36.8,0.8,52.9-10c20.1-13.5,39.2-28.1,64.5-18
	c23.4,9.3,40.6,31.6,54.2,51.8c56.3,83.7,77.9,191.9,155.8,260.7c18.1,16,37.5,31.3,56.5,46.3c14.4,11.4,31.6,24.1,50.8,24.4
	c12.7,0.1,29.6-6.9,33.5-20.1c3.4-11.6-3.8-25.2-8.4-35.4c-18.8-41.1-44.2-84-35.8-131.1c9.2-51.9,54.6-85.1,96.7-110.9
	c35.3-21.6,69.3-38.9,108.5-52c37.6-12.6,76.1-24.3,115-32.1c120.1-24.2,245.5-13.2,367-24.1c61.5-5.5,133.2-28.8,192.9-5.1
	c45,17.8,71.7,60.9,93.3,101.8c22.5,42.7,41.6,87.5,72.7,125c31.7,38.3,77.8,74.9,127,86.6c43.2,10.3,88.4-10.7,84.7-60.5
	c-1.7-23.7-12.5-46.3-24-66.8c-15.8-28.2-31.5-56.4-46.3-85.1c-14.9-29-29.1-58.3-42.6-87.9c-13.7-30.1-28.5-60.6-36.4-92.8
	c-8-32.3-5.1-64.2,13.7-92.2c14.4-21.5,34.7-38.7,54.3-55.3c38.1-32.4,72-66.7,98.3-109.5c26.2-42.7,44.7-90,57.2-138.4
	c25.7-99.9,27.5-204.9,20.4-307.3c-3.6-51.4-8.7-105.7,7.8-155.4c17.8-53.9,62.2-77.3,113.7-92.1c43.1-12.4,88.4-22.5,121.2-55.3
	c4.4-4.4,2.7-10.6-1.8-14c-45.6-34.3-66.4-95.1-57.3-150.7C3204.2,457.3,3216.9,432.1,3236,410.6z M2367,531c0-0.3,0-0.7,0.1-1
	c0.4-0.1,0.8-0.1,1.2-0.1C2367.8,530.3,2367.4,530.6,2367,531z"/>
<g>
	<path class="st1" d="M321.3,15.8c-18.1,15.2-17.6,37-14.9,58.7c3,24.8,7.7,49.7,19,72.3c13.2,26.3,47.3,46.2,49.1,76.7
		c0.9,15.7-16.2,51.7,7.5,55.7c1,0.3,2,0.4,3.2,0.3c2.3,0,4.1-0.8,5.4-2.1c2.6-1.8,4.4-4.5,5.6-7.7c4.9-13.7,3.4-30.8,7.3-45.2
		c7.5-27.9,22-51,37-75.3c24.2-39.2,34.2-86-2.1-122C409.9-0.8,353.7-11.4,321.3,15.8z"/>
	<path class="st1" d="M303.7,977.8c-14.8-11.6-35.7-13.2-53.9-14.1c-19.2-1-39.8,0.5-57.5,8.5c-33.5,15.2-44,61.1-31.1,93.6
		c4.6,11.5,13.7,20.2,20.1,30.7c8.1,13.2,14.2,27.4,18.6,42.2c4.4,14.6,7,29.4,8.5,44.6c1.1,10.8,2.9,17.9,12.6,23.9
		c1.1,0.7,2.2,1.1,3.3,1.2c16.6,5.2,24.4-11.1,28.1-24.1c8.1-29.1,19-57.4,32.7-84.3C302.8,1065.4,347.1,1011.8,303.7,977.8z"/>
	<path class="st1" d="M2190.2,844.4c7.5-18.6,12.1-38.9,12.5-59c0.9-39-18.2-66.2-56.1-76.8c-16.5-4.6-40.2-8.3-56.6-1.1
		c-15.4,6.7-24.2,31.1-27.3,46.3c-5.3,25.8,7.2,49.5,20.5,70.7c15.7,25.1,36.1,45.4,49.6,71.8c4.1,10.8,2.1,21.2,3.9,32.2
		c1,6,4.1,10.8,10.5,12.1c19.7,4,13.1-20.5,12.6-30.4C2158.5,887,2181.7,865.5,2190.2,844.4z"/>
	<path class="st1" d="M1738.8,1116.9c-16.4,2.6-27.3,11.6-34.3,26.9c-8.2,17.9-4.3,35.9,0.8,54.4c8.1,29.6,30.1,55.5,35.5,85.3
		c2.6,14.4-1.3,28.6-4.9,42.5c-2.5,9.5-5.5,16.8-0.2,24.2c0.6,1.4,1.7,2.7,3.4,3.6c1,0.7,2,1.2,3.1,1.4c13,4.6,17.5-8.9,18.6-19.4
		c3-27.8,24.2-48.4,40.5-69.5c13.4-17.3,25.9-36.9,26.7-59.5c0.6-18.4-2.7-39.5-9.8-56.6C1803.8,1115.5,1772.2,1111.6,1738.8,1116.9
		z"/>
	<path class="st1" d="M2205.7,1097.3c-36.1,15-44.8,59.4-20.1,89c9.7,11.7,20.6,17.6,25.9,32.7c5.1,14.6,11.7,28.3,13.1,44
		c1.6,17.1-4.2,55.4,14.8,64.5c0.9,0.6,2,1,3.3,1.2c1.5,0.4,2.9,0.3,4.2-0.1c13.1-2.2,14.1-21.1,13.9-31.6
		c-0.4-20.8-13.9-49.5,4.6-65.1c18.5-15.7,37.8-25.6,50.5-47.5c10.3-17.8,14-37.9,4.1-56.7
		C2300.1,1089.9,2242.1,1082.2,2205.7,1097.3z"/>
	<path class="st1" d="M2503.6,1274.7c-51.8-2.6-70.6,53.3-49.7,94c6.5,12.6,15.9,23.1,25.9,33c5.6,5.6,12.9,11.2,16.4,18.6
		c4.5,9.7,1.3,16.8-1.3,25.6c-5.3,18.3-1.9,37.1,19.1,36.2c1.2,0.2,2.6,0.1,4.1-0.4c2-0.3,3.4-1.1,4.5-2.1c4.6-2.9,7.5-7.3,9.6-12.7
		c5.7-15,7.3-31.6,13.1-46.7c9-23.3,24.9-42.5,29.1-67.7C2582.2,1306.4,2547.6,1276.9,2503.6,1274.7z"/>
	<path class="st1" d="M2595.6,1095.1c16.9,3.4,19.8-18.3,22.8-30c6.4-25,18-45.7,31.7-67.2c23.2-36.5,38.7-84.7,8.6-122.1
		c-23.1-28.6-66.3-39.9-97.4-17.1c-37.5,27.6-16.3,74.5,4.1,105.5c7.7,11.7,16.2,23.7,20.2,37.2c3.6,12.3,1.2,24.7-0.9,37.1
		c-2.8,17.2-10.8,41.9,5,54.2c0,0,0.1,0.1,0.1,0.1c0.4,0.3,0.7,0.6,1.1,0.9C2592.6,1094.7,2594.1,1095.1,2595.6,1095.1z"/>
	<path class="st1" d="M2683,1658.6c-15.2-8.8-39.1-6-55-0.3c-19.5,6.9-33,22.4-35.8,43c-4.1,29.7,17.5,56.9,26,84.2
		c9,28.9,10.3,58.1,8,88.1c-0.1,1.7,0.2,3.1,0.8,4.3c3.8,13.6,23.1,17.4,29.9,3.2c4.9-10.3-0.4-25.3,0.7-36.6
		c1.9-18.1,8-35.7,15.8-52.1c12.1-25.5,35.2-48.6,40.6-76.8C2718.3,1692.5,2702.5,1670,2683,1658.6z"/>
	<path class="st1" d="M2890.3,1777.7c-20.3-1.4-45.7,12.5-60.9,24.9c-18.5,15-27.9,36.6-28.2,60.3c-0.3,22.5,8.8,42.8,13,64.6
		c2.2,11.6,3.3,23.4,4.1,35.2c0.7,9.3,0,16.4,6.4,22.2c0.7,0.8,1.5,1.5,2.7,2.1c1.2,0.8,2.4,1.2,3.6,1.4
		c12.8,3.8,21.8-7.7,21.2-20.2c-1.8-35.4,18.8-55.3,40.7-80.7c16.3-19,31.9-41.3,31.5-67.5C2924.1,1799.9,2912,1779.2,2890.3,1777.7
		z"/>
	<path class="st1" d="M2822.5,1654.7c-12.1-16.5-32.5-19.6-51.3-15.3c-2.8,0.6-5.6,1.5-8.4,2.4c7.4-23.9,21.7-45.5,24.5-70.8
		c4.1-36.4-21.5-76.9-62.5-66.4c-33.6,8.5-48.2,44.8-35.5,75.8c8.8,21.6,36.7,31.3,35.5,56.5c-0.6,12.4-10.4,33.7-1.8,43.8
		c-5.8,19.8,0.5,41.9,4.5,61.5c6.2,30.4,1.4,59.4,1.4,89.9c0,14.1,11.6,29.3,24.8,17c1.2-0.7,2.2-1.8,3-3.4
		c4.7-9.3,3.2-21.5,6.8-31.5c4.7-13.1,12.4-25,20.6-36.1c14.6-19.6,34.1-36.1,42.3-59.7C2833.5,1699,2835.4,1672.2,2822.5,1654.7z"
		/>
	<path class="st1" d="M3190.2,602.2c6.4-22.5,8.1-46.9-1-68.9c-8.3-20.2-21.8-27.2-42.1-32.4c-51.6-13.2-74.6,47.5-57.7,87.9
		c10.3,24.8,29.8,43.5,44.9,65.3c9,13,17.8,28.1,18.2,44.4c0.3,10.2-2.3,16,4.3,22.4c0.6,0.8,1.5,1.5,2.5,2.1c0,0,0,0,0,0
		c0,0,0,0,0.1,0c0.1,0,0.1,0.1,0.2,0.1c1.9,1.3,3.7,1.7,5.4,1.4c18.8,2.1,11.7-29,11-38.4c-1.2-15.2-1.4-30.7,1.7-45.6
		C3180.5,627.4,3186.5,615.2,3190.2,602.2z"/>
	<path class="st1" d="M2492.6,867c2.2,0.2,4-0.3,5.4-1.3c12.1-5.3,9.2-24.7,10.1-35.3c2.2-26.1,13.5-44.2,24.5-67.4
		c17.8-37.6,30.5-102.3-4.2-134.6c-25.2-23.4-78.9-33.1-101.2,0.5c-8.3,12.5-11.7,32.8-12.9,47.5c-2.1,23.8,14,48.5,25.8,68
		c14.9,24.6,26.6,47.1,32.2,75.6C2475.6,837.2,2469.2,864.8,2492.6,867z"/>
	<path class="st1" d="M364.8,1130.4c-39.4-12.6-96.1,9.7-88.2,58.9c3.9,24.2,29.7,40.4,42.3,60.3c7.6,12,13.8,25,18.2,38.5
		c4.6,14,5.6,28.8,9.9,42.8c0.1,0.6,0.3,1.3,0.6,2c0.3,0.9,0.7,1.7,1.2,2.4c6.7,11.1,23.4,11.6,27.6-2.4c3.5-11.6-0.9-27.7-0.7-39.8
		c0.4-17.6,5.2-32.1,12.9-47.8c10.9-22.3,24.2-46.5,18.7-72.2C402.7,1151.5,385.2,1137,364.8,1130.4z"/>
	<path class="st1" d="M3080.8,645.4c-32.5-24.9-74.3-12-80.5,30.3c-2.6,18.3,3.2,35.7,4.5,53.8c-6.1-0.6-12.8,0.1-20,2.3
		c-6.3,1.9-12.8,4.9-19,8.7c-10.7-11.5-26.5-17-46.1-11c-17.9,5.5-38,19.4-44.8,37.5c-6.1,16.4,0.1,32.5,9.3,46.4
		c13.2,20,28.2,35.4,35.1,59.4c2.4,8.5,1.9,25.6,7.4,34.8c-8.6,7.9-15.2,18.3-19.2,29.9c-11.8-6.9-24.9-8.3-40.1-3.4
		c-21.9,7-36.5,27.2-46.1,47.3c-10.9,22.9-12.1,48.5-1.9,72c5.9,13.4,14.4,25.4,25,35.4c9.6,9,17.6,15,20.9,28.6
		c1.8,10.1,7.5,77.5,32.3,54.6c9.2-8.5,6.3-28,6.7-39c0.4-13.3,1.9-26,4.4-38.5c0.3,5.7,0.5,11.3,0.8,17c0.4,9.2-0.3,20,9.3,24.4
		c0.2,0.1,0.4,0.2,0.6,0.2c0.3,0.1,0.6,0.3,1,0.4c1.9,0.6,3.5,0.6,5,0.2c6.8-0.6,11.2-4.4,13.5-11.3c2.3-6.9,2-14.5,4.6-21.5
		c3.2-9,8.2-17.4,13.5-25.3c17.4-26.2,40.3-48.3,54.9-76.5c11.3-21.8,23-55.3,9.3-78.5c-2.4-4.1-5-7.6-7.8-10.9
		c4.2-3.6,5.8-7.9,6.3-13.5c1.3-14.4,1.4-26.7,6.3-40.7c8.3-23.5,20.3-45.7,20.4-71.2c0-2.6-0.1-5.2-0.3-7.7
		c11.1-9,21.9-18.3,31.6-28.9c13-14.2,26-31,28.8-50.6C3109.7,678.9,3097.1,657.8,3080.8,645.4z M2961,856c1.9-5.3,3.9-10.5,6-15.6
		c7.2,10.4,13.7,21.1,17.6,34.6c1.4,4.9,1.8,12.7,3,20.2c-4.1-1.3-8.4-2.2-13.2-2.8c-6.9-0.8-13.3-0.5-19.4,0.7
		C2956.1,880.2,2956.5,868.9,2961,856z"/>
	<path class="st1" d="M707.7,1198.2c-40.4-20.8-83.3,2.4-83.7,48.8c-0.3,29.3,16.9,54.2,26.7,80.7c6,16.3,8,30.8,4.6,48
		c-2.6,13-5.4,24-3.8,37c0,0.1-0.1,0.2-0.1,0.3c-3.2,11,14,15.7,17.1,4.7c13.1-45.9,59.9-70.8,77.9-114.2
		C762.8,1264.1,745.8,1217.8,707.7,1198.2z"/>
</g>
<path class="st2" d="M2779.2,1637.1"/>
<g>
	<path class="st0" d="M3043.6,755.3c-1.9-5.8-4.9-11.4-9.4-16.1c-4.4-4.6-9.5-8.6-15.6-10.6c-5.9-1.9-12.4-2.8-18.5-1.1l0,0.7
		c5.7,2.2,10.8,4.4,15.8,7c4.9,2.6,10.1,4.6,14.4,8.1c4.2,3.5,7.5,8.1,10,13.3c2.6,5.1,4.2,10.8,5.7,16.5l0.7-0.1
		C3046.3,767.1,3045.5,761.2,3043.6,755.3z"/>
	<path class="st0" d="M2974.5,750.8c1.1,2.2,2,4.5,2.7,6.9c0.7,2.5,1.3,5,1.9,7.5c1,5,1.7,10.1,1.5,15c-0.2,4.9-1.2,9.6-2.4,14
		c-1.5,4.8-3,9.8-4.7,14.7c-1.7,4.9-3.5,9.7-5.6,14.4c-2.2,4.6-4.3,9.3-8.6,12.2l0.3,1c2.9-0.3,5.6-1.9,7.8-3.7
		c2.3-1.8,4.2-3.9,6-6.1c3.5-4.4,6.4-9.2,8.9-14.1c2.5-4.9,4.7-9.9,6.4-15.2c1.9-5.8,2-11.9,1.3-17.6c-0.6-5.7-1.9-11.2-3.7-16.5
		c-0.9-2.6-1.8-5.2-2.9-7.8c-1.1-2.7-2.5-5.2-4-7.6c-6.2-9.4-16.1-16.6-27-18l-0.2,1C2962.3,734.2,2970.1,741.9,2974.5,750.8z"/>
	<path class="st0" d="M2749.8,1643.4c-3.8,1-7.4,2.6-10.8,4.6c-1.7,1-3.4,2.1-5,3.3c-1.6,1.3-3,2.6-4.4,4c-2.8,2.8-5.5,5.8-7.7,9.2
		c-4.6,6.7-7,14.7-7.5,22.6c-0.5,7.9,0.7,15.8,3.8,22.9l1.1-0.1c1.3-7.5,2.4-14.6,4.3-21.2c1.9-6.6,4.5-12.7,7.4-18.7
		c1.5-3,3.3-5.9,5.4-8.6c2.2-2.6,4.3-5.2,6.9-7.5c5.1-4.6,11-9,18.1-10.5v-1.1C2757.5,1641.8,2753.5,1642.4,2749.8,1643.4z"/>
	<path class="st0" d="M2936.9,960.5c-7.7-10.1-18.1-18.1-29.8-22.2l-0.4,1c10.8,5.5,19.8,14.1,25.8,24.2c6.2,10,9.7,21.6,9.5,33
		c-0.1,5.7-1,11.4-2.7,16.9c-1.6,5.5-3.5,10.9-5.5,16.4c-4,11-9.3,21.9-13.5,33.8l0.9,0.6c4.6-4.3,8.7-9,12.4-14
		c3.8-5,7.1-10.4,10-16.1c5.8-11.4,8-24.9,6.9-37.9C2949.6,983,2944.5,970.6,2936.9,960.5z"/>
	<path class="st0" d="M3005.4,898.8c-8-8-19.1-13.4-30.7-14.5c-11.6-1.2-23.6,0.3-33.8,5.5c-5.1,2.5-9.9,5.5-14.2,9.2
		c-4.3,3.6-8.4,7.6-11.3,12.5l0.8,0.8c9.7-5,19.3-9.2,28.9-12.6c4.8-1.7,9.6-3.3,14.4-4.6c4.8-1.4,9.8-2.2,14.7-2.2
		c9.9,0,19.8,3.4,27.7,9.9c8.2,6.2,14.4,15.2,19.7,24.5l1-0.4c-2-5-4.1-10.1-7-14.8C3012.8,907.3,3009.4,902.8,3005.4,898.8z"/>
</g>
</svg>
