<svg id="Layer_1" xmlns="http://www.w3.org/2000/svg" viewBox="-457.8 258.2 45.5 45.5"><style>.st0{fill:none;} .st1{fill:none;stroke:#FFFFFF;stroke-width:1.535;} .st2{fill:#FFFFFF;}</style><title>twitter</title><g id="CITY"><g id="city"><g id="Footer"><g id="footer-HR"><g id="twitter"><path id="Rectangle" class="st0" d="M-457 259h44v44h-44z"/><circle id="Oval" class="st1" cx="-435" cy="281" r="22"/><path id="Shape" class="st2" d="M-426.5 275.8c.9-.6 1.6-1.5 1.9-2.5-.8.5-1.8.9-2.7 1.1-.8-.9-1.9-1.4-3.1-1.4-2.4 0-4.3 2-4.3 4.5 0 .4 0 .7.1 1-3.6-.2-6.8-2-8.9-4.7-.4.7-.6 1.5-.6 2.3 0 1.6.8 3 1.9 3.8-.7 0-1.4-.2-2-.6v.1c0 2.2 1.5 4 3.5 4.5-.4.1-.7.2-1.1.2-.3 0-.5 0-.8-.1.5 1.8 2.1 3.1 4 3.2-1.5 1.2-3.3 1.9-5.4 1.9-.3 0-.7 0-1-.1 1.9 1.3 4.2 2 6.6 2 7.9 0 12.3-6.9 12.3-12.9v-.6c.8-.6 1.6-1.4 2.1-2.4-.8.4-1.6.6-2.5.7z"/></g></g></g></g></g></svg>