<?xml version="1.0" encoding="utf-8"?>
<!-- Generator: Adobe Illustrator 21.0.2, SVG Export Plug-In . SVG Version: 6.00 Build 0)  -->
<svg version="1.1" id="Layer_1" xmlns="http://www.w3.org/2000/svg" xmlns:xlink="http://www.w3.org/1999/xlink" x="0px" y="0px"
	 viewBox="0 0 58.5 40" style="enable-background:new 0 0 58.5 40;" xml:space="preserve">
<style type="text/css">
	.st0{fill:#FF00BF;}
</style>
<path class="st0" d="M30.3,9.3h-7.8c-0.2,0-0.4,0.2-0.4,0.4v11.1c0,0.8-0.6,1.4-1.4,1.4s-1.4-0.6-1.4-1.4V9.6c0-0.2-0.2-0.4-0.4-0.4
	h-7.8c-0.2,0-0.4,0.2-0.4,0.4v13.9c0,3.9,3.2,7.1,7.1,7.1c1.7,0,3.3-0.6,4.6-1.7c-0.1,1.1-0.7,1.9-1.7,2.5c-0.9,0.6-2.1,0.9-3.4,0.9
	c-1.4,0-2.8-0.3-4-0.9h-0.2c-0.1,0-0.1,0-0.2,0.1s-0.2,0.2-0.2,0.3v6.8c0,0.1,0.1,0.3,0.2,0.3c1.8,0.7,3.8,1.1,5.8,1.1
	c3.2,0,6.1-1,8.2-2.8c2.4-2,3.6-5,3.6-8.6v-19C30.7,9.4,30.5,9.3,30.3,9.3 M8.6,23.6V1.1c0-0.2-0.2-0.4-0.4-0.4H0.4
	C0.2,0.7,0,0.9,0,1.1v21.1c0,5.9,3.9,8.6,7.5,8.6c1.1,0,2.1-0.2,3.1-0.7c0.1,0,0.2-0.1,0.2-0.3c0-0.1,0-0.2-0.1-0.3
	C9.3,27.9,8.6,25.9,8.6,23.6 M58.1,17.9c0.2,0,0.4-0.2,0.4-0.4V9.6c0-0.2-0.2-0.4-0.4-0.4h-2.7C54.4,3.9,49.7,0,44.2,0
	c-6.3,0-11.4,5.1-11.4,11.4v18.9c0,0.1,0,0.2,0.1,0.3c0.1,0.1,0.2,0.1,0.2,0.1c2.2-0.1,4.3-1,5.8-2.6s2.4-3.7,2.4-5.9h3.2
	c0.2,0,0.4-0.2,0.4-0.4v-7.9c0-0.2-0.2-0.4-0.4-0.4h-3.2v-2.1c0-1.6,1.3-2.9,2.9-2.9c1.6,0,2.9,1.3,2.9,2.9v7.9c0,3.1,1.2,6,3.3,8.1
	c2,2,4.8,3.2,7.7,3.3c0.1,0,0.2,0,0.2-0.1c0.1-0.1,0.1-0.2,0.1-0.3v-7.9c0-0.2-0.1-0.3-0.3-0.4c-1.4-0.2-2.5-1.4-2.5-2.8v-1.4
	L58.1,17.9L58.1,17.9z"/>
</svg>
