<?xml version="1.0" encoding="UTF-8" standalone="no"?>
<svg width="119px" height="119px" viewBox="0 0 119 119" version="1.1" xmlns="http://www.w3.org/2000/svg" xmlns:xlink="http://www.w3.org/1999/xlink" xmlns:sketch="http://www.bohemiancoding.com/sketch/ns">
    <!-- Generator: Sketch 3.3.2 (12043) - http://www.bohemiancoding.com/sketch -->
    <title>c75 symbol 2015</title>
    <desc>Created with Sketch.</desc>
    <defs>
        <circle id="path-1" cx="59.5" cy="59.5" r="59.5"></circle>
    </defs>
    <g id="Page-1" stroke="none" stroke-width="1" fill="none" fill-rule="evenodd" sketch:type="MSPage">
        <g id="Desktop-HD" sketch:type="MSArtboardGroup" transform="translate(-661.000000, -144.000000)">
            <g id="old-symbol" sketch:type="MSLayerGroup" transform="translate(661.000000, 144.000000)">
                <g id="c75-symbol-2015">
                    <mask id="mask-2" sketch:name="Mask" fill="white">
                        <use xlink:href="#path-1"></use>
                    </mask>
                    <use id="Mask" fill="#F3F3F3" sketch:type="MSShapeGroup" xlink:href="#path-1"></use>
                    <path d="M149.099891,-25.1588745 C145.134215,-25.7423229 141.366813,-23.2140466 140.77199,-19.3242022 C140.375442,-17.5736686 140.77199,-16.0178063 141.565087,-14.6564267 L122.926542,3.62570974 C121.736897,3.04226136 120.547251,2.65329577 119.159332,2.26433018 C112.21935,1.09743342 105.676109,5.57053768 104.486463,12.3778124 C103.296626,19.1848986 107.857125,25.6032077 114.797107,26.7701045 C116.383301,26.9645873 117.969494,26.9645873 119.357606,26.7701045 L131.254443,51.6648444 C130.064798,52.4427756 128.875153,53.6096723 128.28033,54.9712403 L97.7447556,54.9712403 C96.3568361,48.747414 90.6066916,44.079827 83.864984,44.079827 C82.080516,44.079827 80.4943223,44.4687926 78.9079364,44.8577581 L57.4935524,23.8526741 C57.4935524,23.4637085 57.6918266,22.8802602 57.6918266,22.4912946 C57.6918266,17.0455879 53.3296017,12.766778 47.7777315,12.766778 C42.2258613,12.766778 37.8636364,17.0455879 37.8636364,22.4912946 C37.8636364,27.9370013 42.2258613,32.2158112 47.7777315,32.2158112 C50.3554885,32.2158112 52.7347791,31.2433972 54.519247,29.6875349 L73.7526146,48.5529312 C71.373324,51.081396 69.7871303,54.387792 69.7871303,58.082965 C69.7871303,62.7507406 72.1664209,67.0295505 75.9338231,69.5580153 L66.4162765,89.3960141 C65.2266311,88.8125657 63.8385195,88.6180829 62.6488742,88.6180829 C57.097004,88.6180829 52.7347791,92.8968928 52.7347791,98.3425995 C52.7347791,103.788306 57.097004,108.067116 62.6488742,108.067116 C68.2007444,108.067116 72.5629693,103.788306 72.5629693,98.3425995 C72.5629693,96.5920659 72.1664209,95.0362035 71.373324,93.674824 L81.6839676,71.8918088 C82.4770645,72.0862916 83.0718871,72.0862916 83.864984,72.0862916 C90.6066916,72.0862916 96.3568361,67.4185161 97.7447556,61.1948782 L126.892218,61.1948782 C127.685315,65.8626537 131.650992,69.3635325 136.608039,69.3635325 C142.159909,69.3635325 146.522134,65.0847225 146.522134,59.6390159 C146.522134,54.1933092 142.159909,49.9144992 136.608039,49.9144992 L135.814942,49.9144992 L123.918105,24.8252766 C126.693944,23.074743 128.676878,20.157501 129.271701,16.6566223 C129.866524,12.9612608 128.875153,9.46038201 126.693944,6.7376229 L145.530763,-11.7389963 C145.927312,-11.5445136 146.125586,-11.5445136 146.522134,-11.5445136 C150.487811,-10.9610652 154.255213,-13.4893415 154.850036,-17.3791858 C155.841407,-20.8800646 153.065568,-24.5754261 149.099891,-25.1588745" id="Page-1" fill="#F7D9D5" sketch:type="MSShapeGroup" mask="url(#mask-2)"></path>
                </g>
            </g>
        </g>
    </g>
</svg>