<?xml version="1.0" encoding="utf-8"?>
<!-- Generator: Adobe Illustrator 21.1.0, SVG Export Plug-In . SVG Version: 6.00 Build 0)  -->
<svg version="1.1" id="Layer_1" xmlns="http://www.w3.org/2000/svg" xmlns:xlink="http://www.w3.org/1999/xlink" x="0px" y="0px"
	 viewBox="0 0 252 45" style="enable-background:new 0 0 252 45;" xml:space="preserve">
<style type="text/css">
	.st0{fill:#E82261;}
	.st1{fill:#ED2B6B;}
</style>
<path class="st0" d="M17.1,15.5l-0.5-1.1c-0.3-0.7-0.6-1.1-1.1-1.3c-0.8-0.4-1.2-0.9-1.2-1.5c0-1.4,2-2,6.1-2c2,0,3.6,0.2,4.7,0.5
	c0.4,0.1,0.7,0.3,0.9,0.6s0.3,0.5,0.3,0.8c0,0.3-0.1,0.5-0.2,0.6c-0.1,0.1-0.4,0.4-0.8,0.8C25.2,13,25,13.2,25,13.5
	c0,0.4,0.2,1,0.6,1.9l0.9,2c0.4,0.9,0.7,1.4,0.9,1.7c0.2,0.2,0.4,0.4,0.6,0.4c0.2,0,0.5-0.1,0.6-0.4c0.2-0.3,0.4-0.8,0.7-1.6
	l0.8-2.2c0.2-0.6,0.3-1.1,0.3-1.4c0-0.4-0.2-0.7-0.7-0.8c-0.9-0.3-1.3-0.8-1.3-1.5c0-0.6,0.3-1.1,1-1.4c0.7-0.3,1.8-0.4,3.4-0.4
	c1,0,1.8,0.1,2.4,0.4c0.8,0.3,1.2,0.8,1.2,1.5c0,0.3-0.1,0.6-0.2,0.8c-0.1,0.2-0.4,0.5-0.9,0.9c-0.3,0.2-0.5,0.5-0.7,0.8
	c-0.2,0.3-0.4,0.8-0.7,1.7L31.3,23c-1.4,3.5-2.2,5.5-2.5,6.2c-0.3,0.7-0.6,1.3-0.9,1.8c-0.2,0.4-0.5,0.7-0.8,0.8S26.4,32,25.9,32
	c-0.6,0-1.2-0.1-1.5-0.4s-0.7-0.7-1-1.4l-3.2-7.5c-0.2-0.4-0.3-0.7-0.4-0.8c-0.1-0.1-0.2-0.2-0.4-0.2c-0.2,0-0.4,0.1-0.6,0.4
	c-0.2,0.3-0.5,1-0.9,2.1l-2.2,5.4c-0.4,1-0.8,1.6-1.2,1.9S13.7,32,13,32c-0.7,0-1.2-0.2-1.6-0.5c-0.4-0.3-0.7-0.9-1.1-1.7L4.4,14.8
	c-0.2-0.6-0.4-1-0.5-1.1c-0.1-0.1-0.4-0.3-0.9-0.6c-0.5-0.3-0.8-0.7-0.8-1.4c0-1.5,1.9-2.3,5.6-2.3c1.9,0,3.3,0.1,4.1,0.4
	c0.8,0.3,1.2,0.8,1.2,1.6c0,0.2,0,0.4-0.1,0.5c0,0.1-0.2,0.4-0.5,0.7c-0.1,0.2-0.2,0.5-0.2,0.8c0,0.5,0.4,1.6,1.1,3.3l0.7,1.5
	c0.3,0.6,0.5,1,0.6,1.2c0.1,0.1,0.2,0.2,0.4,0.2c0.4,0,0.8-0.6,1.3-1.8l0.7-1.8c0.1-0.1,0.1-0.2,0.1-0.3
	C17.2,15.7,17.2,15.6,17.1,15.5z"/>
<path class="st0" d="M43.2,10.6L43,17.3c0,0.8,0.2,1.2,0.7,1.2c0.3,0,0.5-0.2,0.8-0.5c1-1.5,2.4-2.3,4.1-2.3c1.7,0,3,0.5,4,1.6
	c0.4,0.5,0.8,1,1,1.6c0.2,0.6,0.3,1.5,0.3,2.7l0.1,5.8c0,0.5,0.1,0.9,0.2,1.1c0.1,0.2,0.4,0.5,0.9,0.9c0.3,0.2,0.5,0.5,0.5,0.9
	c0,1.2-1.7,1.7-5.2,1.7c-3.1,0-4.6-0.5-4.6-1.6c0-0.2,0-0.3,0.1-0.4c0.1-0.1,0.2-0.4,0.6-0.8c0.4-0.6,0.7-2.1,0.7-4.4
	c0-1.4-0.1-2.5-0.4-3.1c-0.4-0.9-1-1.3-1.9-1.3c-0.7,0-1.1,0.2-1.4,0.7c-0.2,0.3-0.3,1-0.3,1.9V26c0.1,1.4,0.1,2.1,0.2,2.3
	s0.3,0.5,0.7,1c0.2,0.2,0.3,0.5,0.3,0.8c0,1.2-1.6,1.8-4.7,1.8c-3.7,0-5.5-0.6-5.5-1.9c0-0.3,0.1-0.5,0.2-0.7
	c0.1-0.2,0.4-0.4,0.9-0.7c0.4-0.3,0.7-1.1,0.8-2.3s0.2-3.4,0.2-6.3c0-2.3-0.1-3.9-0.2-4.8c0-0.3-0.1-0.6-0.2-0.7
	c-0.1-0.2-0.3-0.3-0.6-0.5c-0.7-0.3-1-0.7-1-1.2c0-0.5,0.3-1,0.8-1.3c0.5-0.3,1.5-0.7,2.9-1.1c1.9-0.5,3.5-0.8,4.6-0.8
	C42.9,9.8,43.2,10,43.2,10.6z"/>
<path class="st0" d="M68.6,23.6l-2.1,5.8c-0.5,1.4-1,2.6-1.6,3.5s-1.1,1.7-1.8,2.3c-1.4,1.3-3.1,2-5,2c-1.6,0-2.9-0.4-3.8-1.2
	c-0.8-0.6-1.1-1.5-1.1-2.4c0-0.8,0.3-1.5,0.8-2.1c0.5-0.6,1.2-0.8,1.9-0.8c0.8,0,1.4,0.3,1.9,0.8c0.2,0.2,0.4,0.4,0.4,0.6
	c0.1,0.2,0.2,0.6,0.3,1.2c0.1,0.5,0.4,0.7,0.8,0.7c0.3,0,0.6-0.1,0.8-0.4s0.3-0.6,0.3-1.1c0-0.5-0.3-1.3-0.8-2.5l-3.9-8.2
	c-0.4-0.9-0.7-1.4-0.9-1.6c-0.2-0.2-0.7-0.5-1.3-0.8c-0.2-0.1-0.4-0.3-0.6-0.5c-0.2-0.3-0.2-0.5-0.2-0.7c0-1,0.9-1.6,2.8-1.9
	c1.3-0.2,2.7-0.3,4.3-0.3c1.1,0,2,0.1,2.7,0.4c0.9,0.3,1.3,0.8,1.3,1.6c0,0.3-0.1,0.6-0.4,0.9c-0.2,0.3-0.4,0.6-0.4,0.9
	c0,0.3,0.1,0.5,0.2,0.8c0.1,0.3,0.3,0.7,0.7,1.4c0.4,0.7,0.8,1.1,1.1,1.1c0.3,0,0.7-0.3,1-1s0.5-1.3,0.5-1.9c0-0.5-0.1-0.9-0.4-1.2
	c-0.4-0.5-0.6-0.9-0.6-1.2c0-0.5,0.4-1,1.1-1.3c0.7-0.3,1.7-0.5,2.9-0.5c2.3,0,3.4,0.5,3.4,1.6c0,0.4-0.1,0.7-0.3,1
	c-0.2,0.2-0.6,0.5-1.3,0.7c-0.5,0.2-0.9,0.5-1.2,1C69.8,20.7,69.3,21.9,68.6,23.6z"/>
<path class="st0" d="M73.5,22.4c0.5,0,1,0.1,1.6,0.4c0.5,0.3,0.9,0.6,1.3,1c0.8,1,1.2,2.3,1.2,3.8c0,0.9-0.2,1.8-0.5,2.9
	c-0.3,1.1-0.7,2-1.2,2.9c-0.8,1.4-1.7,2.1-2.6,2.1c-0.4,0-0.8-0.1-1.1-0.4c-0.3-0.2-0.5-0.5-0.5-0.8c0-0.2,0.2-0.6,0.6-1.2
	c0.2-0.4,0.5-0.8,0.6-1.3c0.2-0.5,0.3-0.8,0.3-1.1c0-0.4-0.2-0.6-0.5-0.8c-0.7-0.3-1.2-0.5-1.5-0.8c-0.9-0.8-1.3-1.8-1.3-3
	c0-1,0.3-1.8,0.9-2.5C71.5,22.8,72.4,22.4,73.5,22.4z"/>
<path class="st0" d="M94.2,10.4L94,17.1c0,0.8,0.2,1.2,0.7,1.2c0.3,0,0.5-0.2,0.8-0.5c1-1.5,2.4-2.3,4.1-2.3c1.7,0,3,0.5,4,1.6
	c0.4,0.5,0.8,1,1,1.6c0.2,0.6,0.3,1.5,0.3,2.7l0.1,5.8c0,0.5,0.1,0.9,0.2,1.1c0.1,0.2,0.4,0.5,0.9,0.9c0.3,0.2,0.5,0.5,0.5,0.9
	c0,1.2-1.7,1.7-5.2,1.7c-3.1,0-4.6-0.5-4.6-1.6c0-0.2,0-0.3,0.1-0.4c0.1-0.1,0.2-0.4,0.6-0.8c0.4-0.6,0.7-2.1,0.7-4.4
	c0-1.4-0.1-2.5-0.4-3.1c-0.4-0.9-1-1.3-1.9-1.3c-0.7,0-1.1,0.2-1.4,0.7c-0.2,0.3-0.3,1-0.3,1.9v3.1c0.1,1.4,0.1,2.1,0.2,2.3
	s0.3,0.5,0.7,1c0.2,0.2,0.3,0.5,0.3,0.8c0,1.2-1.6,1.8-4.7,1.8c-3.7,0-5.5-0.6-5.5-1.9c0-0.3,0.1-0.5,0.2-0.7
	c0.1-0.2,0.4-0.4,0.9-0.7c0.4-0.3,0.7-1.1,0.8-2.3s0.2-3.4,0.2-6.3c0-2.3-0.1-3.9-0.2-4.8c0-0.3-0.1-0.6-0.2-0.7
	c-0.1-0.2-0.3-0.3-0.6-0.5c-0.7-0.3-1-0.7-1-1.2c0-0.5,0.3-1,0.8-1.3c0.5-0.3,1.5-0.7,2.9-1.1c1.9-0.5,3.5-0.8,4.6-0.8
	C93.9,9.6,94.2,9.9,94.2,10.4z"/>
<path class="st0" d="M119.7,23.2l-7.4,1.3c-0.3,0.1-0.5,0.2-0.4,0.5c0.1,0.7,0.6,1.3,1.5,1.7c0.8,0.5,1.7,0.6,2.5,0.5
	c0.5-0.1,1-0.3,1.6-0.6c0.6-0.3,1-0.6,1.4-1c0.3-0.3,0.6-0.5,0.8-0.5c0.3,0,0.6,0.1,0.9,0.4c0.3,0.3,0.5,0.6,0.6,1
	c0.1,0.8-0.2,1.6-1,2.4c-1.4,1.5-3.3,2.5-5.5,2.9c-2.2,0.4-4.2,0.1-5.9-0.9c-0.8-0.5-1.6-1.2-2.2-2c-0.8-1.1-1.4-2.3-1.6-3.6
	c-0.3-1.8-0.1-3.4,0.8-5c0.7-1.4,1.7-2.5,3.1-3.3c1-0.6,2.1-1.1,3.4-1.3c2-0.4,3.8-0.1,5.4,0.8c0.8,0.4,1.5,1,2.1,1.7
	c0.6,0.8,1,1.6,1.2,2.5c0.1,0.7,0.1,1.3-0.1,1.8C120.5,22.8,120.1,23.1,119.7,23.2z M112.2,21.4l1.6-0.3c0.7-0.1,1-0.5,0.8-1.1
	c-0.1-0.6-0.3-1-0.7-1.3c-0.4-0.3-0.8-0.4-1.4-0.3c-0.6,0.1-1,0.4-1.3,0.9c-0.2,0.5-0.3,1-0.2,1.4c0.1,0.3,0.2,0.5,0.3,0.6
	C111.5,21.5,111.8,21.5,112.2,21.4z"/>
<path class="st0" d="M128.8,18.8v5.1c0,2.3,0,3.6,0.1,4c0.1,0.4,0.3,0.7,0.8,0.9c0.4,0.2,0.7,0.3,0.8,0.5s0.2,0.4,0.2,0.6
	c0,0.4-0.1,0.7-0.4,1c-0.3,0.3-0.6,0.5-1,0.6c-0.8,0.2-2.1,0.4-3.9,0.4c-2.1,0-3.5-0.2-4.3-0.5c-0.4-0.1-0.7-0.4-0.9-0.6
	c-0.2-0.3-0.4-0.6-0.4-0.9c0-0.3,0.1-0.5,0.2-0.6c0.1-0.1,0.4-0.3,0.9-0.5c0.4-0.2,0.7-0.7,0.8-1.5c0.2-1.4,0.3-3.4,0.3-5.9
	c0-2.6-0.1-4.3-0.2-5c-0.1-0.7-0.5-1.3-1.1-1.7c-0.4-0.3-0.8-0.5-0.9-0.7s-0.2-0.5-0.2-0.8c0-0.5,0.3-1,0.8-1.4
	c0.5-0.4,1.3-0.8,2.4-1.1c0.7-0.2,1.7-0.4,2.9-0.6c1.2-0.2,2-0.3,2.6-0.3c0.8,0,1.3,0.5,1.3,1.6c0,0.3-0.1,1.1-0.2,2.4
	C128.9,15.5,128.8,17.2,128.8,18.8z"/>
<path class="st0" d="M138.1,18.8v5.1c0,2.3,0,3.6,0.1,4c0.1,0.4,0.3,0.7,0.8,0.9c0.4,0.2,0.7,0.3,0.8,0.5s0.2,0.4,0.2,0.6
	c0,0.4-0.1,0.7-0.4,1c-0.3,0.3-0.6,0.5-1,0.6c-0.8,0.2-2.1,0.4-3.9,0.4c-2.1,0-3.5-0.2-4.3-0.5c-0.4-0.1-0.7-0.4-0.9-0.6
	c-0.2-0.3-0.4-0.6-0.4-0.9c0-0.3,0.1-0.5,0.2-0.6c0.1-0.1,0.4-0.3,0.9-0.5c0.4-0.2,0.7-0.7,0.8-1.5c0.2-1.4,0.3-3.4,0.3-5.9
	c0-2.6-0.1-4.3-0.2-5c-0.1-0.7-0.5-1.3-1.1-1.7c-0.4-0.3-0.8-0.5-0.9-0.7s-0.2-0.5-0.2-0.8c0-0.5,0.3-1,0.8-1.4
	c0.5-0.4,1.3-0.8,2.4-1.1c0.7-0.2,1.7-0.4,2.9-0.6c1.2-0.2,2-0.3,2.6-0.3c0.8,0,1.3,0.5,1.3,1.6c0,0.3-0.1,1.1-0.2,2.4
	C138.2,15.5,138.2,17.2,138.1,18.8z"/>
<path class="st0" d="M148.3,15.5c2,0,3.7,0.5,5.1,1.5c1.1,0.7,1.9,1.7,2.5,2.8c0.7,1.2,1,2.5,1,3.8c0,2.3-1.1,4.3-3.2,5.9
	c-2,1.5-4.3,2.3-7,2.3c-2.6,0-4.6-0.7-6.2-2.2c-1.5-1.4-2.3-3.2-2.3-5.5c0-2.5,0.9-4.6,2.8-6.2C143.1,16.4,145.5,15.5,148.3,15.5z
	 M147,19.2c-0.5,0-0.8,0.2-1.1,0.5c-0.3,0.3-0.4,0.8-0.4,1.4c0,0.6,0.1,1.5,0.4,2.6c0.2,1.1,0.5,2.1,0.9,2.9
	c0.3,0.9,0.9,1.3,1.6,1.3c0.9,0,1.4-0.6,1.4-1.8c0-0.9-0.1-1.9-0.4-3.1s-0.5-2.1-0.9-2.8C148.1,19.6,147.6,19.3,147,19.2z"/>
<path class="st0" d="M170.6,19.7v5.4c0,0.6,0.2,1.2,0.5,1.6c0.3,0.4,0.7,0.6,1.2,0.6c0.4,0,1-0.2,1.6-0.6c0.2-0.1,0.3-0.1,0.5-0.1
	c0.3,0,0.5,0.2,0.7,0.5c0.2,0.3,0.3,0.6,0.3,1c0,0.7-0.4,1.3-1.1,1.9c-1.5,1.3-3.3,1.9-5.5,1.9c-1.7,0-3.1-0.5-4.1-1.4
	s-1.6-2.2-1.6-3.8v-7.4c0-0.2,0-0.4-0.1-0.5c-0.1-0.1-0.2-0.1-0.5-0.1h-1.6c-0.3,0-0.5,0-0.6-0.2c-0.1-0.1-0.1-0.3-0.1-0.7v-0.7
	c0-0.3,0.1-0.6,0.4-0.7l7.3-4.6c0.2-0.1,0.4-0.1,0.7-0.1h1.3c0.3,0,0.4,0.1,0.5,0.2c0.1,0.1,0.1,0.4,0.1,0.7v2.2
	c0,0.3,0.1,0.5,0.2,0.6c0.1,0.1,0.3,0.1,0.6,0.1h3c0.4,0,0.7,0.1,0.8,0.2c0.1,0.1,0.2,0.5,0.2,0.9v0.9c0,0.5-0.1,0.9-0.2,1.1
	c-0.1,0.2-0.4,0.3-0.8,0.3h-2.9c-0.3,0-0.5,0.1-0.6,0.2C170.6,19.2,170.6,19.4,170.6,19.7z"/>
<path class="st0" d="M182.6,10.4l-0.2,6.7c0,0.8,0.2,1.2,0.7,1.2c0.3,0,0.5-0.2,0.8-0.5c1-1.5,2.4-2.3,4.1-2.3c1.7,0,3,0.5,4,1.6
	c0.4,0.5,0.8,1,1,1.6c0.2,0.6,0.3,1.5,0.3,2.7l0.1,5.8c0,0.5,0.1,0.9,0.2,1.1c0.1,0.2,0.4,0.5,0.9,0.9c0.3,0.2,0.5,0.5,0.5,0.9
	c0,1.2-1.7,1.7-5.2,1.7c-3.1,0-4.6-0.5-4.6-1.6c0-0.2,0-0.3,0.1-0.4c0.1-0.1,0.2-0.4,0.6-0.8c0.4-0.6,0.7-2.1,0.7-4.4
	c0-1.4-0.1-2.5-0.4-3.1c-0.4-0.9-1-1.3-1.9-1.3c-0.7,0-1.1,0.2-1.4,0.7c-0.2,0.3-0.3,1-0.3,1.9v3.1c0.1,1.4,0.1,2.1,0.2,2.3
	c0.1,0.2,0.3,0.5,0.7,1c0.2,0.2,0.3,0.5,0.3,0.8c0,1.2-1.6,1.8-4.7,1.8c-3.7,0-5.5-0.6-5.5-1.9c0-0.3,0.1-0.5,0.2-0.7
	s0.4-0.4,0.9-0.7c0.4-0.3,0.7-1.1,0.8-2.3c0.2-1.3,0.2-3.4,0.2-6.3c0-2.3-0.1-3.9-0.2-4.8c0-0.3-0.1-0.6-0.2-0.7
	c-0.1-0.2-0.3-0.3-0.6-0.5c-0.7-0.3-1-0.7-1-1.2c0-0.5,0.3-1,0.8-1.3c0.5-0.3,1.5-0.7,2.9-1.1c1.9-0.5,3.5-0.8,4.6-0.8
	C182.3,9.6,182.6,9.9,182.6,10.4z"/>
<path class="st0" d="M208.1,23.2l-7.4,1.3c-0.3,0.1-0.5,0.2-0.4,0.5c0.1,0.7,0.6,1.3,1.5,1.7c0.8,0.5,1.7,0.6,2.5,0.5
	c0.5-0.1,1-0.3,1.6-0.6c0.6-0.3,1-0.6,1.4-1c0.3-0.3,0.6-0.5,0.8-0.5c0.3,0,0.6,0.1,0.9,0.4c0.3,0.3,0.5,0.6,0.6,1
	c0.1,0.8-0.2,1.6-1,2.4c-1.5,1.5-3.3,2.5-5.5,2.9c-2.2,0.4-4.2,0.1-5.9-0.9c-0.8-0.5-1.6-1.2-2.2-2c-0.8-1.1-1.4-2.3-1.6-3.6
	c-0.3-1.8-0.1-3.4,0.8-5c0.7-1.4,1.7-2.5,3.1-3.3c1-0.6,2.1-1.1,3.4-1.3c2-0.4,3.8-0.1,5.4,0.8c0.8,0.4,1.5,1,2.1,1.7
	c0.6,0.8,1,1.6,1.2,2.5c0.1,0.7,0.1,1.3-0.1,1.8S208.6,23.1,208.1,23.2z M200.6,21.4l1.6-0.3c0.7-0.1,1-0.5,0.8-1.1
	c-0.1-0.6-0.3-1-0.7-1.3c-0.4-0.3-0.8-0.4-1.4-0.3c-0.6,0.1-1,0.4-1.3,0.9c-0.2,0.5-0.3,1-0.2,1.4c0.1,0.3,0.2,0.5,0.3,0.6
	C199.9,21.5,200.2,21.5,200.6,21.4z"/>
<path class="st0" d="M215.6,15.6c0.6,0,0.9,0.1,1,0.2c0.1,0.2,0.2,0.7,0.3,1.5c0.1,0.5,0.2,0.7,0.5,0.7c0.2,0,0.4-0.2,0.6-0.5
	c0.9-1.3,2-2,3.3-2c1,0,1.8,0.3,2.4,0.9c0.3,0.3,0.5,0.7,0.7,1.2c0.2,0.5,0.3,1,0.3,1.4c0,0.5-0.1,1-0.4,1.5c-0.2,0.5-0.5,1-0.9,1.3
	c-0.7,0.7-1.5,1-2.5,1c-0.5,0-1-0.1-1.4-0.3c-0.4-0.2-0.9-0.6-1.4-1.2c-0.2-0.2-0.4-0.3-0.6-0.3c-0.3,0-0.5,0.2-0.6,0.5
	s-0.1,1-0.1,2.1c0,1.6,0.1,2.7,0.2,3.3c0.1,0.3,0.2,0.5,0.3,0.7c0.1,0.1,0.4,0.2,0.9,0.4c1,0.3,1.4,0.8,1.4,1.5
	c0,0.4-0.2,0.8-0.5,1.1c-0.3,0.3-0.7,0.5-1.2,0.6c-1,0.2-2.5,0.3-4.5,0.3c-1.9,0-3.3-0.2-4.3-0.5c-0.9-0.3-1.3-0.8-1.3-1.6
	c0-0.6,0.3-1.1,1-1.5c0.3-0.2,0.5-0.4,0.6-0.6c0.1-0.2,0.2-0.4,0.2-0.7c0.2-1,0.3-2.8,0.3-5.4c0-0.5-0.1-0.8-0.2-1s-0.3-0.4-0.6-0.5
	c-0.8-0.3-1.1-0.7-1.1-1.3c0-0.5,0.3-1,0.8-1.3c0.5-0.4,1.4-0.7,2.6-1.1C213,15.9,214.4,15.7,215.6,15.6z"/>
<path class="st0" d="M237.4,23.2l-7.4,1.3c-0.3,0.1-0.5,0.2-0.4,0.5c0.1,0.7,0.6,1.3,1.5,1.7c0.8,0.5,1.7,0.6,2.5,0.5
	c0.5-0.1,1-0.3,1.6-0.6c0.6-0.3,1-0.6,1.4-1c0.3-0.3,0.6-0.5,0.8-0.5c0.3,0,0.6,0.1,0.9,0.4c0.3,0.3,0.5,0.6,0.6,1
	c0.1,0.8-0.2,1.6-1,2.4c-1.5,1.5-3.3,2.5-5.5,2.9c-2.2,0.4-4.2,0.1-5.9-0.9c-0.8-0.5-1.6-1.2-2.2-2c-0.8-1.1-1.4-2.3-1.6-3.6
	c-0.3-1.8-0.1-3.4,0.8-5c0.7-1.4,1.7-2.5,3.1-3.3c1-0.6,2.1-1.1,3.4-1.3c2-0.4,3.8-0.1,5.4,0.8c0.8,0.4,1.5,1,2.1,1.7
	c0.6,0.8,1,1.6,1.2,2.5c0.1,0.7,0.1,1.3-0.1,1.8S237.9,23.1,237.4,23.2z M229.9,21.4l1.6-0.3c0.7-0.1,1-0.5,0.8-1.1
	c-0.1-0.6-0.3-1-0.7-1.3c-0.4-0.3-0.8-0.4-1.4-0.3c-0.6,0.1-1,0.4-1.3,0.9c-0.2,0.5-0.3,1-0.2,1.4c0.1,0.3,0.2,0.5,0.3,0.6
	C229.3,21.5,229.5,21.5,229.9,21.4z"/>
<path class="st0" d="M242.5,24.2c1,0,1.9,0.4,2.6,1.1c0.8,0.7,1.1,1.6,1.1,2.8c0,1.1-0.4,1.9-1.1,2.7c-0.7,0.7-1.6,1.1-2.6,1.1
	s-1.9-0.4-2.6-1.1c-0.8-0.7-1.1-1.6-1.1-2.7c0-1.1,0.4-2,1.1-2.7C240.6,24.5,241.5,24.2,242.5,24.2z"/>
<g>
	<g>
		<path class="st1" d="M495.6,196.7l-1.4-1.7c-0.6-0.7-1-1.2-1.4-1.5c-0.3-0.3-0.7-0.4-1.2-0.5c-0.8-0.2-1.3-0.6-1.3-1.2
			c0-0.7,0.5-1.1,1.6-1.4c1.1-0.3,2.8-0.5,5-0.5c1.6,0,2.9,0.1,3.7,0.3c0.9,0.2,1.3,0.6,1.3,1.3c0,0.2-0.2,0.6-0.5,1.2
			c-0.1,0.1-0.1,0.2-0.1,0.3c0,0.2,0.2,0.5,0.5,1s0.6,0.6,0.8,0.6c0.2,0,0.5-0.2,0.8-0.7c0.4-0.5,0.6-0.8,0.6-1.1
			c0-0.2-0.1-0.4-0.4-0.8c-0.2-0.3-0.3-0.5-0.3-0.7c0-0.2,0.1-0.5,0.3-0.7c0.2-0.2,0.4-0.4,0.7-0.5c0.5-0.2,1.3-0.3,2.4-0.3
			c1,0,1.7,0.1,2.1,0.3c0.5,0.3,0.8,0.7,0.8,1.2c0,0.3-0.1,0.5-0.2,0.6c-0.1,0.1-0.5,0.4-1.1,0.6c-0.3,0.2-0.6,0.3-0.8,0.5
			c-0.2,0.2-0.8,1-1.8,2.3l-1.1,1.7c-0.1,0.2-0.2,0.3-0.2,0.4c0,0,0.1,0.2,0.2,0.4l1,1.5c1,1.5,1.8,2.6,2.3,3
			c0.2,0.2,0.6,0.5,1.1,0.7c0.5,0.2,0.7,0.6,0.7,1.1c0,0.7-0.4,1.2-1.3,1.5c-0.9,0.3-2.5,0.4-4.9,0.4c-1.8,0-3.1-0.1-3.8-0.3
			c-1-0.2-1.4-0.7-1.4-1.5c0-0.4,0.3-0.8,0.8-1.1c0.3-0.1,0.5-0.4,0.5-0.7c0-0.4-0.2-0.8-0.7-1.4s-0.8-0.9-1-0.9
			c-0.3,0-0.6,0.4-1.1,1.2s-0.8,1.3-0.8,1.7c0,0.2,0.1,0.4,0.4,0.7c0.2,0.3,0.3,0.5,0.3,0.9c0,0.9-1.1,1.4-3.3,1.4
			c-1.2,0-2.1-0.1-2.6-0.4c-0.5-0.2-0.8-0.6-0.8-1.2c0-0.3,0.1-0.6,0.2-0.7c0.2-0.2,0.5-0.3,0.9-0.4c0.5-0.1,0.8-0.3,1.1-0.6
			s1-1.5,2.3-3.5l1.2-1.9c0.1-0.2,0.2-0.3,0.2-0.4C495.8,197,495.8,196.9,495.6,196.7z"/>
		<path class="st1" d="M517.1,189.7c2,0,3.7,0.5,5.1,1.5c1.1,0.7,1.9,1.7,2.5,2.8c0.7,1.2,1,2.5,1,3.8c0,2.3-1.1,4.3-3.2,5.9
			c-2,1.5-4.3,2.3-7,2.3c-2.6,0-4.6-0.7-6.2-2.2c-1.5-1.4-2.3-3.2-2.3-5.5c0-2.5,0.9-4.6,2.8-6.2
			C511.9,190.6,514.3,189.7,517.1,189.7z M515.8,193.4c-0.5,0-0.8,0.2-1.1,0.5c-0.3,0.3-0.4,0.8-0.4,1.4c0,0.6,0.1,1.5,0.4,2.6
			c0.2,1.1,0.5,2.1,0.9,2.9c0.3,0.9,0.9,1.3,1.6,1.3c0.9,0,1.4-0.6,1.4-1.8c0-0.9-0.1-1.9-0.4-3.1s-0.5-2.1-0.9-2.8
			C517,193.8,516.5,193.4,515.8,193.4z"/>
		<path class="st1" d="M528.6,196.7l-1.4-1.7c-0.6-0.7-1-1.2-1.4-1.5c-0.3-0.3-0.7-0.4-1.2-0.5c-0.8-0.2-1.3-0.6-1.3-1.2
			c0-0.7,0.5-1.1,1.6-1.4c1.1-0.3,2.8-0.5,5-0.5c1.6,0,2.9,0.1,3.7,0.3c0.9,0.2,1.3,0.6,1.3,1.3c0,0.2-0.2,0.6-0.5,1.2
			c-0.1,0.1-0.1,0.2-0.1,0.3c0,0.2,0.2,0.5,0.5,1s0.6,0.6,0.8,0.6c0.2,0,0.5-0.2,0.8-0.7s0.6-0.8,0.6-1.1c0-0.2-0.1-0.4-0.4-0.8
			c-0.2-0.3-0.3-0.5-0.3-0.7c0-0.2,0.1-0.5,0.3-0.7c0.2-0.2,0.4-0.4,0.7-0.5c0.5-0.2,1.3-0.3,2.4-0.3c1,0,1.7,0.1,2.1,0.3
			c0.5,0.3,0.8,0.7,0.8,1.2c0,0.3-0.1,0.5-0.2,0.6c-0.1,0.1-0.5,0.4-1.1,0.6c-0.3,0.2-0.6,0.3-0.8,0.5c-0.2,0.2-0.8,1-1.8,2.3
			l-1.1,1.7c-0.1,0.2-0.2,0.3-0.2,0.4c0,0,0.1,0.2,0.2,0.4l1,1.5c1,1.5,1.8,2.6,2.3,3c0.2,0.2,0.6,0.5,1.1,0.7
			c0.5,0.2,0.7,0.6,0.7,1.1c0,0.7-0.4,1.2-1.3,1.5c-0.9,0.3-2.5,0.4-4.9,0.4c-1.8,0-3.1-0.1-3.8-0.3c-1-0.2-1.4-0.7-1.4-1.5
			c0-0.4,0.3-0.8,0.8-1.1c0.3-0.1,0.5-0.4,0.5-0.7c0-0.4-0.2-0.8-0.7-1.4s-0.8-0.9-1-0.9c-0.3,0-0.6,0.4-1.1,1.2s-0.8,1.3-0.8,1.7
			c0,0.2,0.1,0.4,0.4,0.7c0.2,0.3,0.3,0.5,0.3,0.9c0,0.9-1.1,1.4-3.3,1.4c-1.2,0-2.1-0.1-2.6-0.4s-0.8-0.6-0.8-1.2
			c0-0.3,0.1-0.6,0.2-0.7s0.5-0.3,0.9-0.4c0.5-0.1,0.8-0.3,1.1-0.6c0.2-0.3,1-1.5,2.3-3.5l1.2-1.9c0.1-0.2,0.2-0.3,0.2-0.4
			C528.8,197,528.7,196.9,528.6,196.7z"/>
		<path class="st1" d="M550.1,189.7c2,0,3.7,0.5,5.1,1.5c1.1,0.7,1.9,1.7,2.5,2.8c0.7,1.2,1,2.5,1,3.8c0,2.3-1.1,4.3-3.2,5.9
			c-2,1.5-4.3,2.3-7,2.3c-2.5,0-4.6-0.7-6.2-2.2c-1.5-1.4-2.3-3.2-2.3-5.5c0-2.5,0.9-4.6,2.8-6.2
			C544.9,190.6,547.3,189.7,550.1,189.7z M548.8,193.4c-0.5,0-0.8,0.2-1.1,0.5c-0.3,0.3-0.4,0.8-0.4,1.4c0,0.6,0.1,1.5,0.4,2.6
			c0.2,1.1,0.5,2.1,0.9,2.9c0.3,0.9,0.9,1.3,1.6,1.3c1,0,1.4-0.6,1.4-1.8c0-0.9-0.1-1.9-0.4-3.1s-0.5-2.1-0.9-2.8
			C549.9,193.8,549.4,193.4,548.8,193.4z"/>
	</g>
</g>
</svg>
