<?xml version="1.0" encoding="utf-8"?>
<!-- Generator: Adobe Illustrator 21.1.0, SVG Export Plug-In . SVG Version: 6.00 Build 0)  -->
<svg version="1.1" id="Layer_1" xmlns="http://www.w3.org/2000/svg" xmlns:xlink="http://www.w3.org/1999/xlink" x="0px" y="0px"
	 viewBox="0 0 71 45" style="enable-background:new 0 0 71 45;" xml:space="preserve">
<style type="text/css">
	.st0{fill:#ED2B6B;}
</style>
<g>
	<g>
		<path class="st0" d="M6.6,21.7L5.3,20c-0.6-0.7-1-1.2-1.4-1.5c-0.3-0.3-0.7-0.4-1.2-0.5c-0.8-0.2-1.3-0.6-1.3-1.2
			c0-0.7,0.5-1.1,1.6-1.4c1.1-0.3,2.8-0.5,5-0.5c1.6,0,2.9,0.1,3.7,0.3c0.9,0.2,1.3,0.6,1.3,1.3c0,0.2-0.2,0.6-0.5,1.2
			c-0.1,0.1-0.1,0.2-0.1,0.3c0,0.2,0.2,0.5,0.5,1s0.6,0.6,0.8,0.6c0.2,0,0.5-0.2,0.8-0.7c0.4-0.5,0.6-0.8,0.6-1.1
			c0-0.2-0.1-0.4-0.4-0.8c-0.2-0.3-0.3-0.5-0.3-0.7c0-0.2,0.1-0.5,0.3-0.7c0.2-0.2,0.4-0.4,0.7-0.5c0.5-0.2,1.3-0.3,2.4-0.3
			c1,0,1.7,0.1,2.1,0.3c0.5,0.3,0.8,0.7,0.8,1.2c0,0.3-0.1,0.5-0.2,0.6c-0.1,0.1-0.5,0.4-1.1,0.6c-0.3,0.2-0.6,0.3-0.8,0.5
			c-0.2,0.2-0.8,1-1.8,2.3l-1.1,1.7c-0.1,0.2-0.2,0.3-0.2,0.4c0,0,0.1,0.2,0.2,0.4l1,1.5c1,1.5,1.8,2.6,2.3,3
			c0.2,0.2,0.6,0.5,1.1,0.7c0.5,0.2,0.7,0.6,0.7,1.1c0,0.7-0.4,1.2-1.3,1.5c-0.9,0.3-2.5,0.4-4.9,0.4c-1.8,0-3.1-0.1-3.8-0.3
			c-1-0.2-1.4-0.7-1.4-1.5c0-0.4,0.3-0.8,0.8-1.1c0.3-0.1,0.5-0.4,0.5-0.7c0-0.4-0.2-0.8-0.7-1.4s-0.8-0.9-1-0.9
			c-0.3,0-0.6,0.4-1.1,1.2S6.9,27.6,6.9,28c0,0.2,0.1,0.4,0.4,0.7c0.2,0.3,0.3,0.5,0.3,0.9c0,0.9-1.1,1.4-3.3,1.4
			c-1.2,0-2.1-0.1-2.6-0.4C1.3,30.4,1,30,1,29.5c0-0.3,0.1-0.6,0.2-0.7c0.2-0.2,0.5-0.3,0.9-0.4c0.5-0.1,0.8-0.3,1.1-0.6
			s1-1.5,2.3-3.5l1.2-1.9c0.1-0.2,0.2-0.3,0.2-0.4C6.8,22,6.8,21.9,6.6,21.7z"/>
		<path class="st0" d="M28.1,14.7c2,0,3.7,0.5,5.1,1.5c1.1,0.7,1.9,1.7,2.5,2.8c0.7,1.2,1,2.5,1,3.8c0,2.3-1.1,4.3-3.2,5.9
			c-2,1.5-4.3,2.3-7,2.3c-2.6,0-4.6-0.7-6.2-2.2c-1.5-1.4-2.3-3.2-2.3-5.5c0-2.5,0.9-4.6,2.8-6.2C22.9,15.6,25.3,14.7,28.1,14.7z
			 M26.8,18.4c-0.5,0-0.8,0.2-1.1,0.5c-0.3,0.3-0.4,0.8-0.4,1.4c0,0.6,0.1,1.5,0.4,2.6c0.2,1.1,0.5,2.1,0.9,2.9
			c0.3,0.9,0.9,1.3,1.6,1.3c0.9,0,1.4-0.6,1.4-1.8c0-0.9-0.1-1.9-0.4-3.1s-0.5-2.1-0.9-2.8C28,18.8,27.5,18.4,26.8,18.4z"/>
		<path class="st0" d="M39.6,21.7L38.2,20c-0.6-0.7-1-1.2-1.4-1.5c-0.3-0.3-0.7-0.4-1.2-0.5c-0.8-0.2-1.3-0.6-1.3-1.2
			c0-0.7,0.5-1.1,1.6-1.4c1.1-0.3,2.8-0.5,5-0.5c1.6,0,2.9,0.1,3.7,0.3c0.9,0.2,1.3,0.6,1.3,1.3c0,0.2-0.2,0.6-0.5,1.2
			c-0.1,0.1-0.1,0.2-0.1,0.3c0,0.2,0.2,0.5,0.5,1s0.6,0.6,0.8,0.6c0.2,0,0.5-0.2,0.8-0.7S48,18,48,17.8c0-0.2-0.1-0.4-0.4-0.8
			c-0.2-0.3-0.3-0.5-0.3-0.7c0-0.2,0.1-0.5,0.3-0.7c0.2-0.2,0.4-0.4,0.7-0.5c0.5-0.2,1.3-0.3,2.4-0.3c1,0,1.7,0.1,2.1,0.3
			c0.5,0.3,0.8,0.7,0.8,1.2c0,0.3-0.1,0.5-0.2,0.6c-0.1,0.1-0.5,0.4-1.1,0.6c-0.3,0.2-0.6,0.3-0.8,0.5c-0.2,0.2-0.8,1-1.8,2.3
			l-1.1,1.7c-0.1,0.2-0.2,0.3-0.2,0.4c0,0,0.1,0.2,0.2,0.4l1,1.5c1,1.5,1.8,2.6,2.3,3c0.2,0.2,0.6,0.5,1.1,0.7
			c0.5,0.2,0.7,0.6,0.7,1.1c0,0.7-0.4,1.2-1.3,1.5c-0.9,0.3-2.5,0.4-4.9,0.4c-1.8,0-3.1-0.1-3.8-0.3c-1-0.2-1.4-0.7-1.4-1.5
			c0-0.4,0.3-0.8,0.8-1.1c0.3-0.1,0.5-0.4,0.5-0.7c0-0.4-0.2-0.8-0.7-1.4s-0.8-0.9-1-0.9c-0.3,0-0.6,0.4-1.1,1.2s-0.8,1.3-0.8,1.7
			c0,0.2,0.1,0.4,0.4,0.7c0.2,0.3,0.3,0.5,0.3,0.9c0,0.9-1.1,1.4-3.3,1.4c-1.2,0-2.1-0.1-2.6-0.4S34,30,34,29.5
			c0-0.3,0.1-0.6,0.2-0.7s0.5-0.3,0.9-0.4c0.5-0.1,0.8-0.3,1.1-0.6c0.2-0.3,1-1.5,2.3-3.5l1.2-1.9c0.1-0.2,0.2-0.3,0.2-0.4
			C39.8,22,39.7,21.9,39.6,21.7z"/>
		<path class="st0" d="M61.1,14.7c2,0,3.7,0.5,5.1,1.5c1.1,0.7,1.9,1.7,2.5,2.8c0.7,1.2,1,2.5,1,3.8c0,2.3-1.1,4.3-3.2,5.9
			c-2,1.5-4.3,2.3-7,2.3c-2.5,0-4.6-0.7-6.2-2.2c-1.5-1.4-2.3-3.2-2.3-5.5c0-2.5,0.9-4.6,2.8-6.2C55.9,15.6,58.3,14.7,61.1,14.7z
			 M59.8,18.4c-0.5,0-0.8,0.2-1.1,0.5c-0.3,0.3-0.4,0.8-0.4,1.4c0,0.6,0.1,1.5,0.4,2.6c0.2,1.1,0.5,2.1,0.9,2.9
			c0.3,0.9,0.9,1.3,1.6,1.3c1,0,1.4-0.6,1.4-1.8c0-0.9-0.1-1.9-0.4-3.1s-0.5-2.1-0.9-2.8C60.9,18.8,60.4,18.4,59.8,18.4z"/>
	</g>
</g>
</svg>
