<?xml version="1.0" encoding="utf-8"?>
<!-- Generator: Adobe Illustrator 18.0.0, SVG Export Plug-In . SVG Version: 6.00 Build 0)  -->
<!DOCTYPE svg PUBLIC "-//W3C//DTD SVG 1.1//EN" "http://www.w3.org/Graphics/SVG/1.1/DTD/svg11.dtd">
<svg version="1.1" id="Layer_1" xmlns:sketch="http://www.bohemiancoding.com/sketch/ns"
	 xmlns="http://www.w3.org/2000/svg" xmlns:xlink="http://www.w3.org/1999/xlink" x="0px" y="0px" viewBox="0 0 54 49"
	 enable-background="new 0 0 54 49" xml:space="preserve">
<title>Imported Layers</title>
<desc>Created with Sketch.</desc>
<g id="Mercury-Mockup-v1" sketch:type="MSPage">
	<g id="Basic---1024px-2" transform="translate(-147.000000, -642.000000)" sketch:type="MSArtboardGroup">
		<g id="Module" transform="translate(-62.000000, 592.000000)" sketch:type="MSLayerGroup">
			<g id="Imported-Layers" transform="translate(209.000000, 50.000000)" sketch:type="MSShapeGroup">
				<path id="Stroke-1" fill="none" stroke="#FFFFFF" stroke-width="2" stroke-linecap="round" stroke-linejoin="round" d="
					M51.5,46.5H24.1c-5.2,0-9.5-4.2-9.5-9.4V7.3H42c5.2,0,9.5,4.2,9.5,9.4V46.5L51.5,46.5z M20.5,4.9v4.7V4.9z M24.4,4.9v4.7V4.9z
					 M28.2,4.9v4.7V4.9z M32.1,4.9v4.7V4.9z M35.9,4.9v4.7V4.9z M39.7,4.9v4.7V4.9z M24.8,29.7h14.5H24.8z M24.8,21.9h14.5H24.8z"/>
				<path id="Fill-2" fill="#425462" d="M0.9,4.3C0.2,3,0.6,1.5,1.9,0.8c0.4-0.2,0.8-0.3,1.3-0.3c0.9,0,1.8,0.5,2.3,1.3l1.8,3.1
					L2.7,7.4L0.9,4.3"/>
				<path id="Fill-3" fill="#EA318D" d="M6.1,4.5L4.7,2.1C4.2,1.3,3.1,1,2.3,1.5C1.5,2,1.2,3,1.6,3.9L3,6.2L6.1,4.5"/>
				<path id="Fill-4" fill="#425462" d="M24.1,39.9c-0.2,0-0.5-0.1-0.6-0.2l-1.9-1.1c-0.4-0.2-0.7-0.5-0.9-0.9L2.3,6.5L6.8,4
					l18.3,31.3c0.2,0.4,0.3,0.8,0.3,1.2l0,2.2C25.4,39.3,24.8,39.9,24.1,39.9"/>
				<path id="Fill-5" fill="#EA318D" d="M3.4,6.8l17.9,30.6c0.1,0.2,0.3,0.4,0.6,0.6l1.9,1.1c0.3,0.2,0.7,0,0.7-0.4l0-2.2
					c0-0.3-0.1-0.5-0.2-0.8L6.5,5.1L3.4,6.8"/>
			</g>
		</g>
	</g>
</g>
</svg>
