<?xml version="1.0" encoding="utf-8"?>
<!-- Generator: Adobe Illustrator 18.0.0, SVG Export Plug-In . SVG Version: 6.00 Build 0)  -->
<!DOCTYPE svg PUBLIC "-//W3C//DTD SVG 1.1//EN" "http://www.w3.org/Graphics/SVG/1.1/DTD/svg11.dtd">
<svg version="1.1" id="Layer_1" xmlns="http://www.w3.org/2000/svg" xmlns:xlink="http://www.w3.org/1999/xlink" x="0px" y="0px"
	 viewBox="0 0 128.5 128.5" enable-background="new 0 0 128.5 128.5" xml:space="preserve">
<g>
	<path fill="none" stroke="#2AABE2" stroke-width="4" stroke-linecap="round" stroke-linejoin="round" stroke-miterlimit="10" d="
		M98.8,41.8c0,0,9.1,38.8-33.9,54.6C21.9,80.6,31,41.8,31,41.8l0.3-1.5c0.1-0.3,0.3-0.6,0.7-0.6c0.3-0.1,0.7,0,0.9,0.3
		c0.8,0.9,3,2.3,5.9,2.3c0.8,0,1.6-0.1,2.3-0.3c2.7-0.9,4.1-2.6,5.6-4.5c1.8-2.3,3.8-4.8,8.2-5.7c0.7-0.1,1.3-0.2,2-0.2
		c3.8,0,6.7,2,8,3.2c1.4-1.2,4.3-3.2,8-3.2c0.7,0,1.4,0.1,2,0.2c4.5,0.9,6.5,3.5,8.2,5.7c1.5,1.9,2.9,3.7,5.6,4.5
		c0.7,0.2,1.5,0.3,2.3,0.3c2.8,0,5.1-1.4,5.9-2.3c0.2-0.3,0.6-0.4,0.9-0.3c0.3,0.1,0.6,0.3,0.7,0.6L98.8,41.8z"/>
	<polygon fill="#2AABE2" points="77.3,58.5 77.2,58.5 77.1,58.5 77,58.5 76.9,58.5 76.8,58.5 76.8,58.5 76.7,58.5 76.7,58.5 
		68.8,58.5 68.7,58.5 68.7,58.5 68.6,58.5 68.5,58.5 68.4,58.5 68.3,58.5 68.2,58.5 68.2,50.1 68.2,50.1 68.2,50 68.2,49.9 
		68.2,49.8 68.2,49.7 68.2,49.6 68.2,49.5 68.2,49.5 68.2,49.4 61.6,49.4 61.6,49.5 61.6,49.5 61.6,49.6 61.6,49.7 61.6,49.8 
		61.6,49.9 61.6,50 61.6,50.1 61.6,57.9 61.6,58 61.6,58 61.6,58.1 61.6,58.2 61.6,58.3 61.6,58.4 61.6,58.5 61.5,58.5 61.4,58.5 
		61.3,58.5 61.2,58.5 61.2,58.5 61.1,58.5 61,58.5 53.1,58.5 53.1,58.5 53,58.5 53,58.5 52.9,58.5 52.8,58.5 52.7,58.5 52.6,58.5 
		52.5,58.5 52.4,58.5 52.4,64.9 52.5,64.9 52.6,64.9 52.7,64.9 52.8,64.9 52.9,64.9 53,64.9 53,64.9 53.1,64.9 53.1,64.9 61,64.9 
		61.1,64.9 61.2,64.9 61.2,64.9 61.3,64.9 61.4,64.9 61.5,64.9 61.6,64.9 61.6,65 61.6,65.1 61.6,65.2 61.6,65.3 61.6,65.3 
		61.6,65.4 61.6,65.5 61.6,73.3 61.6,73.4 61.6,73.5 61.6,73.6 61.6,73.7 61.6,73.8 61.6,73.8 61.6,73.9 61.6,74 68.2,74 68.2,73.9 
		68.2,73.8 68.2,73.8 68.2,73.7 68.2,73.6 68.2,73.5 68.2,73.4 68.2,73.3 68.2,73.3 68.2,64.9 68.3,64.9 68.4,64.9 68.5,64.9 
		68.6,64.9 68.7,64.9 68.7,64.9 68.8,64.9 76.7,64.9 76.7,64.9 76.8,64.9 76.8,64.9 76.9,64.9 77,64.9 77.1,64.9 77.2,64.9 
		77.3,64.9 77.4,64.9 77.4,58.5 	"/>
</g>
</svg>
