<?xml version="1.0" encoding="utf-8"?>
<!-- Generator: Adobe Illustrator 18.0.0, SVG Export Plug-In . SVG Version: 6.00 Build 0)  -->
<!DOCTYPE svg PUBLIC "-//W3C//DTD SVG 1.1//EN" "http://www.w3.org/Graphics/SVG/1.1/DTD/svg11.dtd">
<svg version="1.1" id="Layer_1" xmlns="http://www.w3.org/2000/svg" xmlns:xlink="http://www.w3.org/1999/xlink" x="0px" y="0px"
	 viewBox="0 0 28 28" enable-background="new 0 0 28 28" xml:space="preserve">
<path fill="#FFFFFF" d="M24.3,8.8c0.4,8.3-6,15.4-14.3,15.9c-3.1,0.2-6.2-0.6-8.9-2.3c2.7,0.2,5.4-0.6,7.5-2.3
	c-2.1-0.2-3.8-1.7-4.5-3.6c0.8,0.1,1.6,0.1,2.4-0.2c-2.5-0.5-4.3-2.6-4.4-5.1c0.7,0.3,1.4,0.4,2.2,0.4c-2.1-1.6-2.7-4.6-1.4-7
	c2.7,3.3,6.7,5.3,10.9,5.6c-0.8-2.7,0.7-5.6,3.4-6.5c2-0.6,4.2,0,5.5,1.7C24,5.1,25.1,4.6,26.1,4c-0.4,1.3-1.2,2.3-2.4,2.9
	c1-0.1,2.1-0.4,3-0.9C26.3,7.2,25.4,8.2,24.3,8.8z"/>
</svg>
