<?xml version="1.0" encoding="UTF-8" standalone="no"?>
<svg width="52px" height="52px" viewBox="0 0 52 52" version="1.1" xmlns="http://www.w3.org/2000/svg" xmlns:xlink="http://www.w3.org/1999/xlink" xmlns:sketch="http://www.bohemiancoding.com/sketch/ns">
    <!-- Generator: Sketch 3.2.2 (9983) - http://www.bohemiancoding.com/sketch -->
    <title>Oval 20 + “</title>
    <desc>Created with Sketch.</desc>
    <defs></defs>
    <g id="Mark's-Land-Page" stroke="none" stroke-width="1" fill="none" fill-rule="evenodd" sketch:type="MSPage">
        <g id="Quotes" sketch:type="MSArtboardGroup" transform="translate(-235.000000, -401.000000)">
            <g id="Quote-01" sketch:type="MSLayerGroup" transform="translate(0.000000, 372.000000)">
                <g id="Quote" sketch:type="MSShapeGroup">
                    <g id="Oval-20-+-“" transform="translate(235.000000, 29.000000)">
                        <ellipse id="Oval-20" fill="#66C1E8" cx="25.8064516" cy="25.7910448" rx="25.8064516" ry="25.7910448"></ellipse>
                        <path d="M26.8524223,33.970796 L36.2189677,33.970796 L36.2189677,24.7198869 L32.6342405,24.7198869 C32.3451496,21.4242506 34.3109677,19.4006142 38.3004223,18.9958869 L37.5487859,15.3533415 C30.6684223,15.4689779 26.8524223,18.5333415 26.8524223,26.1653415 L26.8524223,33.970796 Z M12.1666041,33.970796 L21.5331496,33.970796 L21.5331496,24.7198869 L17.9484223,24.7198869 C17.6593314,21.4242506 19.6251496,19.4006142 23.6146041,18.9958869 L22.8629677,15.3533415 C15.9826041,15.4689779 12.1666041,18.5333415 12.1666041,26.1653415 L12.1666041,33.970796 Z" id="“" fill="#34ADE1"></path>
                    </g>
                </g>
            </g>
        </g>
    </g>
</svg>